  0
SECTION
  2
HEADER
  9
$ACADVER
  1
AC1014
  9
$HANDSEED
  5
FFFF
  9
$MEASUREMENT
 70
     1
  0
ENDSEC
  0
SECTION
  2
TABLES
  0
TABLE
  2
VPORT
  5
8
330
0
100
AcDbSymbolTable
 70
     4
  0
VPORT
  5
2E
330
8
100
AcDbSymbolTableRecord
100
AcDbViewportTableRecord
  2
*ACTIVE
 70
     0
 10
0.0
 20
0.0
 11
1.0
 21
1.0
 12
210.0
 22
148.5
 13
0.0
 23
0.0
 14
10.0
 24
10.0
 15
10.0
 25
10.0
 16
0.0
 26
0.0
 36
1.0
 17
0.0
 27
0.0
 37
0.0
 40
341.0
 41
1.24
 42
50.0
 43
0.0
 44
0.0
 50
0.0
 51
0.0
 71
     0
 72
   100
 73
     1
 74
     3
 75
     0
 76
     0
 77
     0
 78
     0
  0
ENDTAB
  0
TABLE
  2
LTYPE
  5
5
330
0
100
AcDbSymbolTable
 70
     1
  0
LTYPE
  5
14
330
5
100
AcDbSymbolTableRecord
100
AcDbLinetypeTableRecord
  2
BYBLOCK
 70
     0
  3

 72
    65
 73
     0
 40
0.0
  0
LTYPE
  5
15
330
5
100
AcDbSymbolTableRecord
100
AcDbLinetypeTableRecord
  2
BYLAYER
 70
     0
  3

 72
    65
 73
     0
 40
0.0
  0
LTYPE
  5
16
330
5
100
AcDbSymbolTableRecord
100
AcDbLinetypeTableRecord
  2
CONTINUOUS
 70
     0
  3
Solid line
 72
    65
 73
     0
 40
0.0
  0
ENDTAB
  0
TABLE
  2
LAYER
  5
2
100
AcDbSymbolTable
 70
1
  0
LAYER
  5
50
100
AcDbSymbolTableRecord
100
AcDbLayerTableRecord
  2
0
 70
0
  6
CONTINUOUS
  0
ENDTAB
  0
TABLE
  2
STYLE
  5
3
330
0
100
AcDbSymbolTable
 70
     1
  0
STYLE
  5
11
330
3
100
AcDbSymbolTableRecord
100
AcDbTextStyleTableRecord
  2
STANDARD
 70
     0
 40
0.0
 41
1.0
 50
0.0
 71
     0
 42
2.5
  3
txt
  4

  0
ENDTAB
  0
TABLE
  2
VIEW
  5
6
330
0
100
AcDbSymbolTable
 70
     0
  0
ENDTAB
  0
TABLE
  2
UCS
  5
7
330
0
100
AcDbSymbolTable
 70
     0
  0
ENDTAB
  0
TABLE
  2
APPID
  5
9
330
0
100
AcDbSymbolTable
 70
     2
  0
APPID
  5
12
330
9
100
AcDbSymbolTableRecord
100
AcDbRegAppTableRecord
  2
ACAD
 70
     0
  0
ENDTAB
  0
TABLE
  2
DIMSTYLE
  5
A
330
0
100
AcDbSymbolTable
 70
     1
  0
DIMSTYLE
105
27
330
A
100
AcDbSymbolTableRecord
100
AcDbDimStyleTableRecord
  2
ISO-25
 70
     0
  3

  4

  5

  6

  7

 40
1.0
 41
2.5
 42
0.625
 43
3.75
 44
1.25
 45
0.0
 46
0.0
 47
0.0
 48
0.0
140
2.5
141
2.5
142
0.0
143
0.03937007874016
144
1.0
145
0.0
146
1.0
147
0.625
 71
     0
 72
     0
 73
     0
 74
     0
 75
     0
 76
     0
 77
     1
 78
     8
170
     0
171
     3
172
     1
173
     0
174
     0
175
     0
176
     0
177
     0
178
     0
270
     2
271
     2
272
     2
273
     2
274
     3
340
11
275
     0
280
     0
281
     0
282
     0
283
     0
284
     8
285
     0
286
     0
287
     3
288
     0
  0
ENDTAB
  0
TABLE
  2
BLOCK_RECORD
  5
1
330
0
100
AcDbSymbolTable
 70
     1
  0
BLOCK_RECORD
  5
1F
330
1
100
AcDbSymbolTableRecord
100
AcDbBlockTableRecord
  2
*MODEL_SPACE
  0
BLOCK_RECORD
  5
1B
330
1
100
AcDbSymbolTableRecord
100
AcDbBlockTableRecord
  2
*PAPER_SPACE
  0
ENDTAB
  0
ENDSEC
  0
SECTION
  2
BLOCKS
  0
BLOCK
  5
20
330
1F
100
AcDbEntity
  8
0
100
AcDbBlockBegin
  2
*MODEL_SPACE
 70
     0
 10
0.0
 20
0.0
 30
0.0
  3
*MODEL_SPACE
  1

  0
ENDBLK
  5
21
330
1F
100
AcDbEntity
  8
0
100
AcDbBlockEnd
  0
BLOCK
  5
1C
330
1B
100
AcDbEntity
 67
     1
  8
0
100
AcDbBlockBegin
  2
*PAPER_SPACE
  1

  0
ENDBLK
  5
1D
330
1B
100
AcDbEntity
 67
     1
  8
0
100
AcDbBlockEnd
  0
ENDSEC
  0
SECTION
  2
ENTITIES
  0
LWPOLYLINE
  5
100
100
AcDbEntity
  8
0
 62
7
100
AcDbPolyline
 90
2
 70
0
 10
177.426620
 20
-72.996755
 30
0.0
 10
177.426620
 20
-74.188015
 30
0.0
  0
LWPOLYLINE
  5
101
100
AcDbEntity
  8
0
 62
7
100
AcDbPolyline
 90
2
 70
0
 10
215.526620
 20
-3.939235
 30
0.0
 10
215.526620
 20
-33.111135
 30
0.0
  0
LWPOLYLINE
  5
102
100
AcDbEntity
  8
0
 62
7
100
AcDbPolyline
 90
2
 70
0
 10
237.553500
 20
0.823265
 30
0.0
 10
2.405380
 20
0.823265
 30
0.0
  0
SPLINE
  5
103
100
AcDbEntity
  8
0
 62
7
100
AcDbSpline
 70
8
 71
3
 72
8
 73
4
 74
0
 40
0
 40
0
 40
0
 40
0
 40
1
 40
1
 40
1
 40
1
 10
110.753144
 20
-1.155443
 30
0.0
 10
110.348682
 20
-1.155443
 30
0.0
 10
109.984045
 20
-1.399086
 30
0.0
 10
109.829264
 20
-1.772760
 30
0.0
  0
SPLINE
  5
104
100
AcDbEntity
  8
0
 62
7
100
AcDbSpline
 70
8
 71
3
 72
8
 73
4
 74
0
 40
0
 40
0
 40
0
 40
0
 40
1
 40
1
 40
1
 40
1
 10
109.829264
 20
-1.772760
 30
0.0
 10
109.674483
 20
-2.146435
 30
0.0
 10
109.760039
 20
-2.576553
 30
0.0
 10
110.046037
 20
-2.862551
 30
0.0
  0
SPLINE
  5
105
100
AcDbEntity
  8
0
 62
7
100
AcDbSpline
 70
8
 71
3
 72
8
 73
4
 74
0
 40
0
 40
0
 40
0
 40
0
 40
1
 40
1
 40
1
 40
1
 10
110.046037
 20
-2.862551
 30
0.0
 10
110.332035
 20
-3.148549
 30
0.0
 10
110.762153
 20
-3.234105
 30
0.0
 10
111.135828
 20
-3.079324
 30
0.0
  0
SPLINE
  5
106
100
AcDbEntity
  8
0
 62
7
100
AcDbSpline
 70
8
 71
3
 72
8
 73
4
 74
0
 40
0
 40
0
 40
0
 40
0
 40
1
 40
1
 40
1
 40
1
 10
111.135828
 20
-3.079324
 30
0.0
 10
111.509502
 20
-2.924543
 30
0.0
 10
111.753145
 20
-2.559906
 30
0.0
 10
111.753145
 20
-2.155444
 30
0.0
  0
SPLINE
  5
107
100
AcDbEntity
  8
0
 62
7
100
AcDbSpline
 70
8
 71
3
 72
8
 73
4
 74
0
 40
0
 40
0
 40
0
 40
0
 40
1
 40
1
 40
1
 40
1
 10
111.753145
 20
-2.155444
 30
0.0
 10
111.753145
 20
-1.890227
 30
0.0
 10
111.647788
 20
-1.635873
 30
0.0
 10
111.460251
 20
-1.448337
 30
0.0
  0
SPLINE
  5
108
100
AcDbEntity
  8
0
 62
7
100
AcDbSpline
 70
8
 71
3
 72
8
 73
4
 74
0
 40
0
 40
0
 40
0
 40
0
 40
1
 40
1
 40
1
 40
1
 10
111.460251
 20
-1.448337
 30
0.0
 10
111.272715
 20
-1.260800
 30
0.0
 10
111.018361
 20
-1.155443
 30
0.0
 10
110.753144
 20
-1.155443
 30
0.0
  0
LWPOLYLINE
  5
109
100
AcDbEntity
  8
0
 62
7
100
AcDbPolyline
 90
2
 70
0
 10
233.982260
 20
-33.705495
 30
0.0
 10
216.123520
 20
-33.705495
 30
0.0
  0
SPLINE
  5
10a
100
AcDbEntity
  8
0
 62
7
100
AcDbSpline
 70
8
 71
3
 72
8
 73
4
 74
0
 40
0
 40
0
 40
0
 40
0
 40
1
 40
1
 40
1
 40
1
 10
233.983022
 20
-33.707019
 30
0.0
 10
234.140931
 20
-33.707036
 30
0.0
 10
234.292377
 20
-33.644315
 30
0.0
 10
234.404035
 20
-33.532656
 30
0.0
  0
SPLINE
  5
10b
100
AcDbEntity
  8
0
 62
7
100
AcDbSpline
 70
8
 71
3
 72
8
 73
4
 74
0
 40
0
 40
0
 40
0
 40
0
 40
1
 40
1
 40
1
 40
1
 10
234.404035
 20
-33.532656
 30
0.0
 10
234.515693
 20
-33.420998
 30
0.0
 10
234.578415
 20
-33.269552
 30
0.0
 10
234.578398
 20
-33.111643
 30
0.0
  0
SPLINE
  5
10c
100
AcDbEntity
  8
0
 62
7
100
AcDbSpline
 70
8
 71
3
 72
8
 73
4
 74
0
 40
0
 40
0
 40
0
 40
0
 40
1
 40
1
 40
1
 40
1
 10
236.959648
 20
-1.155443
 30
0.0
 10
236.555186
 20
-1.155443
 30
0.0
 10
236.190549
 20
-1.399086
 30
0.0
 10
236.035768
 20
-1.772760
 30
0.0
  0
SPLINE
  5
10d
100
AcDbEntity
  8
0
 62
7
100
AcDbSpline
 70
8
 71
3
 72
8
 73
4
 74
0
 40
0
 40
0
 40
0
 40
0
 40
1
 40
1
 40
1
 40
1
 10
236.035768
 20
-1.772760
 30
0.0
 10
235.880987
 20
-2.146435
 30
0.0
 10
235.966543
 20
-2.576553
 30
0.0
 10
236.252541
 20
-2.862551
 30
0.0
  0
SPLINE
  5
10e
100
AcDbEntity
  8
0
 62
7
100
AcDbSpline
 70
8
 71
3
 72
8
 73
4
 74
0
 40
0
 40
0
 40
0
 40
0
 40
1
 40
1
 40
1
 40
1
 10
236.252541
 20
-2.862551
 30
0.0
 10
236.538539
 20
-3.148549
 30
0.0
 10
236.968657
 20
-3.234105
 30
0.0
 10
237.342332
 20
-3.079324
 30
0.0
  0
SPLINE
  5
10f
100
AcDbEntity
  8
0
 62
7
100
AcDbSpline
 70
8
 71
3
 72
8
 73
4
 74
0
 40
0
 40
0
 40
0
 40
0
 40
1
 40
1
 40
1
 40
1
 10
237.342332
 20
-3.079324
 30
0.0
 10
237.716006
 20
-2.924543
 30
0.0
 10
237.959649
 20
-2.559906
 30
0.0
 10
237.959649
 20
-2.155444
 30
0.0
  0
SPLINE
  5
110
100
AcDbEntity
  8
0
 62
7
100
AcDbSpline
 70
8
 71
3
 72
8
 73
4
 74
0
 40
0
 40
0
 40
0
 40
0
 40
1
 40
1
 40
1
 40
1
 10
237.959649
 20
-2.155444
 30
0.0
 10
237.959649
 20
-1.890227
 30
0.0
 10
237.854292
 20
-1.635873
 30
0.0
 10
237.666755
 20
-1.448337
 30
0.0
  0
SPLINE
  5
111
100
AcDbEntity
  8
0
 62
7
100
AcDbSpline
 70
8
 71
3
 72
8
 73
4
 74
0
 40
0
 40
0
 40
0
 40
0
 40
1
 40
1
 40
1
 40
1
 10
237.666755
 20
-1.448337
 30
0.0
 10
237.479219
 20
-1.260800
 30
0.0
 10
237.224865
 20
-1.155443
 30
0.0
 10
236.959648
 20
-1.155443
 30
0.0
  0
LWPOLYLINE
  5
112
100
AcDbEntity
  8
0
 62
7
100
AcDbPolyline
 90
1
 70
1
 10
110.753144
 20
-1.155443
 30
0.0
  0
SPLINE
  5
113
100
AcDbEntity
  8
0
 62
7
100
AcDbSpline
 70
8
 71
3
 72
8
 73
4
 74
0
 40
0
 40
0
 40
0
 40
0
 40
1
 40
1
 40
1
 40
1
 10
3.001569
 20
-83.308645
 30
0.0
 10
2.597106
 20
-83.308645
 30
0.0
 10
2.232470
 20
-83.552287
 30
0.0
 10
2.077689
 20
-83.925962
 30
0.0
  0
SPLINE
  5
114
100
AcDbEntity
  8
0
 62
7
100
AcDbSpline
 70
8
 71
3
 72
8
 73
4
 74
0
 40
0
 40
0
 40
0
 40
0
 40
1
 40
1
 40
1
 40
1
 10
2.077689
 20
-83.925962
 30
0.0
 10
1.922908
 20
-84.299636
 30
0.0
 10
2.008463
 20
-84.729754
 30
0.0
 10
2.294462
 20
-85.015752
 30
0.0
  0
SPLINE
  5
115
100
AcDbEntity
  8
0
 62
7
100
AcDbSpline
 70
8
 71
3
 72
8
 73
4
 74
0
 40
0
 40
0
 40
0
 40
0
 40
1
 40
1
 40
1
 40
1
 10
2.294462
 20
-85.015752
 30
0.0
 10
2.580460
 20
-85.301751
 30
0.0
 10
3.010578
 20
-85.387306
 30
0.0
 10
3.384252
 20
-85.232525
 30
0.0
  0
SPLINE
  5
116
100
AcDbEntity
  8
0
 62
7
100
AcDbSpline
 70
8
 71
3
 72
8
 73
4
 74
0
 40
0
 40
0
 40
0
 40
0
 40
1
 40
1
 40
1
 40
1
 10
3.384252
 20
-85.232525
 30
0.0
 10
3.757927
 20
-85.077744
 30
0.0
 10
4.001569
 20
-84.713108
 30
0.0
 10
4.001569
 20
-84.308645
 30
0.0
  0
SPLINE
  5
117
100
AcDbEntity
  8
0
 62
7
100
AcDbSpline
 70
8
 71
3
 72
8
 73
4
 74
0
 40
0
 40
0
 40
0
 40
0
 40
1
 40
1
 40
1
 40
1
 10
4.001569
 20
-84.308645
 30
0.0
 10
4.001569
 20
-84.043429
 30
0.0
 10
3.896212
 20
-83.789075
 30
0.0
 10
3.708676
 20
-83.601538
 30
0.0
  0
SPLINE
  5
118
100
AcDbEntity
  8
0
 62
7
100
AcDbSpline
 70
8
 71
3
 72
8
 73
4
 74
0
 40
0
 40
0
 40
0
 40
0
 40
1
 40
1
 40
1
 40
1
 10
3.708676
 20
-83.601538
 30
0.0
 10
3.521139
 20
-83.414002
 30
0.0
 10
3.266785
 20
-83.308645
 30
0.0
 10
3.001569
 20
-83.308645
 30
0.0
  0
LWPOLYLINE
  5
119
100
AcDbEntity
  8
0
 62
7
100
AcDbPolyline
 90
1
 70
1
 10
236.959648
 20
-1.155443
 30
0.0
  0
LWPOLYLINE
  5
11a
100
AcDbEntity
  8
0
 62
7
100
AcDbPolyline
 90
1
 70
1
 10
3.001569
 20
-83.308645
 30
0.0
  0
SPLINE
  5
11b
100
AcDbEntity
  8
0
 62
7
100
AcDbSpline
 70
8
 71
3
 72
8
 73
4
 74
0
 40
0
 40
0
 40
0
 40
0
 40
1
 40
1
 40
1
 40
1
 10
3.001569
 20
-1.155443
 30
0.0
 10
2.597106
 20
-1.155443
 30
0.0
 10
2.232470
 20
-1.399086
 30
0.0
 10
2.077689
 20
-1.772760
 30
0.0
  0
SPLINE
  5
11c
100
AcDbEntity
  8
0
 62
7
100
AcDbSpline
 70
8
 71
3
 72
8
 73
4
 74
0
 40
0
 40
0
 40
0
 40
0
 40
1
 40
1
 40
1
 40
1
 10
2.077689
 20
-1.772760
 30
0.0
 10
1.922908
 20
-2.146435
 30
0.0
 10
2.008463
 20
-2.576553
 30
0.0
 10
2.294462
 20
-2.862551
 30
0.0
  0
SPLINE
  5
11d
100
AcDbEntity
  8
0
 62
7
100
AcDbSpline
 70
8
 71
3
 72
8
 73
4
 74
0
 40
0
 40
0
 40
0
 40
0
 40
1
 40
1
 40
1
 40
1
 10
2.294462
 20
-2.862551
 30
0.0
 10
2.580460
 20
-3.148549
 30
0.0
 10
3.010578
 20
-3.234105
 30
0.0
 10
3.384252
 20
-3.079324
 30
0.0
  0
SPLINE
  5
11e
100
AcDbEntity
  8
0
 62
7
100
AcDbSpline
 70
8
 71
3
 72
8
 73
4
 74
0
 40
0
 40
0
 40
0
 40
0
 40
1
 40
1
 40
1
 40
1
 10
3.384252
 20
-3.079324
 30
0.0
 10
3.757927
 20
-2.924543
 30
0.0
 10
4.001569
 20
-2.559906
 30
0.0
 10
4.001569
 20
-2.155444
 30
0.0
  0
SPLINE
  5
11f
100
AcDbEntity
  8
0
 62
7
100
AcDbSpline
 70
8
 71
3
 72
8
 73
4
 74
0
 40
0
 40
0
 40
0
 40
0
 40
1
 40
1
 40
1
 40
1
 10
4.001569
 20
-2.155444
 30
0.0
 10
4.001569
 20
-1.890227
 30
0.0
 10
3.896212
 20
-1.635873
 30
0.0
 10
3.708676
 20
-1.448337
 30
0.0
  0
SPLINE
  5
120
100
AcDbEntity
  8
0
 62
7
100
AcDbSpline
 70
8
 71
3
 72
8
 73
4
 74
0
 40
0
 40
0
 40
0
 40
0
 40
1
 40
1
 40
1
 40
1
 10
3.708676
 20
-1.448337
 30
0.0
 10
3.521139
 20
-1.260800
 30
0.0
 10
3.266785
 20
-1.155443
 30
0.0
 10
3.001569
 20
-1.155443
 30
0.0
  0
LWPOLYLINE
  5
121
100
AcDbEntity
  8
0
 62
7
100
AcDbPolyline
 90
2
 70
0
 10
2.405380
 20
-87.284255
 30
0.0
 10
237.553500
 20
-87.284255
 30
0.0
  0
SPLINE
  5
122
100
AcDbEntity
  8
0
 62
7
100
AcDbSpline
 70
8
 71
3
 72
8
 73
4
 74
0
 40
0
 40
0
 40
0
 40
0
 40
1
 40
1
 40
1
 40
1
 10
212.551772
 20
-1.155443
 30
0.0
 10
211.999487
 20
-1.155443
 30
0.0
 10
211.551771
 20
-1.603159
 30
0.0
 10
211.551771
 20
-2.155444
 30
0.0
  0
SPLINE
  5
123
100
AcDbEntity
  8
0
 62
7
100
AcDbSpline
 70
8
 71
3
 72
8
 73
4
 74
0
 40
0
 40
0
 40
0
 40
0
 40
1
 40
1
 40
1
 40
1
 10
211.551771
 20
-2.155444
 30
0.0
 10
211.551771
 20
-2.707729
 30
0.0
 10
211.999487
 20
-3.155445
 30
0.0
 10
212.551772
 20
-3.155445
 30
0.0
  0
SPLINE
  5
124
100
AcDbEntity
  8
0
 62
7
100
AcDbSpline
 70
8
 71
3
 72
8
 73
4
 74
0
 40
0
 40
0
 40
0
 40
0
 40
1
 40
1
 40
1
 40
1
 10
212.551772
 20
-3.155445
 30
0.0
 10
213.104057
 20
-3.155445
 30
0.0
 10
213.551773
 20
-2.707729
 30
0.0
 10
213.551773
 20
-2.155444
 30
0.0
  0
SPLINE
  5
125
100
AcDbEntity
  8
0
 62
7
100
AcDbSpline
 70
8
 71
3
 72
8
 73
4
 74
0
 40
0
 40
0
 40
0
 40
0
 40
1
 40
1
 40
1
 40
1
 10
213.551773
 20
-2.155444
 30
0.0
 10
213.551773
 20
-1.890227
 30
0.0
 10
213.446416
 20
-1.635873
 30
0.0
 10
213.258879
 20
-1.448337
 30
0.0
  0
SPLINE
  5
126
100
AcDbEntity
  8
0
 62
7
100
AcDbSpline
 70
8
 71
3
 72
8
 73
4
 74
0
 40
0
 40
0
 40
0
 40
0
 40
1
 40
1
 40
1
 40
1
 10
213.258879
 20
-1.448337
 30
0.0
 10
213.071343
 20
-1.260800
 30
0.0
 10
212.816989
 20
-1.155443
 30
0.0
 10
212.551772
 20
-1.155443
 30
0.0
  0
LWPOLYLINE
  5
127
100
AcDbEntity
  8
0
 62
7
100
AcDbPolyline
 90
1
 70
1
 10
3.001569
 20
-1.155443
 30
0.0
  0
SPLINE
  5
128
100
AcDbEntity
  8
0
 62
7
100
AcDbSpline
 70
8
 71
3
 72
8
 73
4
 74
0
 40
0
 40
0
 40
0
 40
0
 40
1
 40
1
 40
1
 40
1
 10
0.025009
 20
-84.904021
 30
0.0
 10
0.025015
 20
-86.219151
 30
0.0
 10
1.091139
 20
-87.285271
 30
0.0
 10
2.406269
 20
-87.285271
 30
0.0
  0
LWPOLYLINE
  5
129
100
AcDbEntity
  8
0
 62
7
100
AcDbPolyline
 90
1
 70
1
 10
212.551772
 20
-1.155443
 30
0.0
  0
SPLINE
  5
12a
100
AcDbEntity
  8
0
 62
7
100
AcDbSpline
 70
8
 71
3
 72
8
 73
4
 74
0
 40
0
 40
0
 40
0
 40
0
 40
1
 40
1
 40
1
 40
1
 10
239.936274
 20
-1.560137
 30
0.0
 10
239.936274
 20
-0.928545
 30
0.0
 10
239.685359
 20
-0.322825
 30
0.0
 10
239.238733
 20
0.123755
 30
0.0
  0
SPLINE
  5
12b
100
AcDbEntity
  8
0
 62
7
100
AcDbSpline
 70
8
 71
3
 72
8
 73
4
 74
0
 40
0
 40
0
 40
0
 40
0
 40
1
 40
1
 40
1
 40
1
 10
239.238733
 20
0.123755
 30
0.0
 10
238.792107
 20
0.570335
 30
0.0
 10
238.186362
 20
0.821188
 30
0.0
 10
237.554770
 20
0.821124
 30
0.0
  0
LWPOLYLINE
  5
12c
100
AcDbEntity
  8
0
 62
7
100
AcDbPolyline
 90
2
 70
0
 10
0.022860
 20
-1.559255
 30
0.0
 10
0.022860
 20
-84.901735
 30
0.0
  0
LWPOLYLINE
  5
12d
100
AcDbEntity
  8
0
 62
7
100
AcDbPolyline
 90
2
 70
0
 10
234.576620
 20
-3.344875
 30
0.0
 10
234.576620
 20
-33.111135
 30
0.0
  0
SPLINE
  5
12e
100
AcDbEntity
  8
0
 62
7
100
AcDbSpline
 70
8
 71
3
 72
8
 73
4
 74
0
 40
0
 40
0
 40
0
 40
0
 40
1
 40
1
 40
1
 40
1
 10
234.578398
 20
-3.346069
 30
0.0
 10
234.578401
 20
-3.188169
 30
0.0
 10
234.515674
 20
-3.036736
 30
0.0
 10
234.404017
 20
-2.925089
 30
0.0
  0
SPLINE
  5
12f
100
AcDbEntity
  8
0
 62
7
100
AcDbSpline
 70
8
 71
3
 72
8
 73
4
 74
0
 40
0
 40
0
 40
0
 40
0
 40
1
 40
1
 40
1
 40
1
 10
234.404017
 20
-2.925089
 30
0.0
 10
234.292360
 20
-2.813442
 30
0.0
 10
234.140922
 20
-2.750727
 30
0.0
 10
233.983022
 20
-2.750744
 30
0.0
  0
LWPOLYLINE
  5
130
100
AcDbEntity
  8
0
 62
7
100
AcDbPolyline
 90
2
 70
0
 10
216.123520
 20
-2.750515
 30
0.0
 10
233.982260
 20
-2.750515
 30
0.0
  0
LWPOLYLINE
  5
131
100
AcDbEntity
  8
0
 62
7
100
AcDbPolyline
 90
2
 70
0
 10
239.936020
 20
-84.901735
 30
0.0
 10
239.936020
 20
-1.559255
 30
0.0
  0
SPLINE
  5
132
100
AcDbEntity
  8
0
 62
7
100
AcDbSpline
 70
8
 71
3
 72
8
 73
4
 74
0
 40
0
 40
0
 40
0
 40
0
 40
1
 40
1
 40
1
 40
1
 10
216.123520
 20
-2.750744
 30
0.0
 10
215.794807
 20
-2.750849
 30
0.0
 10
215.528391
 20
-3.017356
 30
0.0
 10
215.528398
 20
-3.346069
 30
0.0
  0
SPLINE
  5
133
100
AcDbEntity
  8
0
 62
7
100
AcDbSpline
 70
8
 71
3
 72
8
 73
4
 74
0
 40
0
 40
0
 40
0
 40
0
 40
1
 40
1
 40
1
 40
1
 10
237.554770
 20
-87.285271
 30
0.0
 10
238.186360
 20
-87.285336
 30
0.0
 10
238.792104
 20
-87.034484
 30
0.0
 10
239.238729
 20
-86.587906
 30
0.0
  0
SPLINE
  5
134
100
AcDbEntity
  8
0
 62
7
100
AcDbSpline
 70
8
 71
3
 72
8
 73
4
 74
0
 40
0
 40
0
 40
0
 40
0
 40
1
 40
1
 40
1
 40
1
 10
239.238729
 20
-86.587906
 30
0.0
 10
239.685355
 20
-86.141328
 30
0.0
 10
239.936271
 20
-85.535611
 30
0.0
 10
239.936274
 20
-84.904021
 30
0.0
  0
SPLINE
  5
135
100
AcDbEntity
  8
0
 62
7
100
AcDbSpline
 70
8
 71
3
 72
8
 73
4
 74
0
 40
0
 40
0
 40
0
 40
0
 40
1
 40
1
 40
1
 40
1
 10
110.753144
 20
-83.308645
 30
0.0
 10
110.348682
 20
-83.308645
 30
0.0
 10
109.984045
 20
-83.552287
 30
0.0
 10
109.829264
 20
-83.925962
 30
0.0
  0
SPLINE
  5
136
100
AcDbEntity
  8
0
 62
7
100
AcDbSpline
 70
8
 71
3
 72
8
 73
4
 74
0
 40
0
 40
0
 40
0
 40
0
 40
1
 40
1
 40
1
 40
1
 10
109.829264
 20
-83.925962
 30
0.0
 10
109.674483
 20
-84.299636
 30
0.0
 10
109.760039
 20
-84.729754
 30
0.0
 10
110.046037
 20
-85.015752
 30
0.0
  0
SPLINE
  5
137
100
AcDbEntity
  8
0
 62
7
100
AcDbSpline
 70
8
 71
3
 72
8
 73
4
 74
0
 40
0
 40
0
 40
0
 40
0
 40
1
 40
1
 40
1
 40
1
 10
110.046037
 20
-85.015752
 30
0.0
 10
110.332035
 20
-85.301751
 30
0.0
 10
110.762153
 20
-85.387306
 30
0.0
 10
111.135828
 20
-85.232525
 30
0.0
  0
SPLINE
  5
138
100
AcDbEntity
  8
0
 62
7
100
AcDbSpline
 70
8
 71
3
 72
8
 73
4
 74
0
 40
0
 40
0
 40
0
 40
0
 40
1
 40
1
 40
1
 40
1
 10
111.135828
 20
-85.232525
 30
0.0
 10
111.509502
 20
-85.077744
 30
0.0
 10
111.753145
 20
-84.713108
 30
0.0
 10
111.753145
 20
-84.308645
 30
0.0
  0
SPLINE
  5
139
100
AcDbEntity
  8
0
 62
7
100
AcDbSpline
 70
8
 71
3
 72
8
 73
4
 74
0
 40
0
 40
0
 40
0
 40
0
 40
1
 40
1
 40
1
 40
1
 10
111.753145
 20
-84.308645
 30
0.0
 10
111.753145
 20
-84.043429
 30
0.0
 10
111.647788
 20
-83.789075
 30
0.0
 10
111.460251
 20
-83.601538
 30
0.0
  0
SPLINE
  5
13a
100
AcDbEntity
  8
0
 62
7
100
AcDbSpline
 70
8
 71
3
 72
8
 73
4
 74
0
 40
0
 40
0
 40
0
 40
0
 40
1
 40
1
 40
1
 40
1
 10
111.460251
 20
-83.601538
 30
0.0
 10
111.272715
 20
-83.414002
 30
0.0
 10
111.018361
 20
-83.308645
 30
0.0
 10
110.753144
 20
-83.308645
 30
0.0
  0
LWPOLYLINE
  5
13b
100
AcDbEntity
  8
0
 62
7
100
AcDbPolyline
 90
2
 70
0
 10
215.526620
 20
-3.939235
 30
0.0
 10
215.526620
 20
-3.344875
 30
0.0
  0
SPLINE
  5
13c
100
AcDbEntity
  8
0
 62
7
100
AcDbSpline
 70
8
 71
3
 72
8
 73
4
 74
0
 40
0
 40
0
 40
0
 40
0
 40
1
 40
1
 40
1
 40
1
 10
236.959648
 20
-83.308645
 30
0.0
 10
236.555186
 20
-83.308645
 30
0.0
 10
236.190549
 20
-83.552287
 30
0.0
 10
236.035768
 20
-83.925962
 30
0.0
  0
SPLINE
  5
13d
100
AcDbEntity
  8
0
 62
7
100
AcDbSpline
 70
8
 71
3
 72
8
 73
4
 74
0
 40
0
 40
0
 40
0
 40
0
 40
1
 40
1
 40
1
 40
1
 10
236.035768
 20
-83.925962
 30
0.0
 10
235.880987
 20
-84.299636
 30
0.0
 10
235.966543
 20
-84.729754
 30
0.0
 10
236.252541
 20
-85.015752
 30
0.0
  0
SPLINE
  5
13e
100
AcDbEntity
  8
0
 62
7
100
AcDbSpline
 70
8
 71
3
 72
8
 73
4
 74
0
 40
0
 40
0
 40
0
 40
0
 40
1
 40
1
 40
1
 40
1
 10
236.252541
 20
-85.015752
 30
0.0
 10
236.538539
 20
-85.301751
 30
0.0
 10
236.968657
 20
-85.387306
 30
0.0
 10
237.342332
 20
-85.232525
 30
0.0
  0
SPLINE
  5
13f
100
AcDbEntity
  8
0
 62
7
100
AcDbSpline
 70
8
 71
3
 72
8
 73
4
 74
0
 40
0
 40
0
 40
0
 40
0
 40
1
 40
1
 40
1
 40
1
 10
237.342332
 20
-85.232525
 30
0.0
 10
237.716006
 20
-85.077744
 30
0.0
 10
237.959649
 20
-84.713108
 30
0.0
 10
237.959649
 20
-84.308645
 30
0.0
  0
SPLINE
  5
140
100
AcDbEntity
  8
0
 62
7
100
AcDbSpline
 70
8
 71
3
 72
8
 73
4
 74
0
 40
0
 40
0
 40
0
 40
0
 40
1
 40
1
 40
1
 40
1
 10
237.959649
 20
-84.308645
 30
0.0
 10
237.959649
 20
-84.043429
 30
0.0
 10
237.854292
 20
-83.789075
 30
0.0
 10
237.666755
 20
-83.601538
 30
0.0
  0
SPLINE
  5
141
100
AcDbEntity
  8
0
 62
7
100
AcDbSpline
 70
8
 71
3
 72
8
 73
4
 74
0
 40
0
 40
0
 40
0
 40
0
 40
1
 40
1
 40
1
 40
1
 10
237.666755
 20
-83.601538
 30
0.0
 10
237.479219
 20
-83.414002
 30
0.0
 10
237.224865
 20
-83.308645
 30
0.0
 10
236.959648
 20
-83.308645
 30
0.0
  0
LWPOLYLINE
  5
142
100
AcDbEntity
  8
0
 62
7
100
AcDbPolyline
 90
1
 70
1
 10
110.753144
 20
-83.308645
 30
0.0
  0
SPLINE
  5
143
100
AcDbEntity
  8
0
 62
7
100
AcDbSpline
 70
8
 71
3
 72
8
 73
4
 74
0
 40
0
 40
0
 40
0
 40
0
 40
1
 40
1
 40
1
 40
1
 10
2.406261
 20
0.821124
 30
0.0
 10
1.774712
 20
0.821124
 30
0.0
 10
1.169029
 20
0.570242
 30
0.0
 10
0.722456
 20
0.123669
 30
0.0
  0
SPLINE
  5
144
100
AcDbEntity
  8
0
 62
7
100
AcDbSpline
 70
8
 71
3
 72
8
 73
4
 74
0
 40
0
 40
0
 40
0
 40
0
 40
1
 40
1
 40
1
 40
1
 10
0.722456
 20
0.123669
 30
0.0
 10
0.275883
 20
-0.322904
 30
0.0
 10
0.025001
 20
-0.928587
 30
0.0
 10
0.025001
 20
-1.560137
 30
0.0
  0
LWPOLYLINE
  5
145
100
AcDbEntity
  8
0
 62
7
100
AcDbPolyline
 90
1
 70
1
 10
236.959648
 20
-83.308645
 30
0.0
  0
LWPOLYLINE
  5
146
100
AcDbEntity
  8
0
 62
7
100
AcDbPolyline
 90
2
 70
0
 10
173.261020
 20
-72.996755
 30
0.0
 10
177.426620
 20
-72.996755
 30
0.0
  0
LWPOLYLINE
  5
147
100
AcDbEntity
  8
0
 62
7
100
AcDbPolyline
 90
2
 70
0
 10
174.449740
 20
-57.517995
 30
0.0
 10
174.449740
 20
-64.663015
 30
0.0
  0
LWPOLYLINE
  5
148
100
AcDbEntity
  8
0
 62
7
100
AcDbPolyline
 90
2
 70
0
 10
35.145980
 20
-67.637355
 30
0.0
 10
35.145980
 20
-65.257375
 30
0.0
  0
LWPOLYLINE
  5
149
100
AcDbEntity
  8
0
 62
7
100
AcDbPolyline
 90
2
 70
0
 10
166.116000
 20
-48.587355
 30
0.0
 10
173.261020
 20
-48.587355
 30
0.0
  0
LWPOLYLINE
  5
14a
100
AcDbEntity
  8
0
 62
7
100
AcDbPolyline
 90
2
 70
0
 10
205.407260
 20
-53.946755
 30
0.0
 10
205.407260
 20
-51.564235
 30
0.0
  0
LWPOLYLINE
  5
14b
100
AcDbEntity
  8
0
 62
7
100
AcDbPolyline
 90
2
 70
0
 10
32.766000
 20
-74.188015
 30
0.0
 10
44.076620
 20
-74.188015
 30
0.0
  0
LWPOLYLINE
  5
14c
100
AcDbEntity
  8
0
 62
7
100
AcDbPolyline
 90
2
 70
0
 10
45.862240
 20
-70.614235
 30
0.0
 10
48.244760
 20
-70.614235
 30
0.0
  0
LWPOLYLINE
  5
14d
100
AcDbEntity
  8
0
 62
7
100
AcDbPolyline
 90
2
 70
0
 10
205.407260
 20
-51.564235
 30
0.0
 10
203.621640
 20
-51.564235
 30
0.0
  0
LWPOLYLINE
  5
14e
100
AcDbEntity
  8
0
 62
7
100
AcDbPolyline
 90
2
 70
0
 10
166.116000
 20
-48.587355
 30
0.0
 10
166.116000
 20
-53.946755
 30
0.0
  0
LWPOLYLINE
  5
14f
100
AcDbEntity
  8
0
 62
7
100
AcDbPolyline
 90
2
 70
0
 10
50.624740
 20
-65.257375
 30
0.0
 10
50.624740
 20
-81.330495
 30
0.0
  0
LWPOLYLINE
  5
150
100
AcDbEntity
  8
0
 62
7
100
AcDbPolyline
 90
2
 70
0
 10
175.046640
 20
-45.613015
 30
0.0
 10
173.261020
 20
-45.613015
 30
0.0
  0
LWPOLYLINE
  5
151
100
AcDbEntity
  8
0
 62
7
100
AcDbPolyline
 90
2
 70
0
 10
45.862240
 20
-65.257375
 30
0.0
 10
45.862240
 20
-70.614235
 30
0.0
  0
LWPOLYLINE
  5
152
100
AcDbEntity
  8
0
 62
7
100
AcDbPolyline
 90
2
 70
0
 10
204.216000
 20
-63.471755
 30
0.0
 10
204.216000
 20
-57.517995
 30
0.0
  0
LWPOLYLINE
  5
153
100
AcDbEntity
  8
0
 62
7
100
AcDbPolyline
 90
2
 70
0
 10
175.046640
 20
-43.230495
 30
0.0
 10
175.046640
 20
-45.613015
 30
0.0
  0
LWPOLYLINE
  5
154
100
AcDbEntity
  8
0
 62
7
100
AcDbPolyline
 90
2
 70
0
 10
48.244760
 20
-72.996755
 30
0.0
 10
48.244760
 20
-70.614235
 30
0.0
  0
LWPOLYLINE
  5
155
100
AcDbEntity
  8
0
 62
7
100
AcDbPolyline
 90
2
 70
0
 10
173.261020
 20
-48.587355
 30
0.0
 10
173.261020
 20
-45.613015
 30
0.0
  0
LWPOLYLINE
  5
156
100
AcDbEntity
  8
0
 62
7
100
AcDbPolyline
 90
2
 70
0
 10
203.621640
 20
-51.564235
 30
0.0
 10
203.621640
 20
-45.016115
 30
0.0
  0
LWPOLYLINE
  5
157
100
AcDbEntity
  8
0
 62
7
100
AcDbPolyline
 90
2
 70
0
 10
170.284140
 20
-55.138015
 30
0.0
 10
175.046640
 20
-55.138015
 30
0.0
  0
LWPOLYLINE
  5
158
100
AcDbEntity
  8
0
 62
7
100
AcDbPolyline
 90
2
 70
0
 10
28.003500
 20
-67.637355
 30
0.0
 10
35.145980
 20
-67.637355
 30
0.0
  0
LWPOLYLINE
  5
159
100
AcDbEntity
  8
0
 62
7
100
AcDbPolyline
 90
2
 70
0
 10
28.003500
 20
-67.637355
 30
0.0
 10
28.003500
 20
-73.591115
 30
0.0
  0
LWPOLYLINE
  5
15a
100
AcDbEntity
  8
0
 62
7
100
AcDbPolyline
 90
2
 70
0
 10
198.859140
 20
-43.230495
 30
0.0
 10
198.859140
 20
-45.613015
 30
0.0
  0
LWPOLYLINE
  5
15b
100
AcDbEntity
  8
0
 62
7
100
AcDbPolyline
 90
2
 70
0
 10
198.262240
 20
-57.517995
 30
0.0
 10
198.262240
 20
-64.663015
 30
0.0
  0
LWPOLYLINE
  5
15c
100
AcDbEntity
  8
0
 62
7
100
AcDbPolyline
 90
2
 70
0
 10
178.023520
 20
-43.230495
 30
0.0
 10
175.046640
 20
-43.230495
 30
0.0
  0
LWPOLYLINE
  5
15d
100
AcDbEntity
  8
0
 62
7
100
AcDbPolyline
 90
2
 70
0
 10
201.836020
 20
-43.230495
 30
0.0
 10
198.859140
 20
-43.230495
 30
0.0
  0
LWPOLYLINE
  5
15e
100
AcDbEntity
  8
0
 62
7
100
AcDbPolyline
 90
2
 70
0
 10
180.403500
 20
-63.471755
 30
0.0
 10
180.403500
 20
-57.517995
 30
0.0
  0
LWPOLYLINE
  5
15f
100
AcDbEntity
  8
0
 62
7
100
AcDbPolyline
 90
2
 70
0
 10
177.426620
 20
-74.188015
 30
0.0
 10
189.334140
 20
-74.188015
 30
0.0
  0
LWPOLYLINE
  5
160
100
AcDbEntity
  8
0
 62
7
100
AcDbPolyline
 90
2
 70
0
 10
197.073520
 20
-70.614235
 30
0.0
 10
197.073520
 20
-72.996755
 30
0.0
  0
LWPOLYLINE
  5
161
100
AcDbEntity
  8
0
 62
7
100
AcDbPolyline
 90
2
 70
0
 10
198.262240
 20
-70.614235
 30
0.0
 10
197.073520
 20
-70.614235
 30
0.0
  0
LWPOLYLINE
  5
162
100
AcDbEntity
  8
0
 62
7
100
AcDbPolyline
 90
2
 70
0
 10
173.261020
 20
-67.637355
 30
0.0
 10
180.403500
 20
-67.637355
 30
0.0
  0
LWPOLYLINE
  5
163
100
AcDbEntity
  8
0
 62
7
100
AcDbPolyline
 90
2
 70
0
 10
22.049740
 20
-70.614235
 30
0.0
 10
24.432260
 20
-70.614235
 30
0.0
  0
LWPOLYLINE
  5
164
100
AcDbEntity
  8
0
 62
7
100
AcDbPolyline
 90
2
 70
0
 10
191.119760
 20
-65.257375
 30
0.0
 10
191.119760
 20
-70.614235
 30
0.0
  0
LWPOLYLINE
  5
165
100
AcDbEntity
  8
0
 62
7
100
AcDbPolyline
 90
2
 70
0
 10
193.499740
 20
-72.996755
 30
0.0
 10
193.499740
 20
-70.614235
 30
0.0
  0
LWPOLYLINE
  5
166
100
AcDbEntity
  8
0
 62
7
100
AcDbPolyline
 90
2
 70
0
 10
191.119760
 20
-70.614235
 30
0.0
 10
193.499740
 20
-70.614235
 30
0.0
  0
LWPOLYLINE
  5
167
100
AcDbEntity
  8
0
 62
7
100
AcDbPolyline
 90
2
 70
0
 10
173.261020
 20
-72.996755
 30
0.0
 10
173.261020
 20
-67.637355
 30
0.0
  0
LWPOLYLINE
  5
168
100
AcDbEntity
  8
0
 62
7
100
AcDbPolyline
 90
2
 70
0
 10
22.049740
 20
-65.257375
 30
0.0
 10
22.049740
 20
-70.614235
 30
0.0
  0
LWPOLYLINE
  5
169
100
AcDbEntity
  8
0
 62
7
100
AcDbPolyline
 90
2
 70
0
 10
191.119760
 20
-65.257375
 30
0.0
 10
182.189120
 20
-65.257375
 30
0.0
  0
LWPOLYLINE
  5
16a
100
AcDbEntity
  8
0
 62
7
100
AcDbPolyline
 90
2
 70
0
 10
24.432260
 20
-70.614235
 30
0.0
 10
24.432260
 20
-72.996755
 30
0.0
  0
LWPOLYLINE
  5
16b
100
AcDbEntity
  8
0
 62
7
100
AcDbPolyline
 90
2
 70
0
 10
185.166000
 20
-21.800515
 30
0.0
 10
179.212240
 20
-21.800515
 30
0.0
  0
LWPOLYLINE
  5
16c
100
AcDbEntity
  8
0
 62
7
100
AcDbPolyline
 90
2
 70
0
 10
185.166000
 20
-21.800515
 30
0.0
 10
185.166000
 20
-26.563015
 30
0.0
  0
LWPOLYLINE
  5
16d
100
AcDbEntity
  8
0
 62
7
100
AcDbPolyline
 90
3
 70
0
 10
185.166000
 20
-27.157375
 30
0.0
 10
203.024740
 20
-27.157375
 30
0.0
 10
203.024740
 20
-21.800515
 30
0.0
  0
LWPOLYLINE
  5
16e
100
AcDbEntity
  8
0
 62
7
100
AcDbPolyline
 90
2
 70
0
 10
36.337240
 20
-65.257375
 30
0.0
 10
35.145980
 20
-65.257375
 30
0.0
  0
LWPOLYLINE
  5
16f
100
AcDbEntity
  8
0
 62
7
100
AcDbPolyline
 90
2
 70
0
 10
18.478500
 20
-65.257375
 30
0.0
 10
22.049740
 20
-65.257375
 30
0.0
  0
LWPOLYLINE
  5
170
100
AcDbEntity
  8
0
 62
7
100
AcDbPolyline
 90
2
 70
0
 10
185.166000
 20
-26.563015
 30
0.0
 10
185.166000
 20
-27.157375
 30
0.0
  0
LWPOLYLINE
  5
171
100
AcDbEntity
  8
0
 62
7
100
AcDbPolyline
 90
2
 70
0
 10
193.499740
 20
-72.996755
 30
0.0
 10
189.334140
 20
-72.996755
 30
0.0
  0
LWPOLYLINE
  5
172
100
AcDbEntity
  8
0
 62
7
100
AcDbPolyline
 90
2
 70
0
 10
32.766000
 20
-73.591115
 30
0.0
 10
32.766000
 20
-74.188015
 30
0.0
  0
LWPOLYLINE
  5
173
100
AcDbEntity
  8
0
 62
7
100
AcDbPolyline
 90
2
 70
0
 10
198.262240
 20
-67.637355
 30
0.0
 10
198.262240
 20
-70.614235
 30
0.0
  0
LWPOLYLINE
  5
174
100
AcDbEntity
  8
0
 62
7
100
AcDbPolyline
 90
2
 70
0
 10
184.571640
 20
-43.230495
 30
0.0
 10
181.594760
 20
-43.230495
 30
0.0
  0
LWPOLYLINE
  5
175
100
AcDbEntity
  8
0
 62
7
100
AcDbPolyline
 90
3
 70
0
 10
212.549740
 20
-72.996755
 30
0.0
 10
208.384140
 20
-72.996755
 30
0.0
 10
208.384140
 20
-74.188015
 30
0.0
  0
LWPOLYLINE
  5
176
100
AcDbEntity
  8
0
 62
7
100
AcDbPolyline
 90
3
 70
0
 10
193.499740
 20
-48.587355
 30
0.0
 10
198.859140
 20
-48.587355
 30
0.0
 10
198.859140
 20
-45.613015
 30
0.0
  0
LWPOLYLINE
  5
177
100
AcDbEntity
  8
0
 62
7
100
AcDbPolyline
 90
2
 70
0
 10
28.003500
 20
-73.591115
 30
0.0
 10
32.766000
 20
-73.591115
 30
0.0
  0
LWPOLYLINE
  5
178
100
AcDbEntity
  8
0
 62
7
100
AcDbPolyline
 90
2
 70
0
 10
201.239120
 20
-72.996755
 30
0.0
 10
201.239120
 20
-74.188015
 30
0.0
  0
LWPOLYLINE
  5
179
100
AcDbEntity
  8
0
 62
7
100
AcDbPolyline
 90
2
 70
0
 10
24.432260
 20
-72.996755
 30
0.0
 10
20.264120
 20
-72.996755
 30
0.0
  0
LWPOLYLINE
  5
17a
100
AcDbEntity
  8
0
 62
7
100
AcDbPolyline
 90
2
 70
0
 10
179.809140
 20
-45.016115
 30
0.0
 10
179.809140
 20
-47.398635
 30
0.0
  0
LWPOLYLINE
  5
17b
100
AcDbEntity
  8
0
 62
7
100
AcDbPolyline
 90
2
 70
0
 10
189.928500
 20
-46.207375
 30
0.0
 10
193.499740
 20
-46.207375
 30
0.0
  0
LWPOLYLINE
  5
17c
100
AcDbEntity
  8
0
 62
7
100
AcDbPolyline
 90
2
 70
0
 10
20.264120
 20
-72.996755
 30
0.0
 10
20.264120
 20
-74.188015
 30
0.0
  0
LWPOLYLINE
  5
17d
100
AcDbEntity
  8
0
 62
7
100
AcDbPolyline
 90
2
 70
0
 10
189.334140
 20
-72.996755
 30
0.0
 10
189.334140
 20
-74.188015
 30
0.0
  0
LWPOLYLINE
  5
17e
100
AcDbEntity
  8
0
 62
7
100
AcDbPolyline
 90
2
 70
0
 10
183.974740
 20
-48.587355
 30
0.0
 10
189.928500
 20
-48.587355
 30
0.0
  0
LWPOLYLINE
  5
17f
100
AcDbEntity
  8
0
 62
7
100
AcDbPolyline
 90
2
 70
0
 10
193.499740
 20
-46.207375
 30
0.0
 10
193.499740
 20
-48.587355
 30
0.0
  0
LWPOLYLINE
  5
180
100
AcDbEntity
  8
0
 62
7
100
AcDbPolyline
 90
2
 70
0
 10
197.073520
 20
-72.996755
 30
0.0
 10
201.239120
 20
-72.996755
 30
0.0
  0
LWPOLYLINE
  5
181
100
AcDbEntity
  8
0
 62
7
100
AcDbPolyline
 90
2
 70
0
 10
189.928500
 20
-48.587355
 30
0.0
 10
189.928500
 20
-46.207375
 30
0.0
  0
LWPOLYLINE
  5
182
100
AcDbEntity
  8
0
 62
7
100
AcDbPolyline
 90
3
 70
0
 10
8.953500
 20
-72.996755
 30
0.0
 10
13.121640
 20
-72.996755
 30
0.0
 10
13.121640
 20
-74.188015
 30
0.0
  0
LWPOLYLINE
  5
183
100
AcDbEntity
  8
0
 62
7
100
AcDbPolyline
 90
3
 70
0
 10
210.169760
 20
-65.257375
 30
0.0
 10
210.169760
 20
-70.614235
 30
0.0
 10
212.549740
 20
-70.614235
 30
0.0
  0
LWPOLYLINE
  5
184
100
AcDbEntity
  8
0
 62
7
100
AcDbPolyline
 90
2
 70
0
 10
208.384140
 20
-74.188015
 30
0.0
 10
201.239120
 20
-74.188015
 30
0.0
  0
LWPOLYLINE
  5
185
100
AcDbEntity
  8
0
 62
7
100
AcDbPolyline
 90
2
 70
0
 10
212.549740
 20
-70.614235
 30
0.0
 10
212.549740
 20
-72.996755
 30
0.0
  0
LWPOLYLINE
  5
186
100
AcDbEntity
  8
0
 62
7
100
AcDbPolyline
 90
3
 70
0
 10
12.524740
 20
-43.230495
 30
0.0
 10
12.524740
 20
-51.564235
 30
0.0
 10
11.333480
 20
-51.564235
 30
0.0
  0
LWPOLYLINE
  5
187
100
AcDbEntity
  8
0
 62
7
100
AcDbPolyline
 90
2
 70
0
 10
83.962240
 20
-55.138015
 30
0.0
 10
70.866000
 20
-55.138015
 30
0.0
  0
LWPOLYLINE
  5
188
100
AcDbEntity
  8
0
 62
7
100
AcDbPolyline
 90
2
 70
0
 10
45.862240
 20
-51.564235
 30
0.0
 10
45.862240
 20
-53.946755
 30
0.0
  0
LWPOLYLINE
  5
189
100
AcDbEntity
  8
0
 62
7
100
AcDbPolyline
 90
2
 70
0
 10
18.478500
 20
-46.207375
 30
0.0
 10
36.337240
 20
-46.207375
 30
0.0
  0
LWPOLYLINE
  5
18a
100
AcDbEntity
  8
0
 62
7
100
AcDbPolyline
 90
2
 70
0
 10
122.062240
 20
-46.207375
 30
0.0
 10
108.966000
 20
-46.207375
 30
0.0
  0
LWPOLYLINE
  5
18b
100
AcDbEntity
  8
0
 62
7
100
AcDbPolyline
 90
2
 70
0
 10
45.862240
 20
-53.946755
 30
0.0
 10
42.291000
 20
-53.946755
 30
0.0
  0
LWPOLYLINE
  5
18c
100
AcDbEntity
  8
0
 62
7
100
AcDbPolyline
 90
2
 70
0
 10
18.478500
 20
-55.138015
 30
0.0
 10
36.337240
 20
-55.138015
 30
0.0
  0
LWPOLYLINE
  5
18d
100
AcDbEntity
  8
0
 62
7
100
AcDbPolyline
 90
2
 70
0
 10
156.591000
 20
-36.088015
 30
0.0
 10
156.591000
 20
-27.157375
 30
0.0
  0
LWPOLYLINE
  5
18e
100
AcDbEntity
  8
0
 62
7
100
AcDbPolyline
 90
2
 70
0
 10
83.962240
 20
-46.207375
 30
0.0
 10
70.866000
 20
-46.207375
 30
0.0
  0
LWPOLYLINE
  5
18f
100
AcDbEntity
  8
0
 62
7
100
AcDbPolyline
 90
2
 70
0
 10
160.162240
 20
-46.207375
 30
0.0
 10
147.066000
 20
-46.207375
 30
0.0
  0
LWPOLYLINE
  5
190
100
AcDbEntity
  8
0
 62
7
100
AcDbPolyline
 90
2
 70
0
 10
70.866000
 20
-55.138015
 30
0.0
 10
70.866000
 20
-46.207375
 30
0.0
  0
LWPOLYLINE
  5
191
100
AcDbEntity
  8
0
 62
7
100
AcDbPolyline
 90
2
 70
0
 10
43.482260
 20
-45.613015
 30
0.0
 10
43.482260
 20
-51.564235
 30
0.0
  0
LWPOLYLINE
  5
192
100
AcDbEntity
  8
0
 62
7
100
AcDbPolyline
 90
2
 70
0
 10
103.012240
 20
-46.207375
 30
0.0
 10
89.916000
 20
-46.207375
 30
0.0
  0
LWPOLYLINE
  5
193
100
AcDbEntity
  8
0
 62
7
100
AcDbPolyline
 90
2
 70
0
 10
103.012240
 20
-55.138015
 30
0.0
 10
89.916000
 20
-55.138015
 30
0.0
  0
LWPOLYLINE
  5
194
100
AcDbEntity
  8
0
 62
7
100
AcDbPolyline
 90
2
 70
0
 10
43.482260
 20
-51.564235
 30
0.0
 10
45.862240
 20
-51.564235
 30
0.0
  0
LWPOLYLINE
  5
195
100
AcDbEntity
  8
0
 62
7
100
AcDbPolyline
 90
2
 70
0
 10
160.162240
 20
-55.138015
 30
0.0
 10
147.066000
 20
-55.138015
 30
0.0
  0
LWPOLYLINE
  5
196
100
AcDbEntity
  8
0
 62
7
100
AcDbPolyline
 90
2
 70
0
 10
36.337240
 20
-43.230495
 30
0.0
 10
42.291000
 20
-43.230495
 30
0.0
  0
LWPOLYLINE
  5
197
100
AcDbEntity
  8
0
 62
7
100
AcDbPolyline
 90
2
 70
0
 10
12.524740
 20
-53.946755
 30
0.0
 10
11.333480
 20
-53.946755
 30
0.0
  0
LWPOLYLINE
  5
198
100
AcDbEntity
  8
0
 62
7
100
AcDbPolyline
 90
2
 70
0
 10
141.112240
 20
-55.138015
 30
0.0
 10
141.112240
 20
-46.207375
 30
0.0
  0
LWPOLYLINE
  5
199
100
AcDbEntity
  8
0
 62
7
100
AcDbPolyline
 90
2
 70
0
 10
12.524740
 20
-43.230495
 30
0.0
 10
18.478500
 20
-43.230495
 30
0.0
  0
LWPOLYLINE
  5
19a
100
AcDbEntity
  8
0
 62
7
100
AcDbPolyline
 90
2
 70
0
 10
42.291000
 20
-45.613015
 30
0.0
 10
43.482260
 20
-45.613015
 30
0.0
  0
LWPOLYLINE
  5
19b
100
AcDbEntity
  8
0
 62
7
100
AcDbPolyline
 90
2
 70
0
 10
64.912240
 20
-55.138015
 30
0.0
 10
51.816000
 20
-55.138015
 30
0.0
  0
LWPOLYLINE
  5
19c
100
AcDbEntity
  8
0
 62
7
100
AcDbPolyline
 90
2
 70
0
 10
42.291000
 20
-53.946755
 30
0.0
 10
42.291000
 20
-65.257375
 30
0.0
  0
LWPOLYLINE
  5
19d
100
AcDbEntity
  8
0
 62
7
100
AcDbPolyline
 90
2
 70
0
 10
18.478500
 20
-43.230495
 30
0.0
 10
18.478500
 20
-46.207375
 30
0.0
  0
LWPOLYLINE
  5
19e
100
AcDbEntity
  8
0
 62
7
100
AcDbPolyline
 90
2
 70
0
 10
108.966000
 20
-55.138015
 30
0.0
 10
108.966000
 20
-46.207375
 30
0.0
  0
LWPOLYLINE
  5
19f
100
AcDbEntity
  8
0
 62
7
100
AcDbPolyline
 90
2
 70
0
 10
64.912240
 20
-46.207375
 30
0.0
 10
51.816000
 20
-46.207375
 30
0.0
  0
LWPOLYLINE
  5
1a0
100
AcDbEntity
  8
0
 62
7
100
AcDbPolyline
 90
2
 70
0
 10
103.012240
 20
-55.138015
 30
0.0
 10
103.012240
 20
-46.207375
 30
0.0
  0
LWPOLYLINE
  5
1a1
100
AcDbEntity
  8
0
 62
7
100
AcDbPolyline
 90
2
 70
0
 10
11.333480
 20
-53.946755
 30
0.0
 10
11.333480
 20
-51.564235
 30
0.0
  0
LWPOLYLINE
  5
1a2
100
AcDbEntity
  8
0
 62
7
100
AcDbPolyline
 90
2
 70
0
 10
160.162240
 20
-55.138015
 30
0.0
 10
160.162240
 20
-46.207375
 30
0.0
  0
LWPOLYLINE
  5
1a3
100
AcDbEntity
  8
0
 62
7
100
AcDbPolyline
 90
3
 70
0
 10
141.112240
 20
-55.138015
 30
0.0
 10
128.016000
 20
-55.138015
 30
0.0
 10
128.016000
 20
-46.207375
 30
0.0
  0
LWPOLYLINE
  5
1a4
100
AcDbEntity
  8
0
 62
7
100
AcDbPolyline
 90
2
 70
0
 10
122.062240
 20
-55.138015
 30
0.0
 10
108.966000
 20
-55.138015
 30
0.0
  0
LWPOLYLINE
  5
1a5
100
AcDbEntity
  8
0
 62
7
100
AcDbPolyline
 90
2
 70
0
 10
122.062240
 20
-55.138015
 30
0.0
 10
122.062240
 20
-46.207375
 30
0.0
  0
LWPOLYLINE
  5
1a6
100
AcDbEntity
  8
0
 62
7
100
AcDbPolyline
 90
2
 70
0
 10
51.816000
 20
-55.138015
 30
0.0
 10
51.816000
 20
-46.207375
 30
0.0
  0
LWPOLYLINE
  5
1a7
100
AcDbEntity
  8
0
 62
7
100
AcDbPolyline
 90
2
 70
0
 10
36.337240
 20
-46.207375
 30
0.0
 10
36.337240
 20
-43.230495
 30
0.0
  0
LWPOLYLINE
  5
1a8
100
AcDbEntity
  8
0
 62
7
100
AcDbPolyline
 90
2
 70
0
 10
18.478500
 20
-65.257375
 30
0.0
 10
18.478500
 20
-55.138015
 30
0.0
  0
LWPOLYLINE
  5
1a9
100
AcDbEntity
  8
0
 62
7
100
AcDbPolyline
 90
2
 70
0
 10
36.337240
 20
-55.138015
 30
0.0
 10
36.337240
 20
-65.257375
 30
0.0
  0
LWPOLYLINE
  5
1aa
100
AcDbEntity
  8
0
 62
7
100
AcDbPolyline
 90
2
 70
0
 10
64.912240
 20
-55.138015
 30
0.0
 10
64.912240
 20
-46.207375
 30
0.0
  0
LWPOLYLINE
  5
1ab
100
AcDbEntity
  8
0
 62
7
100
AcDbPolyline
 90
2
 70
0
 10
89.916000
 20
-55.138015
 30
0.0
 10
89.916000
 20
-46.207375
 30
0.0
  0
LWPOLYLINE
  5
1ac
100
AcDbEntity
  8
0
 62
7
100
AcDbPolyline
 90
2
 70
0
 10
42.291000
 20
-43.230495
 30
0.0
 10
42.291000
 20
-45.613015
 30
0.0
  0
LWPOLYLINE
  5
1ad
100
AcDbEntity
  8
0
 62
7
100
AcDbPolyline
 90
2
 70
0
 10
169.687240
 20
-36.088015
 30
0.0
 10
169.687240
 20
-27.157375
 30
0.0
  0
LWPOLYLINE
  5
1ae
100
AcDbEntity
  8
0
 62
7
100
AcDbPolyline
 90
2
 70
0
 10
141.112240
 20
-46.207375
 30
0.0
 10
128.016000
 20
-46.207375
 30
0.0
  0
LWPOLYLINE
  5
1af
100
AcDbEntity
  8
0
 62
7
100
AcDbPolyline
 90
2
 70
0
 10
83.962240
 20
-55.138015
 30
0.0
 10
83.962240
 20
-46.207375
 30
0.0
  0
LWPOLYLINE
  5
1b0
100
AcDbEntity
  8
0
 62
7
100
AcDbPolyline
 90
2
 70
0
 10
147.066000
 20
-55.138015
 30
0.0
 10
147.066000
 20
-46.207375
 30
0.0
  0
LWPOLYLINE
  5
1b1
100
AcDbEntity
  8
0
 62
7
100
AcDbPolyline
 90
2
 70
0
 10
12.524740
 20
-67.637355
 30
0.0
 10
12.524740
 20
-53.946755
 30
0.0
  0
LWPOLYLINE
  5
1b2
100
AcDbEntity
  8
0
 62
7
100
AcDbPolyline
 90
2
 70
0
 10
179.212240
 20
-29.537355
 30
0.0
 10
178.023520
 20
-29.537355
 30
0.0
  0
LWPOLYLINE
  5
1b3
100
AcDbEntity
  8
0
 62
7
100
AcDbPolyline
 90
2
 70
0
 10
208.978500
 20
-21.800515
 30
0.0
 10
203.024740
 20
-21.800515
 30
0.0
  0
LWPOLYLINE
  5
1b4
100
AcDbEntity
  8
0
 62
7
100
AcDbPolyline
 90
2
 70
0
 10
184.571640
 20
-43.230495
 30
0.0
 10
184.571640
 20
-37.873635
 30
0.0
  0
LWPOLYLINE
  5
1b5
100
AcDbEntity
  8
0
 62
7
100
AcDbPolyline
 90
2
 70
0
 10
176.832260
 20
-32.514235
 30
0.0
 10
175.641000
 20
-32.514235
 30
0.0
  0
LWPOLYLINE
  5
1b6
100
AcDbEntity
  8
0
 62
7
100
AcDbPolyline
 90
2
 70
0
 10
208.978500
 20
-32.514235
 30
0.0
 10
208.978500
 20
-21.800515
 30
0.0
  0
LWPOLYLINE
  5
1b7
100
AcDbEntity
  8
0
 62
7
100
AcDbPolyline
 90
2
 70
0
 10
179.809140
 20
-34.896755
 30
0.0
 10
179.809140
 20
-36.088015
 30
0.0
  0
LWPOLYLINE
  5
1b8
100
AcDbEntity
  8
0
 62
7
100
AcDbPolyline
 90
3
 70
0
 10
8.953500
 20
-72.996755
 30
0.0
 10
8.953500
 20
-67.637355
 30
0.0
 10
12.524740
 20
-67.637355
 30
0.0
  0
LWPOLYLINE
  5
1b9
100
AcDbEntity
  8
0
 62
7
100
AcDbPolyline
 90
2
 70
0
 10
179.809140
 20
-36.088015
 30
0.0
 10
206.001620
 20
-36.088015
 30
0.0
  0
LWPOLYLINE
  5
1ba
100
AcDbEntity
  8
0
 62
7
100
AcDbPolyline
 90
2
 70
0
 10
175.641000
 20
-34.896755
 30
0.0
 10
179.809140
 20
-34.896755
 30
0.0
  0
LWPOLYLINE
  5
1bb
100
AcDbEntity
  8
0
 62
7
100
AcDbPolyline
 90
2
 70
0
 10
179.212240
 20
-21.800515
 30
0.0
 10
179.212240
 20
-29.537355
 30
0.0
  0
LWPOLYLINE
  5
1bc
100
AcDbEntity
  8
0
 62
7
100
AcDbPolyline
 90
2
 70
0
 10
176.832260
 20
-29.537355
 30
0.0
 10
176.832260
 20
-32.514235
 30
0.0
  0
LWPOLYLINE
  5
1bd
100
AcDbEntity
  8
0
 62
7
100
AcDbPolyline
 90
2
 70
0
 10
104.203500
 20
-59.900515
 30
0.0
 10
104.203500
 20
-65.257375
 30
0.0
  0
LWPOLYLINE
  5
1be
100
AcDbEntity
  8
0
 62
7
100
AcDbPolyline
 90
2
 70
0
 10
178.023520
 20
-29.537355
 30
0.0
 10
176.832260
 20
-29.537355
 30
0.0
  0
LWPOLYLINE
  5
1bf
100
AcDbEntity
  8
0
 62
7
100
AcDbPolyline
 90
3
 70
0
 10
104.203500
 20
-65.257375
 30
0.0
 10
117.299740
 20
-65.257375
 30
0.0
 10
117.299740
 20
-59.900515
 30
0.0
  0
LWPOLYLINE
  5
1c0
100
AcDbEntity
  8
0
 62
7
100
AcDbPolyline
 90
2
 70
0
 10
123.253500
 20
-59.900515
 30
0.0
 10
123.253500
 20
-65.257375
 30
0.0
  0
LWPOLYLINE
  5
1c1
100
AcDbEntity
  8
0
 62
7
100
AcDbPolyline
 90
2
 70
0
 10
117.299740
 20
-59.900515
 30
0.0
 10
123.253500
 20
-59.900515
 30
0.0
  0
LWPOLYLINE
  5
1c2
100
AcDbEntity
  8
0
 62
7
100
AcDbPolyline
 90
2
 70
0
 10
66.103500
 20
-59.900515
 30
0.0
 10
66.103500
 20
-65.257375
 30
0.0
  0
LWPOLYLINE
  5
1c3
100
AcDbEntity
  8
0
 62
7
100
AcDbPolyline
 90
2
 70
0
 10
42.291000
 20
-65.257375
 30
0.0
 10
45.862240
 20
-65.257375
 30
0.0
  0
LWPOLYLINE
  5
1c4
100
AcDbEntity
  8
0
 62
7
100
AcDbPolyline
 90
2
 70
0
 10
123.253500
 20
-65.257375
 30
0.0
 10
155.399740
 20
-65.257375
 30
0.0
  0
LWPOLYLINE
  5
1c5
100
AcDbEntity
  8
0
 62
7
100
AcDbPolyline
 90
2
 70
0
 10
155.399740
 20
-59.900515
 30
0.0
 10
170.878500
 20
-59.900515
 30
0.0
  0
LWPOLYLINE
  5
1c6
100
AcDbEntity
  8
0
 62
7
100
AcDbPolyline
 90
2
 70
0
 10
203.621640
 20
-37.873635
 30
0.0
 10
203.621640
 20
-41.444875
 30
0.0
  0
LWPOLYLINE
  5
1c7
100
AcDbEntity
  8
0
 62
7
100
AcDbPolyline
 90
2
 70
0
 10
205.407260
 20
-43.230495
 30
0.0
 10
208.384140
 20
-43.230495
 30
0.0
  0
LWPOLYLINE
  5
1c8
100
AcDbEntity
  8
0
 62
7
100
AcDbPolyline
 90
2
 70
0
 10
210.169760
 20
-34.896755
 30
0.0
 10
210.169760
 20
-32.514235
 30
0.0
  0
LWPOLYLINE
  5
1c9
100
AcDbEntity
  8
0
 62
7
100
AcDbPolyline
 90
2
 70
0
 10
98.249740
 20
-65.257375
 30
0.0
 10
98.249740
 20
-59.900515
 30
0.0
  0
LWPOLYLINE
  5
1ca
100
AcDbEntity
  8
0
 62
7
100
AcDbPolyline
 90
2
 70
0
 10
210.169760
 20
-32.514235
 30
0.0
 10
208.978500
 20
-32.514235
 30
0.0
  0
LWPOLYLINE
  5
1cb
100
AcDbEntity
  8
0
 62
7
100
AcDbPolyline
 90
2
 70
0
 10
98.249740
 20
-59.900515
 30
0.0
 10
104.203500
 20
-59.900515
 30
0.0
  0
LWPOLYLINE
  5
1cc
100
AcDbEntity
  8
0
 62
7
100
AcDbPolyline
 90
2
 70
0
 10
206.001620
 20
-34.896755
 30
0.0
 10
210.169760
 20
-34.896755
 30
0.0
  0
LWPOLYLINE
  5
1cd
100
AcDbEntity
  8
0
 62
7
100
AcDbPolyline
 90
2
 70
0
 10
66.103500
 20
-65.257375
 30
0.0
 10
98.249740
 20
-65.257375
 30
0.0
  0
LWPOLYLINE
  5
1ce
100
AcDbEntity
  8
0
 62
7
100
AcDbPolyline
 90
2
 70
0
 10
155.399740
 20
-65.257375
 30
0.0
 10
155.399740
 20
-59.900515
 30
0.0
  0
LWPOLYLINE
  5
1cf
100
AcDbEntity
  8
0
 62
7
100
AcDbPolyline
 90
2
 70
0
 10
175.641000
 20
-32.514235
 30
0.0
 10
175.641000
 20
-34.896755
 30
0.0
  0
LWPOLYLINE
  5
1d0
100
AcDbEntity
  8
0
 62
7
100
AcDbPolyline
 90
3
 70
0
 10
50.624740
 20
-65.257375
 30
0.0
 10
50.624740
 20
-59.900515
 30
0.0
 10
66.103500
 20
-59.900515
 30
0.0
  0
LWPOLYLINE
  5
1d1
100
AcDbEntity
  8
0
 62
7
100
AcDbPolyline
 90
2
 70
0
 10
206.001620
 20
-65.257375
 30
0.0
 10
210.169760
 20
-65.257375
 30
0.0
  0
LWPOLYLINE
  5
1d2
100
AcDbEntity
  8
0
 62
7
100
AcDbPolyline
 90
2
 70
0
 10
98.846640
 20
-74.188015
 30
0.0
 10
65.509140
 20
-74.188015
 30
0.0
  0
LWPOLYLINE
  5
1d3
100
AcDbEntity
  8
0
 62
7
100
AcDbPolyline
 90
2
 70
0
 10
117.896640
 20
-81.330495
 30
0.0
 10
117.896640
 20
-74.188015
 30
0.0
  0
LWPOLYLINE
  5
1d4
100
AcDbEntity
  8
0
 62
7
100
AcDbPolyline
 90
2
 70
0
 10
170.878500
 20
-59.900515
 30
0.0
 10
170.878500
 20
-81.330495
 30
0.0
  0
LWPOLYLINE
  5
1d5
100
AcDbEntity
  8
0
 62
7
100
AcDbPolyline
 90
2
 70
0
 10
155.996640
 20
-81.330495
 30
0.0
 10
155.996640
 20
-74.188015
 30
0.0
  0
LWPOLYLINE
  5
1d6
100
AcDbEntity
  8
0
 62
7
100
AcDbPolyline
 90
3
 70
0
 10
117.896640
 20
-74.188015
 30
0.0
 10
103.609140
 20
-74.188015
 30
0.0
 10
103.609140
 20
-81.330495
 30
0.0
  0
LWPOLYLINE
  5
1d7
100
AcDbEntity
  8
0
 62
7
100
AcDbPolyline
 90
2
 70
0
 10
98.846640
 20
-81.330495
 30
0.0
 10
98.846640
 20
-74.188015
 30
0.0
  0
LWPOLYLINE
  5
1d8
100
AcDbEntity
  8
0
 62
7
100
AcDbPolyline
 90
3
 70
0
 10
155.996640
 20
-74.188015
 30
0.0
 10
122.659140
 20
-74.188015
 30
0.0
 10
122.659140
 20
-81.330495
 30
0.0
  0
LWPOLYLINE
  5
1d9
100
AcDbEntity
  8
0
 62
7
100
AcDbPolyline
 90
2
 70
0
 10
65.509140
 20
-74.188015
 30
0.0
 10
65.509140
 20
-81.330495
 30
0.0
  0
LWPOLYLINE
  5
1da
100
AcDbEntity
  8
0
 62
7
100
AcDbPolyline
 90
2
 70
0
 10
69.674740
 20
-8.107375
 30
0.0
 10
56.578500
 20
-8.107375
 30
0.0
  0
LWPOLYLINE
  5
1db
100
AcDbEntity
  8
0
 62
7
100
AcDbPolyline
 90
2
 70
0
 10
103.609140
 20
-81.330495
 30
0.0
 10
98.846640
 20
-81.330495
 30
0.0
  0
LWPOLYLINE
  5
1dc
100
AcDbEntity
  8
0
 62
7
100
AcDbPolyline
 90
2
 70
0
 10
170.878500
 20
-81.330495
 30
0.0
 10
155.996640
 20
-81.330495
 30
0.0
  0
SPLINE
  5
1dd
100
AcDbEntity
  8
0
 62
7
100
AcDbSpline
 70
8
 71
3
 72
8
 73
4
 74
0
 40
0
 40
0
 40
0
 40
0
 40
1
 40
1
 40
1
 40
1
 10
215.528398
 20
-33.111643
 30
0.0
 10
215.528363
 20
-33.440376
 30
0.0
 10
215.794788
 20
-33.706914
 30
0.0
 10
216.123520
 20
-33.707019
 30
0.0
  0
LWPOLYLINE
  5
1de
100
AcDbEntity
  8
0
 62
7
100
AcDbPolyline
 90
2
 70
0
 10
65.509140
 20
-81.330495
 30
0.0
 10
50.624740
 20
-81.330495
 30
0.0
  0
LWPOLYLINE
  5
1df
100
AcDbEntity
  8
0
 62
7
100
AcDbPolyline
 90
2
 70
0
 10
26.812240
 20
-17.038015
 30
0.0
 10
13.716000
 20
-17.038015
 30
0.0
  0
LWPOLYLINE
  5
1e0
100
AcDbEntity
  8
0
 62
7
100
AcDbPolyline
 90
2
 70
0
 10
26.812240
 20
-8.107375
 30
0.0
 10
13.716000
 20
-8.107375
 30
0.0
  0
LWPOLYLINE
  5
1e1
100
AcDbEntity
  8
0
 62
7
100
AcDbPolyline
 90
2
 70
0
 10
13.716000
 20
-17.038015
 30
0.0
 10
13.716000
 20
-8.107375
 30
0.0
  0
LWPOLYLINE
  5
1e2
100
AcDbEntity
  8
0
 62
7
100
AcDbPolyline
 90
2
 70
0
 10
20.264120
 20
-74.188015
 30
0.0
 10
13.121640
 20
-74.188015
 30
0.0
  0
LWPOLYLINE
  5
1e3
100
AcDbEntity
  8
0
 62
7
100
AcDbPolyline
 90
2
 70
0
 10
26.812240
 20
-17.038015
 30
0.0
 10
26.812240
 20
-8.107375
 30
0.0
  0
LWPOLYLINE
  5
1e4
100
AcDbEntity
  8
0
 62
7
100
AcDbPolyline
 90
2
 70
0
 10
122.659140
 20
-81.330495
 30
0.0
 10
117.896640
 20
-81.330495
 30
0.0
  0
LWPOLYLINE
  5
1e5
100
AcDbEntity
  8
0
 62
7
100
AcDbPolyline
 90
3
 70
0
 10
50.624740
 20
-17.038015
 30
0.0
 10
37.528500
 20
-17.038015
 30
0.0
 10
37.528500
 20
-8.107375
 30
0.0
  0
LWPOLYLINE
  5
1e6
100
AcDbEntity
  8
0
 62
7
100
AcDbPolyline
 90
2
 70
0
 10
50.624740
 20
-17.038015
 30
0.0
 10
50.624740
 20
-8.107375
 30
0.0
  0
LWPOLYLINE
  5
1e7
100
AcDbEntity
  8
0
 62
7
100
AcDbPolyline
 90
2
 70
0
 10
69.674740
 20
-17.038015
 30
0.0
 10
56.578500
 20
-17.038015
 30
0.0
  0
LWPOLYLINE
  5
1e8
100
AcDbEntity
  8
0
 62
7
100
AcDbPolyline
 90
2
 70
0
 10
50.624740
 20
-8.107375
 30
0.0
 10
37.528500
 20
-8.107375
 30
0.0
  0
LWPOLYLINE
  5
1e9
100
AcDbEntity
  8
0
 62
7
100
AcDbPolyline
 90
2
 70
0
 10
56.578500
 20
-17.038015
 30
0.0
 10
56.578500
 20
-8.107375
 30
0.0
  0
LWPOLYLINE
  5
1ea
100
AcDbEntity
  8
0
 62
7
100
AcDbPolyline
 90
2
 70
0
 10
69.674740
 20
-17.038015
 30
0.0
 10
69.674740
 20
-8.107375
 30
0.0
  0
LWPOLYLINE
  5
1eb
100
AcDbEntity
  8
0
 62
7
100
AcDbPolyline
 90
2
 70
0
 10
88.724740
 20
-17.038015
 30
0.0
 10
75.628500
 20
-17.038015
 30
0.0
  0
LWPOLYLINE
  5
1ec
100
AcDbEntity
  8
0
 62
7
100
AcDbPolyline
 90
2
 70
0
 10
151.828500
 20
-17.038015
 30
0.0
 10
151.828500
 20
-8.107375
 30
0.0
  0
LWPOLYLINE
  5
1ed
100
AcDbEntity
  8
0
 62
7
100
AcDbPolyline
 90
2
 70
0
 10
29.194760
 20
-36.088015
 30
0.0
 10
16.095980
 20
-36.088015
 30
0.0
  0
LWPOLYLINE
  5
1ee
100
AcDbEntity
  8
0
 62
7
100
AcDbPolyline
 90
2
 70
0
 10
29.194760
 20
-27.157375
 30
0.0
 10
16.095980
 20
-27.157375
 30
0.0
  0
LWPOLYLINE
  5
1ef
100
AcDbEntity
  8
0
 62
7
100
AcDbPolyline
 90
2
 70
0
 10
29.194760
 20
-36.088015
 30
0.0
 10
29.194760
 20
-27.157375
 30
0.0
  0
LWPOLYLINE
  5
1f0
100
AcDbEntity
  8
0
 62
7
100
AcDbPolyline
 90
2
 70
0
 10
88.724740
 20
-17.038015
 30
0.0
 10
88.724740
 20
-8.107375
 30
0.0
  0
LWPOLYLINE
  5
1f1
100
AcDbEntity
  8
0
 62
7
100
AcDbPolyline
 90
2
 70
0
 10
55.387240
 20
-36.088015
 30
0.0
 10
55.387240
 20
-27.157375
 30
0.0
  0
LWPOLYLINE
  5
1f2
100
AcDbEntity
  8
0
 62
7
100
AcDbPolyline
 90
2
 70
0
 10
74.437240
 20
-36.088015
 30
0.0
 10
61.341000
 20
-36.088015
 30
0.0
  0
LWPOLYLINE
  5
1f3
100
AcDbEntity
  8
0
 62
7
100
AcDbPolyline
 90
2
 70
0
 10
207.787240
 20
-17.038015
 30
0.0
 10
207.787240
 20
-8.107375
 30
0.0
  0
LWPOLYLINE
  5
1f4
100
AcDbEntity
  8
0
 62
7
100
AcDbPolyline
 90
2
 70
0
 10
74.437240
 20
-27.157375
 30
0.0
 10
61.341000
 20
-27.157375
 30
0.0
  0
LWPOLYLINE
  5
1f5
100
AcDbEntity
  8
0
 62
7
100
AcDbPolyline
 90
2
 70
0
 10
42.291000
 20
-36.088015
 30
0.0
 10
42.291000
 20
-27.157375
 30
0.0
  0
LWPOLYLINE
  5
1f6
100
AcDbEntity
  8
0
 62
7
100
AcDbPolyline
 90
2
 70
0
 10
61.341000
 20
-36.088015
 30
0.0
 10
61.341000
 20
-27.157375
 30
0.0
  0
LWPOLYLINE
  5
1f7
100
AcDbEntity
  8
0
 62
7
100
AcDbPolyline
 90
2
 70
0
 10
74.437240
 20
-36.088015
 30
0.0
 10
74.437240
 20
-27.157375
 30
0.0
  0
LWPOLYLINE
  5
1f8
100
AcDbEntity
  8
0
 62
7
100
AcDbPolyline
 90
2
 70
0
 10
93.487240
 20
-27.157375
 30
0.0
 10
80.391000
 20
-27.157375
 30
0.0
  0
LWPOLYLINE
  5
1f9
100
AcDbEntity
  8
0
 62
7
100
AcDbPolyline
 90
2
 70
0
 10
207.787240
 20
-17.038015
 30
0.0
 10
194.691000
 20
-17.038015
 30
0.0
  0
LWPOLYLINE
  5
1fa
100
AcDbEntity
  8
0
 62
7
100
AcDbPolyline
 90
2
 70
0
 10
93.487240
 20
-36.088015
 30
0.0
 10
93.487240
 20
-27.157375
 30
0.0
  0
LWPOLYLINE
  5
1fb
100
AcDbEntity
  8
0
 62
7
100
AcDbPolyline
 90
2
 70
0
 10
112.537240
 20
-36.088015
 30
0.0
 10
99.441000
 20
-36.088015
 30
0.0
  0
LWPOLYLINE
  5
1fc
100
AcDbEntity
  8
0
 62
7
100
AcDbPolyline
 90
2
 70
0
 10
112.537240
 20
-27.157375
 30
0.0
 10
99.441000
 20
-27.157375
 30
0.0
  0
LWPOLYLINE
  5
1fd
100
AcDbEntity
  8
0
 62
7
100
AcDbPolyline
 90
2
 70
0
 10
164.924740
 20
-8.107375
 30
0.0
 10
151.828500
 20
-8.107375
 30
0.0
  0
LWPOLYLINE
  5
1fe
100
AcDbEntity
  8
0
 62
7
100
AcDbPolyline
 90
2
 70
0
 10
99.441000
 20
-36.088015
 30
0.0
 10
99.441000
 20
-27.157375
 30
0.0
  0
LWPOLYLINE
  5
1ff
100
AcDbEntity
  8
0
 62
7
100
AcDbPolyline
 90
2
 70
0
 10
126.824740
 20
-8.107375
 30
0.0
 10
113.728500
 20
-8.107375
 30
0.0
  0
LWPOLYLINE
  5
200
100
AcDbEntity
  8
0
 62
7
100
AcDbPolyline
 90
2
 70
0
 10
93.487240
 20
-36.088015
 30
0.0
 10
80.391000
 20
-36.088015
 30
0.0
  0
LWPOLYLINE
  5
201
100
AcDbEntity
  8
0
 62
7
100
AcDbPolyline
 90
2
 70
0
 10
107.774740
 20
-8.107375
 30
0.0
 10
94.678500
 20
-8.107375
 30
0.0
  0
LWPOLYLINE
  5
202
100
AcDbEntity
  8
0
 62
7
100
AcDbPolyline
 90
2
 70
0
 10
112.537240
 20
-36.088015
 30
0.0
 10
112.537240
 20
-27.157375
 30
0.0
  0
LWPOLYLINE
  5
203
100
AcDbEntity
  8
0
 62
7
100
AcDbPolyline
 90
2
 70
0
 10
131.587240
 20
-36.088015
 30
0.0
 10
118.491000
 20
-36.088015
 30
0.0
  0
LWPOLYLINE
  5
204
100
AcDbEntity
  8
0
 62
7
100
AcDbPolyline
 90
2
 70
0
 10
131.587240
 20
-27.157375
 30
0.0
 10
118.491000
 20
-27.157375
 30
0.0
  0
LWPOLYLINE
  5
205
100
AcDbEntity
  8
0
 62
7
100
AcDbPolyline
 90
2
 70
0
 10
183.974740
 20
-17.038015
 30
0.0
 10
170.878500
 20
-17.038015
 30
0.0
  0
LWPOLYLINE
  5
206
100
AcDbEntity
  8
0
 62
7
100
AcDbPolyline
 90
2
 70
0
 10
80.391000
 20
-36.088015
 30
0.0
 10
80.391000
 20
-27.157375
 30
0.0
  0
LWPOLYLINE
  5
207
100
AcDbEntity
  8
0
 62
7
100
AcDbPolyline
 90
2
 70
0
 10
118.491000
 20
-36.088015
 30
0.0
 10
118.491000
 20
-27.157375
 30
0.0
  0
LWPOLYLINE
  5
208
100
AcDbEntity
  8
0
 62
7
100
AcDbPolyline
 90
2
 70
0
 10
131.587240
 20
-36.088015
 30
0.0
 10
131.587240
 20
-27.157375
 30
0.0
  0
LWPOLYLINE
  5
209
100
AcDbEntity
  8
0
 62
7
100
AcDbPolyline
 90
2
 70
0
 10
150.637240
 20
-36.088015
 30
0.0
 10
137.541000
 20
-36.088015
 30
0.0
  0
LWPOLYLINE
  5
20a
100
AcDbEntity
  8
0
 62
7
100
AcDbPolyline
 90
2
 70
0
 10
132.778500
 20
-17.038015
 30
0.0
 10
132.778500
 20
-8.107375
 30
0.0
  0
LWPOLYLINE
  5
20b
100
AcDbEntity
  8
0
 62
7
100
AcDbPolyline
 90
2
 70
0
 10
55.387240
 20
-36.088015
 30
0.0
 10
42.291000
 20
-36.088015
 30
0.0
  0
LWPOLYLINE
  5
20c
100
AcDbEntity
  8
0
 62
7
100
AcDbPolyline
 90
2
 70
0
 10
150.637240
 20
-27.157375
 30
0.0
 10
137.541000
 20
-27.157375
 30
0.0
  0
LWPOLYLINE
  5
20d
100
AcDbEntity
  8
0
 62
7
100
AcDbPolyline
 90
2
 70
0
 10
137.541000
 20
-36.088015
 30
0.0
 10
137.541000
 20
-27.157375
 30
0.0
  0
LWPOLYLINE
  5
20e
100
AcDbEntity
  8
0
 62
7
100
AcDbPolyline
 90
2
 70
0
 10
150.637240
 20
-36.088015
 30
0.0
 10
150.637240
 20
-27.157375
 30
0.0
  0
LWPOLYLINE
  5
20f
100
AcDbEntity
  8
0
 62
7
100
AcDbPolyline
 90
2
 70
0
 10
169.687240
 20
-36.088015
 30
0.0
 10
156.591000
 20
-36.088015
 30
0.0
  0
LWPOLYLINE
  5
210
100
AcDbEntity
  8
0
 62
7
100
AcDbPolyline
 90
2
 70
0
 10
169.687240
 20
-27.157375
 30
0.0
 10
156.591000
 20
-27.157375
 30
0.0
  0
LWPOLYLINE
  5
211
100
AcDbEntity
  8
0
 62
7
100
AcDbPolyline
 90
2
 70
0
 10
107.774740
 20
-17.038015
 30
0.0
 10
107.774740
 20
-8.107375
 30
0.0
  0
LWPOLYLINE
  5
212
100
AcDbEntity
  8
0
 62
7
100
AcDbPolyline
 90
2
 70
0
 10
126.824740
 20
-17.038015
 30
0.0
 10
126.824740
 20
-8.107375
 30
0.0
  0
LWPOLYLINE
  5
213
100
AcDbEntity
  8
0
 62
7
100
AcDbPolyline
 90
2
 70
0
 10
55.387240
 20
-27.157375
 30
0.0
 10
42.291000
 20
-27.157375
 30
0.0
  0
LWPOLYLINE
  5
214
100
AcDbEntity
  8
0
 62
7
100
AcDbPolyline
 90
2
 70
0
 10
16.095980
 20
-36.088015
 30
0.0
 10
16.095980
 20
-27.157375
 30
0.0
  0
LWPOLYLINE
  5
215
100
AcDbEntity
  8
0
 62
7
100
AcDbPolyline
 90
2
 70
0
 10
88.724740
 20
-8.107375
 30
0.0
 10
75.628500
 20
-8.107375
 30
0.0
  0
LWPOLYLINE
  5
216
100
AcDbEntity
  8
0
 62
7
100
AcDbPolyline
 90
2
 70
0
 10
183.974740
 20
-8.107375
 30
0.0
 10
170.878500
 20
-8.107375
 30
0.0
  0
LWPOLYLINE
  5
217
100
AcDbEntity
  8
0
 62
7
100
AcDbPolyline
 90
2
 70
0
 10
75.628500
 20
-17.038015
 30
0.0
 10
75.628500
 20
-8.107375
 30
0.0
  0
LWPOLYLINE
  5
218
100
AcDbEntity
  8
0
 62
7
100
AcDbPolyline
 90
2
 70
0
 10
145.874740
 20
-17.038015
 30
0.0
 10
132.778500
 20
-17.038015
 30
0.0
  0
LWPOLYLINE
  5
219
100
AcDbEntity
  8
0
 62
7
100
AcDbPolyline
 90
2
 70
0
 10
94.678500
 20
-17.038015
 30
0.0
 10
94.678500
 20
-8.107375
 30
0.0
  0
LWPOLYLINE
  5
21a
100
AcDbEntity
  8
0
 62
7
100
AcDbPolyline
 90
2
 70
0
 10
107.774740
 20
-17.038015
 30
0.0
 10
94.678500
 20
-17.038015
 30
0.0
  0
LWPOLYLINE
  5
21b
100
AcDbEntity
  8
0
 62
7
100
AcDbPolyline
 90
2
 70
0
 10
145.874740
 20
-17.038015
 30
0.0
 10
145.874740
 20
-8.107375
 30
0.0
  0
LWPOLYLINE
  5
21c
100
AcDbEntity
  8
0
 62
7
100
AcDbPolyline
 90
2
 70
0
 10
207.787240
 20
-8.107375
 30
0.0
 10
194.691000
 20
-8.107375
 30
0.0
  0
LWPOLYLINE
  5
21d
100
AcDbEntity
  8
0
 62
7
100
AcDbPolyline
 90
2
 70
0
 10
126.824740
 20
-17.038015
 30
0.0
 10
113.728500
 20
-17.038015
 30
0.0
  0
LWPOLYLINE
  5
21e
100
AcDbEntity
  8
0
 62
7
100
AcDbPolyline
 90
2
 70
0
 10
170.878500
 20
-17.038015
 30
0.0
 10
170.878500
 20
-8.107375
 30
0.0
  0
LWPOLYLINE
  5
21f
100
AcDbEntity
  8
0
 62
7
100
AcDbPolyline
 90
2
 70
0
 10
113.728500
 20
-17.038015
 30
0.0
 10
113.728500
 20
-8.107375
 30
0.0
  0
LWPOLYLINE
  5
220
100
AcDbEntity
  8
0
 62
7
100
AcDbPolyline
 90
2
 70
0
 10
145.874740
 20
-8.107375
 30
0.0
 10
132.778500
 20
-8.107375
 30
0.0
  0
LWPOLYLINE
  5
221
100
AcDbEntity
  8
0
 62
7
100
AcDbPolyline
 90
2
 70
0
 10
164.924740
 20
-17.038015
 30
0.0
 10
164.924740
 20
-8.107375
 30
0.0
  0
LWPOLYLINE
  5
222
100
AcDbEntity
  8
0
 62
7
100
AcDbPolyline
 90
2
 70
0
 10
164.924740
 20
-17.038015
 30
0.0
 10
151.828500
 20
-17.038015
 30
0.0
  0
LWPOLYLINE
  5
223
100
AcDbEntity
  8
0
 62
7
100
AcDbPolyline
 90
2
 70
0
 10
183.974740
 20
-17.038015
 30
0.0
 10
183.974740
 20
-8.107375
 30
0.0
  0
LWPOLYLINE
  5
224
100
AcDbEntity
  8
0
 62
7
100
AcDbPolyline
 90
2
 70
0
 10
194.691000
 20
-17.038015
 30
0.0
 10
194.691000
 20
-8.107375
 30
0.0
  0
LWPOLYLINE
  5
225
100
AcDbEntity
  8
0
 62
7
100
AcDbPolyline
 90
2
 70
0
 10
184.571640
 20
-37.873635
 30
0.0
 10
179.809140
 20
-37.873635
 30
0.0
  0
LWPOLYLINE
  5
226
100
AcDbEntity
  8
0
 62
7
100
AcDbPolyline
 90
2
 70
0
 10
48.244760
 20
-72.996755
 30
0.0
 10
44.076620
 20
-72.996755
 30
0.0
  0
LWPOLYLINE
  5
227
100
AcDbEntity
  8
0
 62
7
100
AcDbPolyline
 90
2
 70
0
 10
174.449740
 20
-57.517995
 30
0.0
 10
180.403500
 20
-57.517995
 30
0.0
  0
LWPOLYLINE
  5
228
100
AcDbEntity
  8
0
 62
7
100
AcDbPolyline
 90
2
 70
0
 10
198.262240
 20
-64.663015
 30
0.0
 10
202.430380
 20
-64.663015
 30
0.0
  0
LWPOLYLINE
  5
229
100
AcDbEntity
  8
0
 62
7
100
AcDbPolyline
 90
2
 70
0
 10
180.403500
 20
-66.448635
 30
0.0
 10
180.403500
 20
-67.637355
 30
0.0
  0
LWPOLYLINE
  5
22a
100
AcDbEntity
  8
0
 62
7
100
AcDbPolyline
 90
2
 70
0
 10
198.262240
 20
-57.517995
 30
0.0
 10
204.216000
 20
-57.517995
 30
0.0
  0
LWPOLYLINE
  5
22b
100
AcDbEntity
  8
0
 62
7
100
AcDbPolyline
 90
2
 70
0
 10
206.001620
 20
-34.896755
 30
0.0
 10
206.001620
 20
-36.088015
 30
0.0
  0
LWPOLYLINE
  5
22c
100
AcDbEntity
  8
0
 62
7
100
AcDbPolyline
 90
2
 70
0
 10
183.974740
 20
-51.564235
 30
0.0
 10
182.786020
 20
-51.564235
 30
0.0
  0
LWPOLYLINE
  5
22d
100
AcDbEntity
  8
0
 62
7
100
AcDbPolyline
 90
2
 70
0
 10
203.621640
 20
-37.873635
 30
0.0
 10
208.384140
 20
-37.873635
 30
0.0
  0
LWPOLYLINE
  5
22e
100
AcDbEntity
  8
0
 62
7
100
AcDbPolyline
 90
2
 70
0
 10
204.216000
 20
-67.637355
 30
0.0
 10
204.216000
 20
-66.448635
 30
0.0
  0
LWPOLYLINE
  5
22f
100
AcDbEntity
  8
0
 62
7
100
AcDbPolyline
 90
2
 70
0
 10
182.786020
 20
-51.564235
 30
0.0
 10
182.786020
 20
-53.946755
 30
0.0
  0
LWPOLYLINE
  5
230
100
AcDbEntity
  8
0
 62
7
100
AcDbPolyline
 90
2
 70
0
 10
44.076620
 20
-72.996755
 30
0.0
 10
44.076620
 20
-74.188015
 30
0.0
  0
LWPOLYLINE
  5
231
100
AcDbEntity
  8
0
 62
7
100
AcDbPolyline
 90
2
 70
0
 10
208.384140
 20
-37.873635
 30
0.0
 10
208.384140
 20
-43.230495
 30
0.0
  0
LWPOLYLINE
  5
232
100
AcDbEntity
  8
0
 62
7
100
AcDbPolyline
 90
2
 70
0
 10
179.809140
 20
-37.873635
 30
0.0
 10
179.809140
 20
-41.444875
 30
0.0
  0
LWPOLYLINE
  5
233
100
AcDbEntity
  8
0
 62
7
100
AcDbPolyline
 90
2
 70
0
 10
179.212240
 20
-47.398635
 30
0.0
 10
179.809140
 20
-47.398635
 30
0.0
  0
LWPOLYLINE
  5
234
100
AcDbEntity
  8
0
 62
7
100
AcDbPolyline
 90
2
 70
0
 10
183.974740
 20
-48.587355
 30
0.0
 10
183.974740
 20
-51.564235
 30
0.0
  0
LWPOLYLINE
  5
235
100
AcDbEntity
  8
0
 62
7
100
AcDbPolyline
 90
2
 70
0
 10
174.449740
 20
-64.663015
 30
0.0
 10
178.617880
 20
-64.663015
 30
0.0
  0
LWPOLYLINE
  5
236
100
AcDbEntity
  8
0
 62
7
100
AcDbPolyline
 90
3
 70
0
 10
182.786020
 20
-53.946755
 30
0.0
 10
186.951620
 20
-53.946755
 30
0.0
 10
186.951620
 20
-55.138015
 30
0.0
  0
LWPOLYLINE
  5
237
100
AcDbEntity
  8
0
 62
7
100
AcDbPolyline
 90
2
 70
0
 10
179.212240
 20
-53.946755
 30
0.0
 10
179.212240
 20
-47.398635
 30
0.0
  0
LWPOLYLINE
  5
238
100
AcDbEntity
  8
0
 62
7
100
AcDbPolyline
 90
3
 70
0
 10
179.212240
 20
-53.946755
 30
0.0
 10
175.046640
 20
-53.946755
 30
0.0
 10
175.046640
 20
-55.138015
 30
0.0
  0
LWPOLYLINE
  5
239
100
AcDbEntity
  8
0
 62
7
100
AcDbPolyline
 90
2
 70
0
 10
198.262240
 20
-67.637355
 30
0.0
 10
204.216000
 20
-67.637355
 30
0.0
  0
LWPOLYLINE
  5
23a
100
AcDbEntity
  8
0
 62
7
100
AcDbPolyline
 90
2
 70
0
 10
179.809140
 20
-41.444875
 30
0.0
 10
178.023520
 20
-43.230495
 30
0.0
  0
LWPOLYLINE
  5
23b
100
AcDbEntity
  8
0
 62
7
100
AcDbPolyline
 90
2
 70
0
 10
202.430380
 20
-64.663015
 30
0.0
 10
204.216000
 20
-66.448635
 30
0.0
  0
LWPOLYLINE
  5
23c
100
AcDbEntity
  8
0
 62
7
100
AcDbPolyline
 90
2
 70
0
 10
203.621640
 20
-41.444875
 30
0.0
 10
201.836020
 20
-43.230495
 30
0.0
  0
LWPOLYLINE
  5
23d
100
AcDbEntity
  8
0
 62
7
100
AcDbPolyline
 90
2
 70
0
 10
203.621640
 20
-45.016115
 30
0.0
 10
205.407260
 20
-43.230495
 30
0.0
  0
LWPOLYLINE
  5
23e
100
AcDbEntity
  8
0
 62
7
100
AcDbPolyline
 90
2
 70
0
 10
179.809140
 20
-45.016115
 30
0.0
 10
181.594760
 20
-43.230495
 30
0.0
  0
LWPOLYLINE
  5
23f
100
AcDbEntity
  8
0
 62
7
100
AcDbPolyline
 90
2
 70
0
 10
170.284140
 20
-53.946755
 30
0.0
 10
166.116000
 20
-53.946755
 30
0.0
  0
LWPOLYLINE
  5
240
100
AcDbEntity
  8
0
 62
7
100
AcDbPolyline
 90
3
 70
0
 10
205.407260
 20
-53.946755
 30
0.0
 10
201.239120
 20
-53.946755
 30
0.0
 10
201.239120
 20
-55.138015
 30
0.0
  0
LWPOLYLINE
  5
241
100
AcDbEntity
  8
0
 62
7
100
AcDbPolyline
 90
2
 70
0
 10
186.951620
 20
-55.138015
 30
0.0
 10
201.239120
 20
-55.138015
 30
0.0
  0
LWPOLYLINE
  5
242
100
AcDbEntity
  8
0
 62
7
100
AcDbPolyline
 90
2
 70
0
 10
170.284140
 20
-55.138015
 30
0.0
 10
170.284140
 20
-53.946755
 30
0.0
  0
LWPOLYLINE
  5
243
100
AcDbEntity
  8
0
 62
7
100
AcDbPolyline
 90
2
 70
0
 10
180.403500
 20
-63.471755
 30
0.0
 10
182.189120
 20
-65.257375
 30
0.0
  0
LWPOLYLINE
  5
244
100
AcDbEntity
  8
0
 62
7
100
AcDbPolyline
 90
2
 70
0
 10
204.216000
 20
-63.471755
 30
0.0
 10
206.001620
 20
-65.257375
 30
0.0
  0
LWPOLYLINE
  5
245
100
AcDbEntity
  8
0
 62
7
100
AcDbPolyline
 90
2
 70
0
 10
178.617880
 20
-64.663015
 30
0.0
 10
180.403500
 20
-66.448635
 30
0.0
  0
ENDSEC
  0
SECTION
  2
OBJECTS
  0
DICTIONARY
  5
C
330
0
100
AcDbDictionary
  3
ACAD_GROUP
350
D
  3
ACAD_MLINESTYLE
350
17
  0
DICTIONARY
  5
D
330
C
100
AcDbDictionary
  0
DICTIONARY
  5
1A
330
C
100
AcDbDictionary
  0
DICTIONARY
  5
17
330
C
100
AcDbDictionary
  3
STANDARD
350
18
  0
DICTIONARY
  5
19
330
C
100
AcDbDictionary
  0
ENDSEC
  0
EOF
