  0
SECTION
  2
HEADER
  9
$ACADVER
  1
AC1014
  9
$HANDSEED
  5
FFFF
  9
$MEASUREMENT
 70
     1
  0
ENDSEC
  0
SECTION
  2
TABLES
  0
TABLE
  2
VPORT
  5
8
330
0
100
AcDbSymbolTable
 70
     4
  0
VPORT
  5
2E
330
8
100
AcDbSymbolTableRecord
100
AcDbViewportTableRecord
  2
*ACTIVE
 70
     0
 10
0.0
 20
0.0
 11
1.0
 21
1.0
 12
210.0
 22
148.5
 13
0.0
 23
0.0
 14
10.0
 24
10.0
 15
10.0
 25
10.0
 16
0.0
 26
0.0
 36
1.0
 17
0.0
 27
0.0
 37
0.0
 40
341.0
 41
1.24
 42
50.0
 43
0.0
 44
0.0
 50
0.0
 51
0.0
 71
     0
 72
   100
 73
     1
 74
     3
 75
     0
 76
     0
 77
     0
 78
     0
  0
ENDTAB
  0
TABLE
  2
LTYPE
  5
5
330
0
100
AcDbSymbolTable
 70
     1
  0
LTYPE
  5
14
330
5
100
AcDbSymbolTableRecord
100
AcDbLinetypeTableRecord
  2
BYBLOCK
 70
     0
  3

 72
    65
 73
     0
 40
0.0
  0
LTYPE
  5
15
330
5
100
AcDbSymbolTableRecord
100
AcDbLinetypeTableRecord
  2
BYLAYER
 70
     0
  3

 72
    65
 73
     0
 40
0.0
  0
LTYPE
  5
16
330
5
100
AcDbSymbolTableRecord
100
AcDbLinetypeTableRecord
  2
CONTINUOUS
 70
     0
  3
Solid line
 72
    65
 73
     0
 40
0.0
  0
ENDTAB
  0
TABLE
  2
LAYER
  5
2
100
AcDbSymbolTable
 70
1
  0
LAYER
  5
50
100
AcDbSymbolTableRecord
100
AcDbLayerTableRecord
  2
0
 70
0
  6
CONTINUOUS
  0
ENDTAB
  0
TABLE
  2
STYLE
  5
3
330
0
100
AcDbSymbolTable
 70
     1
  0
STYLE
  5
11
330
3
100
AcDbSymbolTableRecord
100
AcDbTextStyleTableRecord
  2
STANDARD
 70
     0
 40
0.0
 41
1.0
 50
0.0
 71
     0
 42
2.5
  3
txt
  4

  0
ENDTAB
  0
TABLE
  2
VIEW
  5
6
330
0
100
AcDbSymbolTable
 70
     0
  0
ENDTAB
  0
TABLE
  2
UCS
  5
7
330
0
100
AcDbSymbolTable
 70
     0
  0
ENDTAB
  0
TABLE
  2
APPID
  5
9
330
0
100
AcDbSymbolTable
 70
     2
  0
APPID
  5
12
330
9
100
AcDbSymbolTableRecord
100
AcDbRegAppTableRecord
  2
ACAD
 70
     0
  0
ENDTAB
  0
TABLE
  2
DIMSTYLE
  5
A
330
0
100
AcDbSymbolTable
 70
     1
  0
DIMSTYLE
105
27
330
A
100
AcDbSymbolTableRecord
100
AcDbDimStyleTableRecord
  2
ISO-25
 70
     0
  3

  4

  5

  6

  7

 40
1.0
 41
2.5
 42
0.625
 43
3.75
 44
1.25
 45
0.0
 46
0.0
 47
0.0
 48
0.0
140
2.5
141
2.5
142
0.0
143
0.03937007874016
144
1.0
145
0.0
146
1.0
147
0.625
 71
     0
 72
     0
 73
     0
 74
     0
 75
     0
 76
     0
 77
     1
 78
     8
170
     0
171
     3
172
     1
173
     0
174
     0
175
     0
176
     0
177
     0
178
     0
270
     2
271
     2
272
     2
273
     2
274
     3
340
11
275
     0
280
     0
281
     0
282
     0
283
     0
284
     8
285
     0
286
     0
287
     3
288
     0
  0
ENDTAB
  0
TABLE
  2
BLOCK_RECORD
  5
1
330
0
100
AcDbSymbolTable
 70
     1
  0
BLOCK_RECORD
  5
1F
330
1
100
AcDbSymbolTableRecord
100
AcDbBlockTableRecord
  2
*MODEL_SPACE
  0
BLOCK_RECORD
  5
1B
330
1
100
AcDbSymbolTableRecord
100
AcDbBlockTableRecord
  2
*PAPER_SPACE
  0
ENDTAB
  0
ENDSEC
  0
SECTION
  2
BLOCKS
  0
BLOCK
  5
20
330
1F
100
AcDbEntity
  8
0
100
AcDbBlockBegin
  2
*MODEL_SPACE
 70
     0
 10
0.0
 20
0.0
 30
0.0
  3
*MODEL_SPACE
  1

  0
ENDBLK
  5
21
330
1F
100
AcDbEntity
  8
0
100
AcDbBlockEnd
  0
BLOCK
  5
1C
330
1B
100
AcDbEntity
 67
     1
  8
0
100
AcDbBlockBegin
  2
*PAPER_SPACE
  1

  0
ENDBLK
  5
1D
330
1B
100
AcDbEntity
 67
     1
  8
0
100
AcDbBlockEnd
  0
ENDSEC
  0
SECTION
  2
ENTITIES
  0
SPLINE
  5
100
100
AcDbEntity
  8
0
 62
7
100
AcDbSpline
 70
8
 71
3
 72
8
 73
4
 74
0
 40
0
 40
0
 40
0
 40
0
 40
1
 40
1
 40
1
 40
1
 10
8.359394
 20
-7.839080
 30
0.0
 10
8.201507
 20
-7.839077
 30
0.0
 10
8.050086
 20
-7.901794
 30
0.0
 10
7.938441
 20
-8.013434
 30
0.0
  0
SPLINE
  5
101
100
AcDbEntity
  8
0
 62
7
100
AcDbSpline
 70
8
 71
3
 72
8
 73
4
 74
0
 40
0
 40
0
 40
0
 40
0
 40
1
 40
1
 40
1
 40
1
 10
7.938441
 20
-8.013434
 30
0.0
 10
7.826796
 20
-8.125074
 30
0.0
 10
7.764072
 20
-8.276493
 30
0.0
 10
7.764069
 20
-8.434380
 30
0.0
  0
SPLINE
  5
102
100
AcDbEntity
  8
0
 62
7
100
AcDbSpline
 70
8
 71
3
 72
8
 73
4
 74
0
 40
0
 40
0
 40
0
 40
0
 40
1
 40
1
 40
1
 40
1
 10
7.764069
 20
-81.657779
 30
0.0
 10
7.764052
 20
-81.815679
 30
0.0
 10
7.826767
 20
-81.967117
 30
0.0
 10
7.938414
 20
-82.078774
 30
0.0
  0
SPLINE
  5
103
100
AcDbEntity
  8
0
 62
7
100
AcDbSpline
 70
8
 71
3
 72
8
 73
4
 74
0
 40
0
 40
0
 40
0
 40
0
 40
1
 40
1
 40
1
 40
1
 10
7.938414
 20
-82.078774
 30
0.0
 10
8.050061
 20
-82.190431
 30
0.0
 10
8.201494
 20
-82.253159
 30
0.0
 10
8.359394
 20
-82.253155
 30
0.0
  0
SPLINE
  5
104
100
AcDbEntity
  8
0
 62
7
100
AcDbSpline
 70
8
 71
3
 72
8
 73
4
 74
0
 40
0
 40
0
 40
0
 40
0
 40
1
 40
1
 40
1
 40
1
 10
211.956396
 20
-82.253155
 30
0.0
 10
212.114305
 20
-82.253172
 30
0.0
 10
212.265751
 20
-82.190451
 30
0.0
 10
212.377409
 20
-82.078792
 30
0.0
  0
SPLINE
  5
105
100
AcDbEntity
  8
0
 62
7
100
AcDbSpline
 70
8
 71
3
 72
8
 73
4
 74
0
 40
0
 40
0
 40
0
 40
0
 40
1
 40
1
 40
1
 40
1
 10
212.377409
 20
-82.078792
 30
0.0
 10
212.489067
 20
-81.967134
 30
0.0
 10
212.551789
 20
-81.815688
 30
0.0
 10
212.551772
 20
-81.657779
 30
0.0
  0
SPLINE
  5
106
100
AcDbEntity
  8
0
 62
7
100
AcDbSpline
 70
8
 71
3
 72
8
 73
4
 74
0
 40
0
 40
0
 40
0
 40
0
 40
1
 40
1
 40
1
 40
1
 10
214.933022
 20
-7.839080
 30
0.0
 10
215.090922
 20
-7.839097
 30
0.0
 10
215.242360
 20
-7.776382
 30
0.0
 10
215.354017
 20
-7.664735
 30
0.0
  0
SPLINE
  5
107
100
AcDbEntity
  8
0
 62
7
100
AcDbSpline
 70
8
 71
3
 72
8
 73
4
 74
0
 40
0
 40
0
 40
0
 40
0
 40
1
 40
1
 40
1
 40
1
 10
215.354017
 20
-7.664735
 30
0.0
 10
215.465674
 20
-7.553088
 30
0.0
 10
215.528401
 20
-7.401655
 30
0.0
 10
215.528398
 20
-7.243755
 30
0.0
  0
SPLINE
  5
108
100
AcDbEntity
  8
0
 62
7
100
AcDbSpline
 70
8
 71
3
 72
8
 73
4
 74
0
 40
0
 40
0
 40
0
 40
0
 40
1
 40
1
 40
1
 40
1
 10
233.983022
 20
-34.032779
 30
0.0
 10
234.311754
 20
-34.032814
 30
0.0
 10
234.578293
 20
-33.766390
 30
0.0
 10
234.578398
 20
-33.437657
 30
0.0
  0
SPLINE
  5
109
100
AcDbEntity
  8
0
 62
7
100
AcDbSpline
 70
8
 71
3
 72
8
 73
4
 74
0
 40
0
 40
0
 40
0
 40
0
 40
1
 40
1
 40
1
 40
1
 10
213.147148
 20
-34.032779
 30
0.0
 10
212.989239
 20
-34.032762
 30
0.0
 10
212.837793
 20
-34.095484
 30
0.0
 10
212.726135
 20
-34.207142
 30
0.0
  0
SPLINE
  5
10a
100
AcDbEntity
  8
0
 62
7
100
AcDbSpline
 70
8
 71
3
 72
8
 73
4
 74
0
 40
0
 40
0
 40
0
 40
0
 40
1
 40
1
 40
1
 40
1
 10
212.726135
 20
-34.207142
 30
0.0
 10
212.614477
 20
-34.318801
 30
0.0
 10
212.551755
 20
-34.470247
 30
0.0
 10
212.551772
 20
-34.628155
 30
0.0
  0
LWPOLYLINE
  5
10b
100
AcDbEntity
  8
0
 62
7
100
AcDbPolyline
 90
2
 70
0
 10
215.526620
 20
-4.266265
 30
0.0
 10
215.526620
 20
-7.243145
 30
0.0
  0
LWPOLYLINE
  5
10c
100
AcDbEntity
  8
0
 62
7
100
AcDbPolyline
 90
2
 70
0
 10
212.549740
 20
-34.626885
 30
0.0
 10
212.549740
 20
-81.657525
 30
0.0
  0
LWPOLYLINE
  5
10d
100
AcDbEntity
  8
0
 62
7
100
AcDbPolyline
 90
2
 70
0
 10
233.982260
 20
-34.032525
 30
0.0
 10
213.146640
 20
-34.032525
 30
0.0
  0
SPLINE
  5
10e
100
AcDbEntity
  8
0
 62
7
100
AcDbSpline
 70
8
 71
3
 72
8
 73
4
 74
0
 40
0
 40
0
 40
0
 40
0
 40
1
 40
1
 40
1
 40
1
 10
234.578398
 20
-3.671880
 30
0.0
 10
234.578395
 20
-3.513984
 30
0.0
 10
234.515664
 20
-3.362558
 30
0.0
 10
234.404008
 20
-3.250916
 30
0.0
  0
SPLINE
  5
10f
100
AcDbEntity
  8
0
 62
7
100
AcDbSpline
 70
8
 71
3
 72
8
 73
4
 74
0
 40
0
 40
0
 40
0
 40
0
 40
1
 40
1
 40
1
 40
1
 10
234.404008
 20
-3.250916
 30
0.0
 10
234.292352
 20
-3.139274
 30
0.0
 10
234.140917
 20
-3.076563
 30
0.0
 10
233.983022
 20
-3.076580
 30
0.0
  0
LWPOLYLINE
  5
110
100
AcDbEntity
  8
0
 62
7
100
AcDbPolyline
 90
2
 70
0
 10
234.576620
 20
-3.669365
 30
0.0
 10
234.576620
 20
-33.435625
 30
0.0
  0
SPLINE
  5
111
100
AcDbEntity
  8
0
 62
7
100
AcDbSpline
 70
8
 71
3
 72
8
 73
4
 74
0
 40
0
 40
0
 40
0
 40
0
 40
1
 40
1
 40
1
 40
1
 10
216.123520
 20
-3.076580
 30
0.0
 10
215.794817
 20
-3.076685
 30
0.0
 10
215.528405
 20
-3.343177
 30
0.0
 10
215.528398
 20
-3.671880
 30
0.0
  0
LWPOLYLINE
  5
112
100
AcDbEntity
  8
0
 62
7
100
AcDbPolyline
 90
2
 70
0
 10
216.123520
 20
-3.075005
 30
0.0
 10
233.982260
 20
-3.075005
 30
0.0
  0
LWPOLYLINE
  5
113
100
AcDbEntity
  8
0
 62
7
100
AcDbPolyline
 90
2
 70
0
 10
215.526620
 20
-4.266265
 30
0.0
 10
215.526620
 20
-3.669365
 30
0.0
  0
SPLINE
  5
114
100
AcDbEntity
  8
0
 62
7
100
AcDbSpline
 70
8
 71
3
 72
8
 73
4
 74
0
 40
0
 40
0
 40
0
 40
0
 40
1
 40
1
 40
1
 40
1
 10
237.554770
 20
-87.611031
 30
0.0
 10
238.186360
 20
-87.611096
 30
0.0
 10
238.792104
 20
-87.360244
 30
0.0
 10
239.238729
 20
-86.913666
 30
0.0
  0
SPLINE
  5
115
100
AcDbEntity
  8
0
 62
7
100
AcDbSpline
 70
8
 71
3
 72
8
 73
4
 74
0
 40
0
 40
0
 40
0
 40
0
 40
1
 40
1
 40
1
 40
1
 10
239.238729
 20
-86.913666
 30
0.0
 10
239.685355
 20
-86.467088
 30
0.0
 10
239.936271
 20
-85.861371
 30
0.0
 10
239.936274
 20
-85.229781
 30
0.0
  0
SPLINE
  5
116
100
AcDbEntity
  8
0
 62
7
100
AcDbSpline
 70
8
 71
3
 72
8
 73
4
 74
0
 40
0
 40
0
 40
0
 40
0
 40
1
 40
1
 40
1
 40
1
 10
2.406261
 20
0.495310
 30
0.0
 10
1.774711
 20
0.495310
 30
0.0
 10
1.169027
 20
0.244428
 30
0.0
 10
0.722454
 20
-0.202147
 30
0.0
  0
SPLINE
  5
117
100
AcDbEntity
  8
0
 62
7
100
AcDbSpline
 70
8
 71
3
 72
8
 73
4
 74
0
 40
0
 40
0
 40
0
 40
0
 40
1
 40
1
 40
1
 40
1
 10
0.722454
 20
-0.202147
 30
0.0
 10
0.275881
 20
-0.648721
 30
0.0
 10
0.025000
 20
-1.254405
 30
0.0
 10
0.025001
 20
-1.885955
 30
0.0
  0
SPLINE
  5
118
100
AcDbEntity
  8
0
 62
7
100
AcDbSpline
 70
8
 71
3
 72
8
 73
4
 74
0
 40
0
 40
0
 40
0
 40
0
 40
1
 40
1
 40
1
 40
1
 10
110.753144
 20
-83.634405
 30
0.0
 10
110.348682
 20
-83.634405
 30
0.0
 10
109.984045
 20
-83.878047
 30
0.0
 10
109.829264
 20
-84.251722
 30
0.0
  0
SPLINE
  5
119
100
AcDbEntity
  8
0
 62
7
100
AcDbSpline
 70
8
 71
3
 72
8
 73
4
 74
0
 40
0
 40
0
 40
0
 40
0
 40
1
 40
1
 40
1
 40
1
 10
109.829264
 20
-84.251722
 30
0.0
 10
109.674483
 20
-84.625396
 30
0.0
 10
109.760039
 20
-85.055514
 30
0.0
 10
110.046037
 20
-85.341512
 30
0.0
  0
SPLINE
  5
11a
100
AcDbEntity
  8
0
 62
7
100
AcDbSpline
 70
8
 71
3
 72
8
 73
4
 74
0
 40
0
 40
0
 40
0
 40
0
 40
1
 40
1
 40
1
 40
1
 10
110.046037
 20
-85.341512
 30
0.0
 10
110.332035
 20
-85.627511
 30
0.0
 10
110.762153
 20
-85.713066
 30
0.0
 10
111.135828
 20
-85.558285
 30
0.0
  0
SPLINE
  5
11b
100
AcDbEntity
  8
0
 62
7
100
AcDbSpline
 70
8
 71
3
 72
8
 73
4
 74
0
 40
0
 40
0
 40
0
 40
0
 40
1
 40
1
 40
1
 40
1
 10
111.135828
 20
-85.558285
 30
0.0
 10
111.509502
 20
-85.403504
 30
0.0
 10
111.753145
 20
-85.038868
 30
0.0
 10
111.753145
 20
-84.634405
 30
0.0
  0
SPLINE
  5
11c
100
AcDbEntity
  8
0
 62
7
100
AcDbSpline
 70
8
 71
3
 72
8
 73
4
 74
0
 40
0
 40
0
 40
0
 40
0
 40
1
 40
1
 40
1
 40
1
 10
111.753145
 20
-84.634405
 30
0.0
 10
111.753145
 20
-84.369189
 30
0.0
 10
111.647788
 20
-84.114835
 30
0.0
 10
111.460251
 20
-83.927298
 30
0.0
  0
SPLINE
  5
11d
100
AcDbEntity
  8
0
 62
7
100
AcDbSpline
 70
8
 71
3
 72
8
 73
4
 74
0
 40
0
 40
0
 40
0
 40
0
 40
1
 40
1
 40
1
 40
1
 10
111.460251
 20
-83.927298
 30
0.0
 10
111.272715
 20
-83.739762
 30
0.0
 10
111.018361
 20
-83.634405
 30
0.0
 10
110.753144
 20
-83.634405
 30
0.0
  0
LWPOLYLINE
  5
11e
100
AcDbEntity
  8
0
 62
7
100
AcDbPolyline
 90
2
 70
0
 10
8.359140
 20
-7.837505
 30
0.0
 10
214.932260
 20
-7.837505
 30
0.0
  0
LWPOLYLINE
  5
11f
100
AcDbEntity
  8
0
 62
7
100
AcDbPolyline
 90
1
 70
1
 10
110.753144
 20
-83.634405
 30
0.0
  0
SPLINE
  5
120
100
AcDbEntity
  8
0
 62
7
100
AcDbSpline
 70
8
 71
3
 72
8
 73
4
 74
0
 40
0
 40
0
 40
0
 40
0
 40
1
 40
1
 40
1
 40
1
 10
236.959648
 20
-83.634405
 30
0.0
 10
236.555186
 20
-83.634405
 30
0.0
 10
236.190549
 20
-83.878047
 30
0.0
 10
236.035768
 20
-84.251722
 30
0.0
  0
SPLINE
  5
121
100
AcDbEntity
  8
0
 62
7
100
AcDbSpline
 70
8
 71
3
 72
8
 73
4
 74
0
 40
0
 40
0
 40
0
 40
0
 40
1
 40
1
 40
1
 40
1
 10
236.035768
 20
-84.251722
 30
0.0
 10
235.880987
 20
-84.625396
 30
0.0
 10
235.966543
 20
-85.055514
 30
0.0
 10
236.252541
 20
-85.341512
 30
0.0
  0
SPLINE
  5
122
100
AcDbEntity
  8
0
 62
7
100
AcDbSpline
 70
8
 71
3
 72
8
 73
4
 74
0
 40
0
 40
0
 40
0
 40
0
 40
1
 40
1
 40
1
 40
1
 10
236.252541
 20
-85.341512
 30
0.0
 10
236.538539
 20
-85.627511
 30
0.0
 10
236.968657
 20
-85.713066
 30
0.0
 10
237.342332
 20
-85.558285
 30
0.0
  0
SPLINE
  5
123
100
AcDbEntity
  8
0
 62
7
100
AcDbSpline
 70
8
 71
3
 72
8
 73
4
 74
0
 40
0
 40
0
 40
0
 40
0
 40
1
 40
1
 40
1
 40
1
 10
237.342332
 20
-85.558285
 30
0.0
 10
237.716006
 20
-85.403504
 30
0.0
 10
237.959649
 20
-85.038868
 30
0.0
 10
237.959649
 20
-84.634405
 30
0.0
  0
SPLINE
  5
124
100
AcDbEntity
  8
0
 62
7
100
AcDbSpline
 70
8
 71
3
 72
8
 73
4
 74
0
 40
0
 40
0
 40
0
 40
0
 40
1
 40
1
 40
1
 40
1
 10
237.959649
 20
-84.634405
 30
0.0
 10
237.959649
 20
-84.369189
 30
0.0
 10
237.854292
 20
-84.114835
 30
0.0
 10
237.666755
 20
-83.927298
 30
0.0
  0
SPLINE
  5
125
100
AcDbEntity
  8
0
 62
7
100
AcDbSpline
 70
8
 71
3
 72
8
 73
4
 74
0
 40
0
 40
0
 40
0
 40
0
 40
1
 40
1
 40
1
 40
1
 10
237.666755
 20
-83.927298
 30
0.0
 10
237.479219
 20
-83.739762
 30
0.0
 10
237.224865
 20
-83.634405
 30
0.0
 10
236.959648
 20
-83.634405
 30
0.0
  0
LWPOLYLINE
  5
126
100
AcDbEntity
  8
0
 62
7
100
AcDbPolyline
 90
2
 70
0
 10
239.936020
 20
-85.228765
 30
0.0
 10
239.936020
 20
-1.883745
 30
0.0
  0
LWPOLYLINE
  5
127
100
AcDbEntity
  8
0
 62
7
100
AcDbPolyline
 90
1
 70
1
 10
236.959648
 20
-83.634405
 30
0.0
  0
SPLINE
  5
128
100
AcDbEntity
  8
0
 62
7
100
AcDbSpline
 70
8
 71
3
 72
8
 73
4
 74
0
 40
0
 40
0
 40
0
 40
0
 40
1
 40
1
 40
1
 40
1
 10
3.001569
 20
-83.634405
 30
0.0
 10
2.597106
 20
-83.634405
 30
0.0
 10
2.232470
 20
-83.878047
 30
0.0
 10
2.077689
 20
-84.251722
 30
0.0
  0
SPLINE
  5
129
100
AcDbEntity
  8
0
 62
7
100
AcDbSpline
 70
8
 71
3
 72
8
 73
4
 74
0
 40
0
 40
0
 40
0
 40
0
 40
1
 40
1
 40
1
 40
1
 10
2.077689
 20
-84.251722
 30
0.0
 10
1.922908
 20
-84.625396
 30
0.0
 10
2.008463
 20
-85.055514
 30
0.0
 10
2.294462
 20
-85.341512
 30
0.0
  0
SPLINE
  5
12a
100
AcDbEntity
  8
0
 62
7
100
AcDbSpline
 70
8
 71
3
 72
8
 73
4
 74
0
 40
0
 40
0
 40
0
 40
0
 40
1
 40
1
 40
1
 40
1
 10
2.294462
 20
-85.341512
 30
0.0
 10
2.580460
 20
-85.627511
 30
0.0
 10
3.010578
 20
-85.713066
 30
0.0
 10
3.384252
 20
-85.558285
 30
0.0
  0
SPLINE
  5
12b
100
AcDbEntity
  8
0
 62
7
100
AcDbSpline
 70
8
 71
3
 72
8
 73
4
 74
0
 40
0
 40
0
 40
0
 40
0
 40
1
 40
1
 40
1
 40
1
 10
3.384252
 20
-85.558285
 30
0.0
 10
3.757927
 20
-85.403504
 30
0.0
 10
4.001569
 20
-85.038868
 30
0.0
 10
4.001569
 20
-84.634405
 30
0.0
  0
SPLINE
  5
12c
100
AcDbEntity
  8
0
 62
7
100
AcDbSpline
 70
8
 71
3
 72
8
 73
4
 74
0
 40
0
 40
0
 40
0
 40
0
 40
1
 40
1
 40
1
 40
1
 10
4.001569
 20
-84.634405
 30
0.0
 10
4.001569
 20
-84.369189
 30
0.0
 10
3.896212
 20
-84.114835
 30
0.0
 10
3.708676
 20
-83.927298
 30
0.0
  0
SPLINE
  5
12d
100
AcDbEntity
  8
0
 62
7
100
AcDbSpline
 70
8
 71
3
 72
8
 73
4
 74
0
 40
0
 40
0
 40
0
 40
0
 40
1
 40
1
 40
1
 40
1
 10
3.708676
 20
-83.927298
 30
0.0
 10
3.521139
 20
-83.739762
 30
0.0
 10
3.266785
 20
-83.634405
 30
0.0
 10
3.001569
 20
-83.634405
 30
0.0
  0
LWPOLYLINE
  5
12e
100
AcDbEntity
  8
0
 62
7
100
AcDbPolyline
 90
2
 70
0
 10
7.762240
 20
-8.431865
 30
0.0
 10
7.762240
 20
-81.657525
 30
0.0
  0
LWPOLYLINE
  5
12f
100
AcDbEntity
  8
0
 62
7
100
AcDbPolyline
 90
1
 70
1
 10
3.001569
 20
-83.634405
 30
0.0
  0
LWPOLYLINE
  5
130
100
AcDbEntity
  8
0
 62
7
100
AcDbPolyline
 90
2
 70
0
 10
0.022860
 20
-1.883745
 30
0.0
 10
0.022860
 20
-85.228765
 30
0.0
  0
SPLINE
  5
131
100
AcDbEntity
  8
0
 62
7
100
AcDbSpline
 70
8
 71
3
 72
8
 73
4
 74
0
 40
0
 40
0
 40
0
 40
0
 40
1
 40
1
 40
1
 40
1
 10
3.001569
 20
-1.481254
 30
0.0
 10
2.597106
 20
-1.481254
 30
0.0
 10
2.232470
 20
-1.724897
 30
0.0
 10
2.077689
 20
-2.098571
 30
0.0
  0
SPLINE
  5
132
100
AcDbEntity
  8
0
 62
7
100
AcDbSpline
 70
8
 71
3
 72
8
 73
4
 74
0
 40
0
 40
0
 40
0
 40
0
 40
1
 40
1
 40
1
 40
1
 10
2.077689
 20
-2.098571
 30
0.0
 10
1.922908
 20
-2.472246
 30
0.0
 10
2.008463
 20
-2.902364
 30
0.0
 10
2.294462
 20
-3.188362
 30
0.0
  0
SPLINE
  5
133
100
AcDbEntity
  8
0
 62
7
100
AcDbSpline
 70
8
 71
3
 72
8
 73
4
 74
0
 40
0
 40
0
 40
0
 40
0
 40
1
 40
1
 40
1
 40
1
 10
2.294462
 20
-3.188362
 30
0.0
 10
2.580460
 20
-3.474360
 30
0.0
 10
3.010578
 20
-3.559916
 30
0.0
 10
3.384252
 20
-3.405135
 30
0.0
  0
SPLINE
  5
134
100
AcDbEntity
  8
0
 62
7
100
AcDbSpline
 70
8
 71
3
 72
8
 73
4
 74
0
 40
0
 40
0
 40
0
 40
0
 40
1
 40
1
 40
1
 40
1
 10
3.384252
 20
-3.405135
 30
0.0
 10
3.757927
 20
-3.250354
 30
0.0
 10
4.001569
 20
-2.885717
 30
0.0
 10
4.001569
 20
-2.481255
 30
0.0
  0
SPLINE
  5
135
100
AcDbEntity
  8
0
 62
7
100
AcDbSpline
 70
8
 71
3
 72
8
 73
4
 74
0
 40
0
 40
0
 40
0
 40
0
 40
1
 40
1
 40
1
 40
1
 10
4.001569
 20
-2.481255
 30
0.0
 10
4.001569
 20
-2.216038
 30
0.0
 10
3.896212
 20
-1.961684
 30
0.0
 10
3.708676
 20
-1.774148
 30
0.0
  0
SPLINE
  5
136
100
AcDbEntity
  8
0
 62
7
100
AcDbSpline
 70
8
 71
3
 72
8
 73
4
 74
0
 40
0
 40
0
 40
0
 40
0
 40
1
 40
1
 40
1
 40
1
 10
3.708676
 20
-1.774148
 30
0.0
 10
3.521139
 20
-1.586611
 30
0.0
 10
3.266785
 20
-1.481254
 30
0.0
 10
3.001569
 20
-1.481254
 30
0.0
  0
LWPOLYLINE
  5
137
100
AcDbEntity
  8
0
 62
7
100
AcDbPolyline
 90
2
 70
0
 10
2.405380
 20
-87.608745
 30
0.0
 10
237.553500
 20
-87.608745
 30
0.0
  0
SPLINE
  5
138
100
AcDbEntity
  8
0
 62
7
100
AcDbSpline
 70
8
 71
3
 72
8
 73
4
 74
0
 40
0
 40
0
 40
0
 40
0
 40
1
 40
1
 40
1
 40
1
 10
212.551772
 20
-1.481254
 30
0.0
 10
211.999487
 20
-1.481254
 30
0.0
 10
211.551771
 20
-1.928970
 30
0.0
 10
211.551771
 20
-2.481255
 30
0.0
  0
SPLINE
  5
139
100
AcDbEntity
  8
0
 62
7
100
AcDbSpline
 70
8
 71
3
 72
8
 73
4
 74
0
 40
0
 40
0
 40
0
 40
0
 40
1
 40
1
 40
1
 40
1
 10
211.551771
 20
-2.481255
 30
0.0
 10
211.551771
 20
-3.033540
 30
0.0
 10
211.999487
 20
-3.481255
 30
0.0
 10
212.551772
 20
-3.481255
 30
0.0
  0
SPLINE
  5
13a
100
AcDbEntity
  8
0
 62
7
100
AcDbSpline
 70
8
 71
3
 72
8
 73
4
 74
0
 40
0
 40
0
 40
0
 40
0
 40
1
 40
1
 40
1
 40
1
 10
212.551772
 20
-3.481255
 30
0.0
 10
213.104057
 20
-3.481255
 30
0.0
 10
213.551773
 20
-3.033540
 30
0.0
 10
213.551773
 20
-2.481255
 30
0.0
  0
SPLINE
  5
13b
100
AcDbEntity
  8
0
 62
7
100
AcDbSpline
 70
8
 71
3
 72
8
 73
4
 74
0
 40
0
 40
0
 40
0
 40
0
 40
1
 40
1
 40
1
 40
1
 10
213.551773
 20
-2.481255
 30
0.0
 10
213.551773
 20
-2.216038
 30
0.0
 10
213.446416
 20
-1.961684
 30
0.0
 10
213.258879
 20
-1.774148
 30
0.0
  0
SPLINE
  5
13c
100
AcDbEntity
  8
0
 62
7
100
AcDbSpline
 70
8
 71
3
 72
8
 73
4
 74
0
 40
0
 40
0
 40
0
 40
0
 40
1
 40
1
 40
1
 40
1
 10
213.258879
 20
-1.774148
 30
0.0
 10
213.071343
 20
-1.586611
 30
0.0
 10
212.816989
 20
-1.481254
 30
0.0
 10
212.551772
 20
-1.481254
 30
0.0
  0
LWPOLYLINE
  5
13d
100
AcDbEntity
  8
0
 62
7
100
AcDbPolyline
 90
1
 70
1
 10
3.001569
 20
-1.481254
 30
0.0
  0
LWPOLYLINE
  5
13e
100
AcDbEntity
  8
0
 62
7
100
AcDbPolyline
 90
1
 70
1
 10
212.551772
 20
-1.481254
 30
0.0
  0
SPLINE
  5
13f
100
AcDbEntity
  8
0
 62
7
100
AcDbSpline
 70
8
 71
3
 72
8
 73
4
 74
0
 40
0
 40
0
 40
0
 40
0
 40
1
 40
1
 40
1
 40
1
 10
0.025009
 20
-85.229781
 30
0.0
 10
0.025015
 20
-86.544911
 30
0.0
 10
1.091139
 20
-87.611031
 30
0.0
 10
2.406269
 20
-87.611031
 30
0.0
  0
SPLINE
  5
140
100
AcDbEntity
  8
0
 62
7
100
AcDbSpline
 70
8
 71
3
 72
8
 73
4
 74
0
 40
0
 40
0
 40
0
 40
0
 40
1
 40
1
 40
1
 40
1
 10
239.936274
 20
-1.885955
 30
0.0
 10
239.936275
 20
-1.254362
 30
0.0
 10
239.685360
 20
-0.648641
 30
0.0
 10
239.238735
 20
-0.202060
 30
0.0
  0
SPLINE
  5
141
100
AcDbEntity
  8
0
 62
7
100
AcDbSpline
 70
8
 71
3
 72
8
 73
4
 74
0
 40
0
 40
0
 40
0
 40
0
 40
1
 40
1
 40
1
 40
1
 10
239.238735
 20
-0.202060
 30
0.0
 10
238.792109
 20
0.244521
 30
0.0
 10
238.186363
 20
0.495375
 30
0.0
 10
237.554770
 20
0.495310
 30
0.0
  0
SPLINE
  5
142
100
AcDbEntity
  8
0
 62
7
100
AcDbSpline
 70
8
 71
3
 72
8
 73
4
 74
0
 40
0
 40
0
 40
0
 40
0
 40
1
 40
1
 40
1
 40
1
 10
236.959648
 20
-1.481254
 30
0.0
 10
236.555186
 20
-1.481254
 30
0.0
 10
236.190549
 20
-1.724897
 30
0.0
 10
236.035768
 20
-2.098571
 30
0.0
  0
SPLINE
  5
143
100
AcDbEntity
  8
0
 62
7
100
AcDbSpline
 70
8
 71
3
 72
8
 73
4
 74
0
 40
0
 40
0
 40
0
 40
0
 40
1
 40
1
 40
1
 40
1
 10
236.035768
 20
-2.098571
 30
0.0
 10
235.880987
 20
-2.472246
 30
0.0
 10
235.966543
 20
-2.902364
 30
0.0
 10
236.252541
 20
-3.188362
 30
0.0
  0
SPLINE
  5
144
100
AcDbEntity
  8
0
 62
7
100
AcDbSpline
 70
8
 71
3
 72
8
 73
4
 74
0
 40
0
 40
0
 40
0
 40
0
 40
1
 40
1
 40
1
 40
1
 10
236.252541
 20
-3.188362
 30
0.0
 10
236.538539
 20
-3.474360
 30
0.0
 10
236.968657
 20
-3.559916
 30
0.0
 10
237.342332
 20
-3.405135
 30
0.0
  0
SPLINE
  5
145
100
AcDbEntity
  8
0
 62
7
100
AcDbSpline
 70
8
 71
3
 72
8
 73
4
 74
0
 40
0
 40
0
 40
0
 40
0
 40
1
 40
1
 40
1
 40
1
 10
237.342332
 20
-3.405135
 30
0.0
 10
237.716006
 20
-3.250354
 30
0.0
 10
237.959649
 20
-2.885717
 30
0.0
 10
237.959649
 20
-2.481255
 30
0.0
  0
SPLINE
  5
146
100
AcDbEntity
  8
0
 62
7
100
AcDbSpline
 70
8
 71
3
 72
8
 73
4
 74
0
 40
0
 40
0
 40
0
 40
0
 40
1
 40
1
 40
1
 40
1
 10
237.959649
 20
-2.481255
 30
0.0
 10
237.959649
 20
-2.216038
 30
0.0
 10
237.854292
 20
-1.961684
 30
0.0
 10
237.666755
 20
-1.774148
 30
0.0
  0
SPLINE
  5
147
100
AcDbEntity
  8
0
 62
7
100
AcDbSpline
 70
8
 71
3
 72
8
 73
4
 74
0
 40
0
 40
0
 40
0
 40
0
 40
1
 40
1
 40
1
 40
1
 10
237.666755
 20
-1.774148
 30
0.0
 10
237.479219
 20
-1.586611
 30
0.0
 10
237.224865
 20
-1.481254
 30
0.0
 10
236.959648
 20
-1.481254
 30
0.0
  0
LWPOLYLINE
  5
148
100
AcDbEntity
  8
0
 62
7
100
AcDbPolyline
 90
2
 70
0
 10
8.359140
 20
-82.251885
 30
0.0
 10
211.955380
 20
-82.251885
 30
0.0
  0
LWPOLYLINE
  5
149
100
AcDbEntity
  8
0
 62
7
100
AcDbPolyline
 90
1
 70
1
 10
236.959648
 20
-1.481254
 30
0.0
  0
SPLINE
  5
14a
100
AcDbEntity
  8
0
 62
7
100
AcDbSpline
 70
8
 71
3
 72
8
 73
4
 74
0
 40
0
 40
0
 40
0
 40
0
 40
1
 40
1
 40
1
 40
1
 10
110.753144
 20
-1.481254
 30
0.0
 10
110.348682
 20
-1.481254
 30
0.0
 10
109.984045
 20
-1.724897
 30
0.0
 10
109.829264
 20
-2.098571
 30
0.0
  0
SPLINE
  5
14b
100
AcDbEntity
  8
0
 62
7
100
AcDbSpline
 70
8
 71
3
 72
8
 73
4
 74
0
 40
0
 40
0
 40
0
 40
0
 40
1
 40
1
 40
1
 40
1
 10
109.829264
 20
-2.098571
 30
0.0
 10
109.674483
 20
-2.472246
 30
0.0
 10
109.760039
 20
-2.902364
 30
0.0
 10
110.046037
 20
-3.188362
 30
0.0
  0
SPLINE
  5
14c
100
AcDbEntity
  8
0
 62
7
100
AcDbSpline
 70
8
 71
3
 72
8
 73
4
 74
0
 40
0
 40
0
 40
0
 40
0
 40
1
 40
1
 40
1
 40
1
 10
110.046037
 20
-3.188362
 30
0.0
 10
110.332035
 20
-3.474360
 30
0.0
 10
110.762153
 20
-3.559916
 30
0.0
 10
111.135828
 20
-3.405135
 30
0.0
  0
SPLINE
  5
14d
100
AcDbEntity
  8
0
 62
7
100
AcDbSpline
 70
8
 71
3
 72
8
 73
4
 74
0
 40
0
 40
0
 40
0
 40
0
 40
1
 40
1
 40
1
 40
1
 10
111.135828
 20
-3.405135
 30
0.0
 10
111.509502
 20
-3.250354
 30
0.0
 10
111.753145
 20
-2.885717
 30
0.0
 10
111.753145
 20
-2.481255
 30
0.0
  0
SPLINE
  5
14e
100
AcDbEntity
  8
0
 62
7
100
AcDbSpline
 70
8
 71
3
 72
8
 73
4
 74
0
 40
0
 40
0
 40
0
 40
0
 40
1
 40
1
 40
1
 40
1
 10
111.753145
 20
-2.481255
 30
0.0
 10
111.753145
 20
-2.216038
 30
0.0
 10
111.647788
 20
-1.961684
 30
0.0
 10
111.460251
 20
-1.774148
 30
0.0
  0
SPLINE
  5
14f
100
AcDbEntity
  8
0
 62
7
100
AcDbSpline
 70
8
 71
3
 72
8
 73
4
 74
0
 40
0
 40
0
 40
0
 40
0
 40
1
 40
1
 40
1
 40
1
 10
111.460251
 20
-1.774148
 30
0.0
 10
111.272715
 20
-1.586611
 30
0.0
 10
111.018361
 20
-1.481254
 30
0.0
 10
110.753144
 20
-1.481254
 30
0.0
  0
LWPOLYLINE
  5
150
100
AcDbEntity
  8
0
 62
7
100
AcDbPolyline
 90
2
 70
0
 10
237.553500
 20
0.496235
 30
0.0
 10
2.405380
 20
0.496235
 30
0.0
  0
LWPOLYLINE
  5
151
100
AcDbEntity
  8
0
 62
7
100
AcDbPolyline
 90
1
 70
1
 10
110.753144
 20
-1.481254
 30
0.0
  0
ENDSEC
  0
SECTION
  2
OBJECTS
  0
DICTIONARY
  5
C
330
0
100
AcDbDictionary
  3
ACAD_GROUP
350
D
  3
ACAD_MLINESTYLE
350
17
  0
DICTIONARY
  5
D
330
C
100
AcDbDictionary
  0
DICTIONARY
  5
1A
330
C
100
AcDbDictionary
  0
DICTIONARY
  5
17
330
C
100
AcDbDictionary
  3
STANDARD
350
18
  0
DICTIONARY
  5
19
330
C
100
AcDbDictionary
  0
ENDSEC
  0
EOF
