M48
; DRILL file {KiCad (5.1.9)-1} date 08/31/21 12:46:27
; FORMAT={-:-/ absolute / inch / decimal}
; #@! TF.CreationDate,2021-08-31T12:46:27-07:00
; #@! TF.GenerationSoftware,Kicad,Pcbnew,(5.1.9)-1
; #@! TF.FileFunction,Plated,1,2,PTH
FMAT,2
INCH
T1C0.0157
T2C0.0394
T3C0.0430
T4C0.0579
%
G90
G05
T1
X2.1067Y-3.1067
X3.494Y-2.5373
X4.2563Y-2.5193
X5.0063Y-2.5016
X5.7563Y-2.4839
X6.5063Y-2.4662
X7.2563Y-2.4524
X8.0063Y-2.4662
X8.8943Y-2.4679
T2
X1.2656Y-3.5496
X1.2656Y-3.8567
X1.3125Y-2.7996
X1.3125Y-3.1067
X2.0156Y-3.5496
X2.0156Y-3.8567
X2.3438Y-1.2996
X2.3438Y-1.6067
X2.4844Y-2.0496
X2.4844Y-2.3567
X2.5781Y-2.0496
X2.5781Y-2.3567
X2.8594Y-2.7996
X2.8594Y-3.1067
X2.9531Y-2.7996
X2.9531Y-3.1067
X3.0938Y-1.2996
X3.0938Y-1.6067
X3.2813Y-2.0496
X3.2813Y-2.3567
X3.6563Y-2.7996
X3.6563Y-3.1067
X3.8438Y-1.2996
X3.8438Y-1.6067
X3.8906Y-3.5496
X3.8906Y-3.8567
X4.0313Y-2.0496
X4.0313Y-2.3567
X4.2527Y-3.4219
X4.4063Y-2.7996
X4.4063Y-3.1067
X4.5598Y-3.4219
X4.5938Y-1.2996
X4.5938Y-1.6067
X4.7813Y-2.0496
X4.7813Y-2.3567
X5.1563Y-2.7996
X5.1563Y-3.1067
X5.3438Y-1.2996
X5.3438Y-1.6067
X5.5313Y-2.0496
X5.5313Y-2.3567
X5.9063Y-2.7996
X5.9063Y-3.1067
X6.0938Y-1.2996
X6.0938Y-1.6067
X6.2215Y-3.4219
X6.2813Y-2.0496
X6.2813Y-2.3567
X6.5286Y-3.4219
X6.6563Y-2.7996
X6.6563Y-3.1067
X6.7969Y-3.5496
X6.7969Y-3.8567
X6.8438Y-1.2996
X6.8438Y-1.6067
X7.0313Y-2.0496
X7.0313Y-2.3567
X7.4063Y-2.7996
X7.4063Y-3.1067
X7.5938Y-1.2996
X7.5938Y-1.6067
X7.7813Y-2.0496
X7.7813Y-2.3567
X8.2969Y-1.2996
X8.2969Y-1.6067
X8.3907Y-1.2996
X8.3907Y-1.6067
X8.6719Y-3.5496
X8.6719Y-3.8567
X9.1875Y-2.7996
X9.1875Y-3.1067
X9.375Y-1.8621
X9.375Y-2.1692
X9.4219Y-3.5496
X9.4219Y-3.8567
T3
X1.4813Y-1.2781
X1.4813Y-1.3781
X1.4813Y-1.4781
X1.4813Y-1.5781
X1.4813Y-1.6781
X1.4813Y-1.7781
X1.4813Y-1.8781
X1.4813Y-1.9781
X1.4813Y-2.0781
X1.4813Y-2.1781
X1.4813Y-2.2781
X1.4813Y-2.3781
X2.0813Y-1.2781
X2.0813Y-1.3781
X2.0813Y-1.4781
X2.0813Y-1.5781
X2.0813Y-1.6781
X2.0813Y-1.7781
X2.0813Y-1.8781
X2.0813Y-1.9781
X2.0813Y-2.0781
X2.0813Y-2.1781
X2.0813Y-2.2781
X2.0813Y-2.3781
T4
X1.4438Y-3.65
X1.5375Y-2.9
X1.5375Y-3.65
X1.6313Y-1.4
X1.6938Y-3.55
X1.725Y-2.15
X1.7875Y-2.8
X1.7875Y-3.55
X1.8813Y-1.3
X1.9125Y-2.9
X1.975Y-2.05
X2.1625Y-2.8
X2.1938Y-3.65
X2.3813Y-2.9
X2.4438Y-3.55
X2.475Y-3.65
X2.5688Y-1.4
X2.6313Y-2.8
X2.725Y-3.55
X2.7563Y-2.15
X2.8188Y-1.3
X3.0063Y-2.05
X3.1313Y-2.9
X3.3188Y-1.4
X3.3813Y-2.8
X3.4125Y-3.65
X3.5063Y-2.15
X3.5688Y-1.3
X3.6625Y-3.55
X3.7563Y-2.05
X3.8813Y-2.9
X4.0688Y-1.4
X4.0688Y-3.65
X4.1313Y-2.8
X4.2563Y-2.15
X4.3188Y-1.3
X4.3188Y-3.55
X4.5063Y-2.05
X4.5375Y-3.65
X4.6313Y-2.9
X4.7875Y-3.55
X4.8188Y-1.4
X4.8813Y-2.8
X5.0063Y-2.15
X5.0688Y-1.3
X5.1938Y-3.65
X5.1938Y-3.65
X5.2563Y-2.05
X5.3813Y-2.9
X5.4438Y-3.55
X5.4438Y-3.55
X5.5688Y-1.4
X5.6313Y-2.8
X5.7563Y-2.15
X5.8188Y-1.3
X5.85Y-3.65
X6.0063Y-2.05
X6.1Y-3.55
X6.1313Y-2.9
X6.3188Y-1.4
X6.3188Y-3.65
X6.3813Y-2.8
X6.5063Y-2.15
X6.5688Y-1.3
X6.5688Y-3.55
X6.7563Y-2.05
X6.8813Y-2.9
X6.975Y-3.65
X7.0688Y-1.4
X7.1313Y-2.8
X7.225Y-3.55
X7.2563Y-2.15
X7.3188Y-1.3
X7.5063Y-2.05
X7.6313Y-2.9
X7.8188Y-1.4
X7.8813Y-2.8
X7.9125Y-3.65
X8.0063Y-2.15
X8.0688Y-1.3
X8.1625Y-3.55
X8.1938Y-3.65
X8.2563Y-2.05
X8.2875Y-2.9
X8.4438Y-3.55
X8.475Y-2.15
X8.5375Y-2.8
X8.6625Y-2.9
X8.725Y-2.05
X8.7563Y-1.4
X8.85Y-1.775
X8.85Y-2.15
X8.85Y-3.65
X8.9125Y-2.8
X8.9438Y-3.65
X9.0063Y-1.3
X9.1Y-1.675
X9.1Y-2.05
X9.1Y-3.55
X9.1938Y-3.55
T0
M30
