%TF.GenerationSoftware,KiCad,Pcbnew,(5.1.9)-1*%
%TF.CreationDate,2021-08-31T12:46:26-07:00*%
%TF.ProjectId,warpstone,77617270-7374-46f6-9e65-2e6b69636164,rev?*%
%TF.SameCoordinates,Original*%
%TF.FileFunction,Legend,Bot*%
%TF.FilePolarity,Positive*%
%FSLAX46Y46*%
G04 Gerber Fmt 4.6, Leading zero omitted, Abs format (unit mm)*
G04 Created by KiCad (PCBNEW (5.1.9)-1) date 2021-08-31 12:46:26*
%MOMM*%
%LPD*%
G01*
G04 APERTURE LIST*
%ADD10C,0.200000*%
%ADD11C,0.010000*%
%ADD12C,0.120000*%
%ADD13C,0.150000*%
G04 APERTURE END LIST*
D10*
X179173606Y-101083333D02*
X178506940Y-101083333D01*
X179306940Y-101483333D02*
X178840273Y-100083333D01*
X178373606Y-101483333D01*
X176840273Y-101483333D02*
X176840273Y-100083333D01*
X176373606Y-101083333D01*
X175906940Y-100083333D01*
X175906940Y-101483333D01*
X175040273Y-101483333D02*
X175173606Y-101416666D01*
X175240273Y-101350000D01*
X175306940Y-101216666D01*
X175306940Y-100816666D01*
X175240273Y-100683333D01*
X175173606Y-100616666D01*
X175040273Y-100550000D01*
X174840273Y-100550000D01*
X174706940Y-100616666D01*
X174640273Y-100683333D01*
X174573606Y-100816666D01*
X174573606Y-101216666D01*
X174640273Y-101350000D01*
X174706940Y-101416666D01*
X174840273Y-101483333D01*
X175040273Y-101483333D01*
X173973606Y-100550000D02*
X173973606Y-101483333D01*
X173973606Y-100683333D02*
X173906940Y-100616666D01*
X173773606Y-100550000D01*
X173573606Y-100550000D01*
X173440273Y-100616666D01*
X173373606Y-100750000D01*
X173373606Y-101483333D01*
X172773606Y-101416666D02*
X172640273Y-101483333D01*
X172373606Y-101483333D01*
X172240273Y-101416666D01*
X172173606Y-101283333D01*
X172173606Y-101216666D01*
X172240273Y-101083333D01*
X172373606Y-101016666D01*
X172573606Y-101016666D01*
X172706940Y-100950000D01*
X172773606Y-100816666D01*
X172773606Y-100750000D01*
X172706940Y-100616666D01*
X172573606Y-100550000D01*
X172373606Y-100550000D01*
X172240273Y-100616666D01*
X171773606Y-100550000D02*
X171240273Y-100550000D01*
X171573606Y-100083333D02*
X171573606Y-101283333D01*
X171506940Y-101416666D01*
X171373606Y-101483333D01*
X171240273Y-101483333D01*
X170773606Y-101483333D02*
X170773606Y-100550000D01*
X170773606Y-100816666D02*
X170706940Y-100683333D01*
X170640273Y-100616666D01*
X170506940Y-100550000D01*
X170373606Y-100550000D01*
X169706940Y-101483333D02*
X169840273Y-101416666D01*
X169906940Y-101350000D01*
X169973606Y-101216666D01*
X169973606Y-100816666D01*
X169906940Y-100683333D01*
X169840273Y-100616666D01*
X169706940Y-100550000D01*
X169506940Y-100550000D01*
X169373606Y-100616666D01*
X169306940Y-100683333D01*
X169240273Y-100816666D01*
X169240273Y-101216666D01*
X169306940Y-101350000D01*
X169373606Y-101416666D01*
X169506940Y-101483333D01*
X169706940Y-101483333D01*
X168706940Y-101416666D02*
X168573606Y-101483333D01*
X168306940Y-101483333D01*
X168173606Y-101416666D01*
X168106940Y-101283333D01*
X168106940Y-101216666D01*
X168173606Y-101083333D01*
X168306940Y-101016666D01*
X168506940Y-101016666D01*
X168640273Y-100950000D01*
X168706940Y-100816666D01*
X168706940Y-100750000D01*
X168640273Y-100616666D01*
X168506940Y-100550000D01*
X168306940Y-100550000D01*
X168173606Y-100616666D01*
X167506940Y-101483333D02*
X167506940Y-100550000D01*
X167506940Y-100083333D02*
X167573606Y-100150000D01*
X167506940Y-100216666D01*
X167440273Y-100150000D01*
X167506940Y-100083333D01*
X167506940Y-100216666D01*
X167040273Y-100550000D02*
X166506940Y-100550000D01*
X166840273Y-100083333D02*
X166840273Y-101283333D01*
X166773606Y-101416666D01*
X166640273Y-101483333D01*
X166506940Y-101483333D01*
X166173606Y-100550000D02*
X165840273Y-101483333D01*
X165506940Y-100550000D02*
X165840273Y-101483333D01*
X165973606Y-101816666D01*
X166040273Y-101883333D01*
X166173606Y-101950000D01*
X163706940Y-101483333D02*
X163840273Y-101416666D01*
X163906940Y-101350000D01*
X163973606Y-101216666D01*
X163973606Y-100816666D01*
X163906940Y-100683333D01*
X163840273Y-100616666D01*
X163706940Y-100550000D01*
X163506940Y-100550000D01*
X163373606Y-100616666D01*
X163306940Y-100683333D01*
X163240273Y-100816666D01*
X163240273Y-101216666D01*
X163306940Y-101350000D01*
X163373606Y-101416666D01*
X163506940Y-101483333D01*
X163706940Y-101483333D01*
X162840273Y-100550000D02*
X162306940Y-100550000D01*
X162640273Y-101483333D02*
X162640273Y-100283333D01*
X162573606Y-100150000D01*
X162440273Y-100083333D01*
X162306940Y-100083333D01*
X160173606Y-101483333D02*
X160173606Y-100750000D01*
X160240273Y-100616666D01*
X160373606Y-100550000D01*
X160640273Y-100550000D01*
X160773606Y-100616666D01*
X160173606Y-101416666D02*
X160306940Y-101483333D01*
X160640273Y-101483333D01*
X160773606Y-101416666D01*
X160840273Y-101283333D01*
X160840273Y-101150000D01*
X160773606Y-101016666D01*
X160640273Y-100950000D01*
X160306940Y-100950000D01*
X160173606Y-100883333D01*
X158440273Y-101483333D02*
X158440273Y-100083333D01*
X157640273Y-101483333D02*
X158240273Y-100683333D01*
X157640273Y-100083333D02*
X158440273Y-100883333D01*
X156506940Y-101416666D02*
X156640273Y-101483333D01*
X156906940Y-101483333D01*
X157040273Y-101416666D01*
X157106940Y-101283333D01*
X157106940Y-100750000D01*
X157040273Y-100616666D01*
X156906940Y-100550000D01*
X156640273Y-100550000D01*
X156506940Y-100616666D01*
X156440273Y-100750000D01*
X156440273Y-100883333D01*
X157106940Y-101016666D01*
X155973606Y-100550000D02*
X155640273Y-101483333D01*
X155306940Y-100550000D02*
X155640273Y-101483333D01*
X155773606Y-101816666D01*
X155840273Y-101883333D01*
X155973606Y-101950000D01*
X154773606Y-101483333D02*
X154773606Y-100083333D01*
X154773606Y-100616666D02*
X154640273Y-100550000D01*
X154373606Y-100550000D01*
X154240273Y-100616666D01*
X154173606Y-100683333D01*
X154106940Y-100816666D01*
X154106940Y-101216666D01*
X154173606Y-101350000D01*
X154240273Y-101416666D01*
X154373606Y-101483333D01*
X154640273Y-101483333D01*
X154773606Y-101416666D01*
X153306940Y-101483333D02*
X153440273Y-101416666D01*
X153506940Y-101350000D01*
X153573606Y-101216666D01*
X153573606Y-100816666D01*
X153506940Y-100683333D01*
X153440273Y-100616666D01*
X153306940Y-100550000D01*
X153106940Y-100550000D01*
X152973606Y-100616666D01*
X152906940Y-100683333D01*
X152840273Y-100816666D01*
X152840273Y-101216666D01*
X152906940Y-101350000D01*
X152973606Y-101416666D01*
X153106940Y-101483333D01*
X153306940Y-101483333D01*
X151640273Y-101483333D02*
X151640273Y-100750000D01*
X151706940Y-100616666D01*
X151840273Y-100550000D01*
X152106940Y-100550000D01*
X152240273Y-100616666D01*
X151640273Y-101416666D02*
X151773606Y-101483333D01*
X152106940Y-101483333D01*
X152240273Y-101416666D01*
X152306940Y-101283333D01*
X152306940Y-101150000D01*
X152240273Y-101016666D01*
X152106940Y-100950000D01*
X151773606Y-100950000D01*
X151640273Y-100883333D01*
X150973606Y-101483333D02*
X150973606Y-100550000D01*
X150973606Y-100816666D02*
X150906940Y-100683333D01*
X150840273Y-100616666D01*
X150706940Y-100550000D01*
X150573606Y-100550000D01*
X149506940Y-101483333D02*
X149506940Y-100083333D01*
X149506940Y-101416666D02*
X149640273Y-101483333D01*
X149906940Y-101483333D01*
X150040273Y-101416666D01*
X150106940Y-101350000D01*
X150173606Y-101216666D01*
X150173606Y-100816666D01*
X150106940Y-100683333D01*
X150040273Y-100616666D01*
X149906940Y-100550000D01*
X149640273Y-100550000D01*
X149506940Y-100616666D01*
X171440273Y-103783333D02*
X171440273Y-102383333D01*
X171440273Y-102916666D02*
X171306940Y-102850000D01*
X171040273Y-102850000D01*
X170906940Y-102916666D01*
X170840273Y-102983333D01*
X170773606Y-103116666D01*
X170773606Y-103516666D01*
X170840273Y-103650000D01*
X170906940Y-103716666D01*
X171040273Y-103783333D01*
X171306940Y-103783333D01*
X171440273Y-103716666D01*
X170306940Y-102850000D02*
X169973606Y-103783333D01*
X169640273Y-102850000D02*
X169973606Y-103783333D01*
X170106940Y-104116666D01*
X170173606Y-104183333D01*
X170306940Y-104250000D01*
X169106940Y-103650000D02*
X169040273Y-103716666D01*
X169106940Y-103783333D01*
X169173606Y-103716666D01*
X169106940Y-103650000D01*
X169106940Y-103783333D01*
X169106940Y-102916666D02*
X169040273Y-102983333D01*
X169106940Y-103050000D01*
X169173606Y-102983333D01*
X169106940Y-102916666D01*
X169106940Y-103050000D01*
X167373606Y-103783333D02*
X167373606Y-102383333D01*
X167040273Y-102383333D01*
X166840273Y-102450000D01*
X166706940Y-102583333D01*
X166640273Y-102716666D01*
X166573606Y-102983333D01*
X166573606Y-103183333D01*
X166640273Y-103450000D01*
X166706940Y-103583333D01*
X166840273Y-103716666D01*
X167040273Y-103783333D01*
X167373606Y-103783333D01*
X165973606Y-103783333D02*
X165973606Y-102850000D01*
X165973606Y-103116666D02*
X165906940Y-102983333D01*
X165840273Y-102916666D01*
X165706940Y-102850000D01*
X165573606Y-102850000D01*
X165106940Y-103650000D02*
X165040273Y-103716666D01*
X165106940Y-103783333D01*
X165173606Y-103716666D01*
X165106940Y-103650000D01*
X165106940Y-103783333D01*
X163373606Y-103783333D02*
X163373606Y-102383333D01*
X163373606Y-103050000D02*
X162573606Y-103050000D01*
X162573606Y-103783333D02*
X162573606Y-102383333D01*
X161906940Y-103783333D02*
X161906940Y-102850000D01*
X161906940Y-102383333D02*
X161973606Y-102450000D01*
X161906940Y-102516666D01*
X161840273Y-102450000D01*
X161906940Y-102383333D01*
X161906940Y-102516666D01*
X160640273Y-102850000D02*
X160640273Y-103983333D01*
X160706940Y-104116666D01*
X160773606Y-104183333D01*
X160906940Y-104250000D01*
X161106940Y-104250000D01*
X161240273Y-104183333D01*
X160640273Y-103716666D02*
X160773606Y-103783333D01*
X161040273Y-103783333D01*
X161173606Y-103716666D01*
X161240273Y-103650000D01*
X161306940Y-103516666D01*
X161306940Y-103116666D01*
X161240273Y-102983333D01*
X161173606Y-102916666D01*
X161040273Y-102850000D01*
X160773606Y-102850000D01*
X160640273Y-102916666D01*
X160040273Y-103716666D02*
X159906940Y-103783333D01*
X159640273Y-103783333D01*
X159506940Y-103716666D01*
X159440273Y-103583333D01*
X159440273Y-103516666D01*
X159506940Y-103383333D01*
X159640273Y-103316666D01*
X159840273Y-103316666D01*
X159973606Y-103250000D01*
X160040273Y-103116666D01*
X160040273Y-103050000D01*
X159973606Y-102916666D01*
X159840273Y-102850000D01*
X159640273Y-102850000D01*
X159506940Y-102916666D01*
X158840273Y-103783333D02*
X158840273Y-102383333D01*
X158840273Y-102916666D02*
X158706940Y-102850000D01*
X158440273Y-102850000D01*
X158306940Y-102916666D01*
X158240273Y-102983333D01*
X158173606Y-103116666D01*
X158173606Y-103516666D01*
X158240273Y-103650000D01*
X158306940Y-103716666D01*
X158440273Y-103783333D01*
X158706940Y-103783333D01*
X158840273Y-103716666D01*
X157706940Y-102850000D02*
X157373606Y-103783333D01*
X157040273Y-102850000D02*
X157373606Y-103783333D01*
X157506940Y-104116666D01*
X157573606Y-104183333D01*
X157706940Y-104250000D01*
D11*
%TO.C,G\u002A\u002A\u002A*%
G36*
X68468280Y-59609583D02*
G01*
X68463188Y-59683733D01*
X68511393Y-60118004D01*
X68664213Y-60978451D01*
X68902860Y-62170946D01*
X69208548Y-63601363D01*
X69538353Y-65070585D01*
X69891673Y-66626184D01*
X70201069Y-68019447D01*
X70446953Y-69159615D01*
X70609734Y-69955931D01*
X70669554Y-70311219D01*
X70555989Y-70294024D01*
X70230912Y-69893139D01*
X69753468Y-69186051D01*
X69493949Y-68771109D01*
X67850683Y-66377566D01*
X66159193Y-64480640D01*
X64431111Y-63088901D01*
X62678074Y-62210913D01*
X60911714Y-61855244D01*
X60119039Y-61867596D01*
X58664399Y-62228734D01*
X57456837Y-63057439D01*
X56612031Y-64134897D01*
X56292416Y-65099225D01*
X56232859Y-66507269D01*
X56430481Y-68337122D01*
X56882402Y-70566873D01*
X57585738Y-73174617D01*
X57961476Y-74396392D01*
X59016389Y-77847641D01*
X59844702Y-80871515D01*
X60452081Y-83522296D01*
X60844191Y-85854270D01*
X61026700Y-87921717D01*
X61005273Y-89778923D01*
X60785576Y-91480170D01*
X60373276Y-93079743D01*
X60014589Y-94066144D01*
X58985911Y-96079717D01*
X57669465Y-97807050D01*
X57010658Y-98449809D01*
X56401377Y-98939112D01*
X55981007Y-99097481D01*
X55683613Y-98875365D01*
X55443259Y-98223214D01*
X55194009Y-97091480D01*
X55192410Y-97083433D01*
X54972171Y-96013120D01*
X54748405Y-94986777D01*
X54626423Y-94462742D01*
X54381285Y-93458555D01*
X55401285Y-93559021D01*
X56060073Y-93587096D01*
X56296426Y-93473400D01*
X56267657Y-93301102D01*
X55909065Y-93015635D01*
X55461762Y-92919977D01*
X55047393Y-92817121D01*
X54899067Y-92663901D01*
X53324987Y-92801615D01*
X53078952Y-92913497D01*
X52373389Y-93049477D01*
X51282364Y-93198678D01*
X49879937Y-93350223D01*
X49099012Y-93422258D01*
X44851251Y-93793889D01*
X45066781Y-92943291D01*
X45626589Y-91714852D01*
X46562437Y-90684517D01*
X47746541Y-89937211D01*
X49051117Y-89557857D01*
X50125043Y-89581636D01*
X51124261Y-89972428D01*
X52078055Y-90690375D01*
X52844098Y-91592258D01*
X53280062Y-92534859D01*
X53324987Y-92801615D01*
X54899067Y-92663901D01*
X54707652Y-92466171D01*
X54347149Y-91752989D01*
X54207640Y-91419360D01*
X53811206Y-90341765D01*
X53464256Y-89223975D01*
X53328572Y-88690886D01*
X53068263Y-87841919D01*
X52765230Y-87489193D01*
X52652967Y-87475143D01*
X52411169Y-87623576D01*
X52397505Y-88084889D01*
X52479021Y-88510886D01*
X52703468Y-89511774D01*
X51415129Y-88984373D01*
X49937214Y-88647445D01*
X48363181Y-88740264D01*
X46879337Y-89238511D01*
X46181064Y-89667644D01*
X45527193Y-90307940D01*
X44884879Y-91182373D01*
X44353237Y-92123327D01*
X44031386Y-92963188D01*
X43982444Y-93385666D01*
X43925711Y-93673052D01*
X43613693Y-93847356D01*
X42928360Y-93959069D01*
X42559557Y-93994386D01*
X41761142Y-94108359D01*
X41238926Y-94267862D01*
X41117930Y-94388902D01*
X41370671Y-94520695D01*
X41990427Y-94563562D01*
X42456667Y-94540167D01*
X43772102Y-94425082D01*
X44067286Y-95674108D01*
X44758539Y-97503011D01*
X45879620Y-99028087D01*
X47397301Y-100212941D01*
X48810208Y-100868735D01*
X50371005Y-101263286D01*
X52011676Y-101407232D01*
X53528217Y-101292950D01*
X54352692Y-101075863D01*
X55296694Y-100724099D01*
X55644926Y-102609075D01*
X55909809Y-103954566D01*
X56134241Y-104849248D01*
X56348172Y-105372393D01*
X56581546Y-105603272D01*
X56787035Y-105632350D01*
X57051836Y-105439672D01*
X56986543Y-105011019D01*
X56842706Y-104463690D01*
X56651896Y-103573570D01*
X56453540Y-102525577D01*
X56438821Y-102442138D01*
X56091119Y-100459635D01*
X57278471Y-99703848D01*
X57628290Y-99415033D01*
X54888699Y-99654716D01*
X54898472Y-99828964D01*
X54620272Y-99943148D01*
X54002346Y-100131251D01*
X53675664Y-100220873D01*
X51961178Y-100445071D01*
X50172884Y-100284352D01*
X48946034Y-99921500D01*
X47534369Y-99127587D01*
X46338855Y-98040441D01*
X45456045Y-96775410D01*
X44982492Y-95447841D01*
X44940803Y-95136623D01*
X44870146Y-94329015D01*
X49264938Y-93944521D01*
X50986018Y-93804156D01*
X52233016Y-93728543D01*
X53062567Y-93717016D01*
X53531309Y-93768906D01*
X53695879Y-93883544D01*
X53697297Y-93892227D01*
X53768661Y-94279092D01*
X53931815Y-95062223D01*
X54160217Y-96116406D01*
X54352609Y-96983863D01*
X54599627Y-98123284D01*
X54785463Y-99050779D01*
X54888699Y-99654716D01*
X57628290Y-99415033D01*
X58794936Y-98451832D01*
X60137924Y-96783824D01*
X61252808Y-94805196D01*
X62084963Y-92621318D01*
X62579763Y-90337560D01*
X62678805Y-89286985D01*
X62660292Y-87893358D01*
X62490068Y-86062460D01*
X62181462Y-83865648D01*
X61747804Y-81374281D01*
X61202422Y-78659717D01*
X60558649Y-75793314D01*
X59829812Y-72846432D01*
X59107143Y-70166583D01*
X58729706Y-68352401D01*
X58658250Y-66757638D01*
X58878481Y-65437829D01*
X59376105Y-64448507D01*
X60136832Y-63845208D01*
X60775178Y-63685544D01*
X62055383Y-63830305D01*
X63445673Y-64437070D01*
X64894809Y-65458017D01*
X66351555Y-66845329D01*
X67764669Y-68551188D01*
X69082916Y-70527771D01*
X70085398Y-72374470D01*
X70732892Y-73849042D01*
X71417144Y-75667130D01*
X72078080Y-77646356D01*
X72655626Y-79604341D01*
X73089704Y-81358705D01*
X73164430Y-81721874D01*
X73461402Y-83239134D01*
X74507640Y-83147600D01*
X75176887Y-83065504D01*
X75462618Y-82883304D01*
X75428319Y-82465592D01*
X75164596Y-81746402D01*
X74671940Y-80288849D01*
X74154821Y-78410448D01*
X73637177Y-76222894D01*
X73142947Y-73837881D01*
X72696069Y-71367105D01*
X72654725Y-71097976D01*
X71031043Y-71240029D01*
X70909519Y-71384857D01*
X70764691Y-71263332D01*
X70886216Y-71118505D01*
X71031043Y-71240029D01*
X72654725Y-71097976D01*
X72320482Y-68922260D01*
X72171121Y-67779050D01*
X71522674Y-62474352D01*
X73694875Y-62284309D01*
X74798675Y-62169362D01*
X75460492Y-62044711D01*
X75772850Y-61884834D01*
X75832123Y-61694739D01*
X75709371Y-61493515D01*
X75321358Y-61402852D01*
X74570185Y-61412009D01*
X73790981Y-61470731D01*
X72145379Y-61522740D01*
X70895107Y-61331659D01*
X69945662Y-60868890D01*
X69202541Y-60105835D01*
X69180726Y-60075602D01*
X68757935Y-59522307D01*
X68545389Y-59380586D01*
X68468280Y-59609583D01*
G37*
X68468280Y-59609583D02*
X68463188Y-59683733D01*
X68511393Y-60118004D01*
X68664213Y-60978451D01*
X68902860Y-62170946D01*
X69208548Y-63601363D01*
X69538353Y-65070585D01*
X69891673Y-66626184D01*
X70201069Y-68019447D01*
X70446953Y-69159615D01*
X70609734Y-69955931D01*
X70669554Y-70311219D01*
X70555989Y-70294024D01*
X70230912Y-69893139D01*
X69753468Y-69186051D01*
X69493949Y-68771109D01*
X67850683Y-66377566D01*
X66159193Y-64480640D01*
X64431111Y-63088901D01*
X62678074Y-62210913D01*
X60911714Y-61855244D01*
X60119039Y-61867596D01*
X58664399Y-62228734D01*
X57456837Y-63057439D01*
X56612031Y-64134897D01*
X56292416Y-65099225D01*
X56232859Y-66507269D01*
X56430481Y-68337122D01*
X56882402Y-70566873D01*
X57585738Y-73174617D01*
X57961476Y-74396392D01*
X59016389Y-77847641D01*
X59844702Y-80871515D01*
X60452081Y-83522296D01*
X60844191Y-85854270D01*
X61026700Y-87921717D01*
X61005273Y-89778923D01*
X60785576Y-91480170D01*
X60373276Y-93079743D01*
X60014589Y-94066144D01*
X58985911Y-96079717D01*
X57669465Y-97807050D01*
X57010658Y-98449809D01*
X56401377Y-98939112D01*
X55981007Y-99097481D01*
X55683613Y-98875365D01*
X55443259Y-98223214D01*
X55194009Y-97091480D01*
X55192410Y-97083433D01*
X54972171Y-96013120D01*
X54748405Y-94986777D01*
X54626423Y-94462742D01*
X54381285Y-93458555D01*
X55401285Y-93559021D01*
X56060073Y-93587096D01*
X56296426Y-93473400D01*
X56267657Y-93301102D01*
X55909065Y-93015635D01*
X55461762Y-92919977D01*
X55047393Y-92817121D01*
X54899067Y-92663901D01*
X53324987Y-92801615D01*
X53078952Y-92913497D01*
X52373389Y-93049477D01*
X51282364Y-93198678D01*
X49879937Y-93350223D01*
X49099012Y-93422258D01*
X44851251Y-93793889D01*
X45066781Y-92943291D01*
X45626589Y-91714852D01*
X46562437Y-90684517D01*
X47746541Y-89937211D01*
X49051117Y-89557857D01*
X50125043Y-89581636D01*
X51124261Y-89972428D01*
X52078055Y-90690375D01*
X52844098Y-91592258D01*
X53280062Y-92534859D01*
X53324987Y-92801615D01*
X54899067Y-92663901D01*
X54707652Y-92466171D01*
X54347149Y-91752989D01*
X54207640Y-91419360D01*
X53811206Y-90341765D01*
X53464256Y-89223975D01*
X53328572Y-88690886D01*
X53068263Y-87841919D01*
X52765230Y-87489193D01*
X52652967Y-87475143D01*
X52411169Y-87623576D01*
X52397505Y-88084889D01*
X52479021Y-88510886D01*
X52703468Y-89511774D01*
X51415129Y-88984373D01*
X49937214Y-88647445D01*
X48363181Y-88740264D01*
X46879337Y-89238511D01*
X46181064Y-89667644D01*
X45527193Y-90307940D01*
X44884879Y-91182373D01*
X44353237Y-92123327D01*
X44031386Y-92963188D01*
X43982444Y-93385666D01*
X43925711Y-93673052D01*
X43613693Y-93847356D01*
X42928360Y-93959069D01*
X42559557Y-93994386D01*
X41761142Y-94108359D01*
X41238926Y-94267862D01*
X41117930Y-94388902D01*
X41370671Y-94520695D01*
X41990427Y-94563562D01*
X42456667Y-94540167D01*
X43772102Y-94425082D01*
X44067286Y-95674108D01*
X44758539Y-97503011D01*
X45879620Y-99028087D01*
X47397301Y-100212941D01*
X48810208Y-100868735D01*
X50371005Y-101263286D01*
X52011676Y-101407232D01*
X53528217Y-101292950D01*
X54352692Y-101075863D01*
X55296694Y-100724099D01*
X55644926Y-102609075D01*
X55909809Y-103954566D01*
X56134241Y-104849248D01*
X56348172Y-105372393D01*
X56581546Y-105603272D01*
X56787035Y-105632350D01*
X57051836Y-105439672D01*
X56986543Y-105011019D01*
X56842706Y-104463690D01*
X56651896Y-103573570D01*
X56453540Y-102525577D01*
X56438821Y-102442138D01*
X56091119Y-100459635D01*
X57278471Y-99703848D01*
X57628290Y-99415033D01*
X54888699Y-99654716D01*
X54898472Y-99828964D01*
X54620272Y-99943148D01*
X54002346Y-100131251D01*
X53675664Y-100220873D01*
X51961178Y-100445071D01*
X50172884Y-100284352D01*
X48946034Y-99921500D01*
X47534369Y-99127587D01*
X46338855Y-98040441D01*
X45456045Y-96775410D01*
X44982492Y-95447841D01*
X44940803Y-95136623D01*
X44870146Y-94329015D01*
X49264938Y-93944521D01*
X50986018Y-93804156D01*
X52233016Y-93728543D01*
X53062567Y-93717016D01*
X53531309Y-93768906D01*
X53695879Y-93883544D01*
X53697297Y-93892227D01*
X53768661Y-94279092D01*
X53931815Y-95062223D01*
X54160217Y-96116406D01*
X54352609Y-96983863D01*
X54599627Y-98123284D01*
X54785463Y-99050779D01*
X54888699Y-99654716D01*
X57628290Y-99415033D01*
X58794936Y-98451832D01*
X60137924Y-96783824D01*
X61252808Y-94805196D01*
X62084963Y-92621318D01*
X62579763Y-90337560D01*
X62678805Y-89286985D01*
X62660292Y-87893358D01*
X62490068Y-86062460D01*
X62181462Y-83865648D01*
X61747804Y-81374281D01*
X61202422Y-78659717D01*
X60558649Y-75793314D01*
X59829812Y-72846432D01*
X59107143Y-70166583D01*
X58729706Y-68352401D01*
X58658250Y-66757638D01*
X58878481Y-65437829D01*
X59376105Y-64448507D01*
X60136832Y-63845208D01*
X60775178Y-63685544D01*
X62055383Y-63830305D01*
X63445673Y-64437070D01*
X64894809Y-65458017D01*
X66351555Y-66845329D01*
X67764669Y-68551188D01*
X69082916Y-70527771D01*
X70085398Y-72374470D01*
X70732892Y-73849042D01*
X71417144Y-75667130D01*
X72078080Y-77646356D01*
X72655626Y-79604341D01*
X73089704Y-81358705D01*
X73164430Y-81721874D01*
X73461402Y-83239134D01*
X74507640Y-83147600D01*
X75176887Y-83065504D01*
X75462618Y-82883304D01*
X75428319Y-82465592D01*
X75164596Y-81746402D01*
X74671940Y-80288849D01*
X74154821Y-78410448D01*
X73637177Y-76222894D01*
X73142947Y-73837881D01*
X72696069Y-71367105D01*
X72654725Y-71097976D01*
X71031043Y-71240029D01*
X70909519Y-71384857D01*
X70764691Y-71263332D01*
X70886216Y-71118505D01*
X71031043Y-71240029D01*
X72654725Y-71097976D01*
X72320482Y-68922260D01*
X72171121Y-67779050D01*
X71522674Y-62474352D01*
X73694875Y-62284309D01*
X74798675Y-62169362D01*
X75460492Y-62044711D01*
X75772850Y-61884834D01*
X75832123Y-61694739D01*
X75709371Y-61493515D01*
X75321358Y-61402852D01*
X74570185Y-61412009D01*
X73790981Y-61470731D01*
X72145379Y-61522740D01*
X70895107Y-61331659D01*
X69945662Y-60868890D01*
X69202541Y-60105835D01*
X69180726Y-60075602D01*
X68757935Y-59522307D01*
X68545389Y-59380586D01*
X68468280Y-59609583D01*
G36*
X159203036Y-31557955D02*
G01*
X157905161Y-31931794D01*
X155824273Y-32908666D01*
X154102931Y-34178983D01*
X152793839Y-35695679D01*
X152032262Y-37176368D01*
X151706067Y-37979692D01*
X151407125Y-38407227D01*
X150999564Y-38592434D01*
X150528233Y-38653708D01*
X149846085Y-38779612D01*
X149431055Y-38979146D01*
X149400117Y-39020796D01*
X149536694Y-39183731D01*
X150110954Y-39221211D01*
X150369571Y-39204369D01*
X151480337Y-39107189D01*
X151385283Y-40072245D01*
X151433897Y-41099936D01*
X151704965Y-42371974D01*
X152139466Y-43678042D01*
X152678387Y-44807824D01*
X152745074Y-44918039D01*
X153304244Y-45641687D01*
X154061621Y-46418007D01*
X154401623Y-46714136D01*
X156013081Y-47733394D01*
X157702785Y-48272048D01*
X159396138Y-48333074D01*
X161018544Y-47919447D01*
X162495408Y-47034141D01*
X163204208Y-46363116D01*
X164108252Y-45046558D01*
X164592456Y-43614250D01*
X164662569Y-42167258D01*
X164601324Y-41920879D01*
X163680820Y-42001412D01*
X163734508Y-43212739D01*
X163366457Y-44473989D01*
X162603969Y-45638690D01*
X161396363Y-46642201D01*
X159924994Y-47233604D01*
X158301011Y-47382088D01*
X157039142Y-47181390D01*
X156233647Y-46804671D01*
X155279623Y-46131813D01*
X154342646Y-45299439D01*
X153588292Y-44444171D01*
X153413756Y-44189944D01*
X152904646Y-43067234D01*
X152527110Y-41584195D01*
X152468395Y-41234961D01*
X152173354Y-39314948D01*
X155519820Y-39022171D01*
X156935424Y-38889255D01*
X157915817Y-38830945D01*
X158560523Y-38920524D01*
X158969066Y-39231275D01*
X159240969Y-39836483D01*
X159475756Y-40809430D01*
X159754989Y-42140707D01*
X160014102Y-43246636D01*
X160263538Y-44154606D01*
X160466299Y-44736679D01*
X160544792Y-44871808D01*
X160837018Y-45010457D01*
X160958471Y-44715234D01*
X160909357Y-43964359D01*
X160689887Y-42736051D01*
X160570620Y-42179145D01*
X160344086Y-41084046D01*
X160189133Y-40195938D01*
X160125322Y-39635739D01*
X160138528Y-39507769D01*
X160454771Y-39464725D01*
X161071769Y-39551021D01*
X161200718Y-39579754D01*
X162392785Y-40093643D01*
X163226533Y-40931288D01*
X163680820Y-42001412D01*
X164601324Y-41920879D01*
X164324342Y-40806642D01*
X163583521Y-39633464D01*
X162782337Y-38947259D01*
X162026555Y-38452905D01*
X163426843Y-38330395D01*
X164222020Y-38241820D01*
X164571586Y-38131179D01*
X164564281Y-37956147D01*
X164460600Y-37837369D01*
X164093592Y-37650606D01*
X163420010Y-37581279D01*
X162346081Y-37622896D01*
X161891195Y-37659577D01*
X160774367Y-37751536D01*
X160055931Y-37730722D01*
X159621197Y-37507549D01*
X159355471Y-36992430D01*
X159144064Y-36095777D01*
X159009628Y-35408751D01*
X158776396Y-34402787D01*
X158549332Y-33852851D01*
X158295076Y-33681698D01*
X158264198Y-33682663D01*
X158063805Y-33782604D01*
X158003187Y-34107534D01*
X158079090Y-34766332D01*
X158210575Y-35478659D01*
X158411548Y-36429854D01*
X158598182Y-37191904D01*
X158722873Y-37580956D01*
X158692777Y-37740593D01*
X158381522Y-37873104D01*
X157718235Y-37993311D01*
X156632047Y-38116033D01*
X155797735Y-38192686D01*
X154294103Y-38299864D01*
X153271763Y-38317324D01*
X152749199Y-38245152D01*
X152681272Y-38178212D01*
X152817353Y-37654672D01*
X153222122Y-36889755D01*
X153797567Y-36031279D01*
X154445675Y-35227064D01*
X155001439Y-34679001D01*
X156913083Y-33428791D01*
X159055661Y-32636806D01*
X161375008Y-32308873D01*
X163816967Y-32450813D01*
X166327378Y-33068455D01*
X167148911Y-33372564D01*
X168358459Y-34011744D01*
X169705240Y-34968110D01*
X171034528Y-36110849D01*
X172191598Y-37309149D01*
X172897839Y-38232977D01*
X173900463Y-40142225D01*
X174529341Y-42156886D01*
X174798178Y-44202770D01*
X174720675Y-46205688D01*
X174310534Y-48091449D01*
X173581459Y-49785865D01*
X172547152Y-51214744D01*
X171221315Y-52303897D01*
X170208262Y-52795051D01*
X168863281Y-53046279D01*
X167583101Y-52772687D01*
X166351842Y-51970165D01*
X166094403Y-51730518D01*
X165687973Y-51335927D01*
X165393041Y-51091272D01*
X165210904Y-51046928D01*
X165142863Y-51253265D01*
X165190219Y-51760656D01*
X165354272Y-52619476D01*
X165636322Y-53880097D01*
X166037669Y-55592892D01*
X166213312Y-56337112D01*
X166564916Y-57844620D01*
X166871282Y-59191269D01*
X167111468Y-60282323D01*
X167264531Y-61023045D01*
X167310091Y-61298384D01*
X167211451Y-61270356D01*
X166921134Y-60842963D01*
X166488355Y-60094246D01*
X166132201Y-59430690D01*
X165082898Y-57597982D01*
X163973989Y-55968909D01*
X162879342Y-54641694D01*
X161872823Y-53714563D01*
X161786822Y-53652512D01*
X160582749Y-53066287D01*
X159153490Y-52760648D01*
X158156673Y-52749237D01*
X157471560Y-52708940D01*
X156687140Y-52529586D01*
X155985975Y-52270899D01*
X155550630Y-51992602D01*
X155490090Y-51876897D01*
X155265379Y-51666750D01*
X155193918Y-51665000D01*
X155067959Y-51925667D01*
X155136908Y-52637535D01*
X155211570Y-53005404D01*
X155504747Y-54321704D01*
X153245838Y-54519332D01*
X152052546Y-54600907D01*
X151227005Y-54584297D01*
X150608508Y-54453012D01*
X150036349Y-54190566D01*
X150035252Y-54189958D01*
X149182328Y-53576483D01*
X148344874Y-52751654D01*
X147722273Y-51919474D01*
X147612944Y-51711507D01*
X147391973Y-51526807D01*
X147317838Y-51567286D01*
X147313048Y-51883915D01*
X147432204Y-52584521D01*
X147651401Y-53539190D01*
X147751904Y-53926430D01*
X148011046Y-54928453D01*
X148196188Y-55708730D01*
X148278675Y-56143658D01*
X148277242Y-56192557D01*
X148018814Y-56136309D01*
X147386280Y-55922325D01*
X146501555Y-55592635D01*
X146221353Y-55483788D01*
X144380336Y-54941968D01*
X142525442Y-54719466D01*
X140805985Y-54823071D01*
X139544415Y-55180317D01*
X138152957Y-56061693D01*
X137044527Y-57362191D01*
X136241916Y-59033792D01*
X135767919Y-61028476D01*
X135645330Y-63298223D01*
X135647904Y-63389174D01*
X135924369Y-65999262D01*
X136561107Y-68469108D01*
X137518360Y-70739495D01*
X138756367Y-72751205D01*
X140235368Y-74445023D01*
X141915603Y-75761730D01*
X143757312Y-76642111D01*
X144718608Y-76898655D01*
X146421752Y-76982509D01*
X148055640Y-76598468D01*
X149529769Y-75808359D01*
X150753636Y-74674013D01*
X151636739Y-73257255D01*
X152049642Y-71890325D01*
X152138133Y-71458998D01*
X152228953Y-71428247D01*
X152372293Y-71843894D01*
X152496862Y-72298580D01*
X152761535Y-73342548D01*
X153098460Y-74761868D01*
X153491586Y-76480834D01*
X153924867Y-78423745D01*
X154382253Y-80514892D01*
X154847696Y-82678574D01*
X155305146Y-84839085D01*
X155738557Y-86920721D01*
X156131877Y-88847777D01*
X156469060Y-90544549D01*
X156734056Y-91935332D01*
X156910817Y-92944423D01*
X156979629Y-93444665D01*
X157126215Y-93745116D01*
X157579222Y-93841958D01*
X158085864Y-93817564D01*
X158748321Y-93704722D01*
X159107469Y-93536196D01*
X159129787Y-93478822D01*
X159058102Y-93136982D01*
X158878898Y-92388460D01*
X158619292Y-91344083D01*
X158309981Y-90128577D01*
X157238134Y-85841882D01*
X156271634Y-81710505D01*
X155378310Y-77582519D01*
X154525995Y-73305998D01*
X153682521Y-68729018D01*
X153616905Y-68353662D01*
X151311584Y-68555351D01*
X151293249Y-70371628D01*
X150870280Y-71968173D01*
X150286084Y-73089098D01*
X149232357Y-74366912D01*
X147957736Y-75256429D01*
X146555868Y-75716631D01*
X145120400Y-75706504D01*
X144605170Y-75577168D01*
X143797778Y-75164171D01*
X142820051Y-74444049D01*
X141815007Y-73542985D01*
X140925659Y-72587159D01*
X140384375Y-71853166D01*
X139330616Y-69806421D01*
X138544086Y-67536760D01*
X138053770Y-65188220D01*
X137888651Y-62904840D01*
X138077716Y-60830658D01*
X138122850Y-60614857D01*
X138715699Y-58840246D01*
X139595427Y-57487268D01*
X140738095Y-56575582D01*
X142119772Y-56124841D01*
X143579357Y-56133873D01*
X144648425Y-56368078D01*
X145824434Y-56757227D01*
X146970500Y-57239970D01*
X147949741Y-57754956D01*
X148625276Y-58240834D01*
X148823579Y-58484338D01*
X149024765Y-59017547D01*
X149309752Y-59961149D01*
X149650730Y-61202579D01*
X150019890Y-62629270D01*
X150389424Y-64128657D01*
X150731523Y-65588173D01*
X151018377Y-66895252D01*
X151222179Y-67937327D01*
X151311584Y-68555351D01*
X153616905Y-68353662D01*
X153226362Y-66119551D01*
X152842263Y-63860500D01*
X152494950Y-61768072D01*
X152193440Y-59900430D01*
X151946747Y-58315734D01*
X151763888Y-57072145D01*
X151653879Y-56227826D01*
X151625736Y-55840937D01*
X151630396Y-55823929D01*
X151949304Y-55698050D01*
X152647862Y-55532629D01*
X153576262Y-55363030D01*
X153596990Y-55359702D01*
X154712969Y-55219685D01*
X155476983Y-55234382D01*
X156050697Y-55409758D01*
X156135988Y-55453318D01*
X156718225Y-55655444D01*
X157514338Y-55704849D01*
X158667930Y-55608831D01*
X158822026Y-55589803D01*
X160165655Y-55486278D01*
X161175489Y-55614425D01*
X162025412Y-56037968D01*
X162889310Y-56820633D01*
X163244163Y-57210433D01*
X164424684Y-58784780D01*
X165600431Y-60794831D01*
X166730683Y-63142764D01*
X167774720Y-65730755D01*
X168691825Y-68460983D01*
X169441276Y-71235624D01*
X169815655Y-72997598D01*
X170150885Y-74779900D01*
X171195088Y-74688544D01*
X171863135Y-74606524D01*
X172148231Y-74424296D01*
X172113668Y-74006472D01*
X171850010Y-73287525D01*
X171362871Y-71843606D01*
X170850989Y-69976625D01*
X170337749Y-67796083D01*
X169846536Y-65411485D01*
X169400732Y-62932335D01*
X169254362Y-61975628D01*
X167658201Y-62115274D01*
X167579928Y-62343038D01*
X167496168Y-62308377D01*
X167436636Y-61995069D01*
X167465098Y-61953243D01*
X167626642Y-61975951D01*
X167658201Y-62115274D01*
X169254362Y-61975628D01*
X169023724Y-60468135D01*
X168882506Y-59391362D01*
X168217819Y-54014623D01*
X169519002Y-53894890D01*
X171163060Y-53490484D01*
X172607024Y-52632329D01*
X173818103Y-51374573D01*
X174763502Y-49771357D01*
X175410429Y-47876828D01*
X175726090Y-45745129D01*
X175701418Y-43687153D01*
X175224815Y-41103245D01*
X174256590Y-38706516D01*
X172820275Y-36540770D01*
X170939404Y-34649808D01*
X170772658Y-34513502D01*
X168662734Y-33107799D01*
X166354864Y-32090142D01*
X163944994Y-31479782D01*
X161529069Y-31295969D01*
X159203036Y-31557955D01*
G37*
X159203036Y-31557955D02*
X157905161Y-31931794D01*
X155824273Y-32908666D01*
X154102931Y-34178983D01*
X152793839Y-35695679D01*
X152032262Y-37176368D01*
X151706067Y-37979692D01*
X151407125Y-38407227D01*
X150999564Y-38592434D01*
X150528233Y-38653708D01*
X149846085Y-38779612D01*
X149431055Y-38979146D01*
X149400117Y-39020796D01*
X149536694Y-39183731D01*
X150110954Y-39221211D01*
X150369571Y-39204369D01*
X151480337Y-39107189D01*
X151385283Y-40072245D01*
X151433897Y-41099936D01*
X151704965Y-42371974D01*
X152139466Y-43678042D01*
X152678387Y-44807824D01*
X152745074Y-44918039D01*
X153304244Y-45641687D01*
X154061621Y-46418007D01*
X154401623Y-46714136D01*
X156013081Y-47733394D01*
X157702785Y-48272048D01*
X159396138Y-48333074D01*
X161018544Y-47919447D01*
X162495408Y-47034141D01*
X163204208Y-46363116D01*
X164108252Y-45046558D01*
X164592456Y-43614250D01*
X164662569Y-42167258D01*
X164601324Y-41920879D01*
X163680820Y-42001412D01*
X163734508Y-43212739D01*
X163366457Y-44473989D01*
X162603969Y-45638690D01*
X161396363Y-46642201D01*
X159924994Y-47233604D01*
X158301011Y-47382088D01*
X157039142Y-47181390D01*
X156233647Y-46804671D01*
X155279623Y-46131813D01*
X154342646Y-45299439D01*
X153588292Y-44444171D01*
X153413756Y-44189944D01*
X152904646Y-43067234D01*
X152527110Y-41584195D01*
X152468395Y-41234961D01*
X152173354Y-39314948D01*
X155519820Y-39022171D01*
X156935424Y-38889255D01*
X157915817Y-38830945D01*
X158560523Y-38920524D01*
X158969066Y-39231275D01*
X159240969Y-39836483D01*
X159475756Y-40809430D01*
X159754989Y-42140707D01*
X160014102Y-43246636D01*
X160263538Y-44154606D01*
X160466299Y-44736679D01*
X160544792Y-44871808D01*
X160837018Y-45010457D01*
X160958471Y-44715234D01*
X160909357Y-43964359D01*
X160689887Y-42736051D01*
X160570620Y-42179145D01*
X160344086Y-41084046D01*
X160189133Y-40195938D01*
X160125322Y-39635739D01*
X160138528Y-39507769D01*
X160454771Y-39464725D01*
X161071769Y-39551021D01*
X161200718Y-39579754D01*
X162392785Y-40093643D01*
X163226533Y-40931288D01*
X163680820Y-42001412D01*
X164601324Y-41920879D01*
X164324342Y-40806642D01*
X163583521Y-39633464D01*
X162782337Y-38947259D01*
X162026555Y-38452905D01*
X163426843Y-38330395D01*
X164222020Y-38241820D01*
X164571586Y-38131179D01*
X164564281Y-37956147D01*
X164460600Y-37837369D01*
X164093592Y-37650606D01*
X163420010Y-37581279D01*
X162346081Y-37622896D01*
X161891195Y-37659577D01*
X160774367Y-37751536D01*
X160055931Y-37730722D01*
X159621197Y-37507549D01*
X159355471Y-36992430D01*
X159144064Y-36095777D01*
X159009628Y-35408751D01*
X158776396Y-34402787D01*
X158549332Y-33852851D01*
X158295076Y-33681698D01*
X158264198Y-33682663D01*
X158063805Y-33782604D01*
X158003187Y-34107534D01*
X158079090Y-34766332D01*
X158210575Y-35478659D01*
X158411548Y-36429854D01*
X158598182Y-37191904D01*
X158722873Y-37580956D01*
X158692777Y-37740593D01*
X158381522Y-37873104D01*
X157718235Y-37993311D01*
X156632047Y-38116033D01*
X155797735Y-38192686D01*
X154294103Y-38299864D01*
X153271763Y-38317324D01*
X152749199Y-38245152D01*
X152681272Y-38178212D01*
X152817353Y-37654672D01*
X153222122Y-36889755D01*
X153797567Y-36031279D01*
X154445675Y-35227064D01*
X155001439Y-34679001D01*
X156913083Y-33428791D01*
X159055661Y-32636806D01*
X161375008Y-32308873D01*
X163816967Y-32450813D01*
X166327378Y-33068455D01*
X167148911Y-33372564D01*
X168358459Y-34011744D01*
X169705240Y-34968110D01*
X171034528Y-36110849D01*
X172191598Y-37309149D01*
X172897839Y-38232977D01*
X173900463Y-40142225D01*
X174529341Y-42156886D01*
X174798178Y-44202770D01*
X174720675Y-46205688D01*
X174310534Y-48091449D01*
X173581459Y-49785865D01*
X172547152Y-51214744D01*
X171221315Y-52303897D01*
X170208262Y-52795051D01*
X168863281Y-53046279D01*
X167583101Y-52772687D01*
X166351842Y-51970165D01*
X166094403Y-51730518D01*
X165687973Y-51335927D01*
X165393041Y-51091272D01*
X165210904Y-51046928D01*
X165142863Y-51253265D01*
X165190219Y-51760656D01*
X165354272Y-52619476D01*
X165636322Y-53880097D01*
X166037669Y-55592892D01*
X166213312Y-56337112D01*
X166564916Y-57844620D01*
X166871282Y-59191269D01*
X167111468Y-60282323D01*
X167264531Y-61023045D01*
X167310091Y-61298384D01*
X167211451Y-61270356D01*
X166921134Y-60842963D01*
X166488355Y-60094246D01*
X166132201Y-59430690D01*
X165082898Y-57597982D01*
X163973989Y-55968909D01*
X162879342Y-54641694D01*
X161872823Y-53714563D01*
X161786822Y-53652512D01*
X160582749Y-53066287D01*
X159153490Y-52760648D01*
X158156673Y-52749237D01*
X157471560Y-52708940D01*
X156687140Y-52529586D01*
X155985975Y-52270899D01*
X155550630Y-51992602D01*
X155490090Y-51876897D01*
X155265379Y-51666750D01*
X155193918Y-51665000D01*
X155067959Y-51925667D01*
X155136908Y-52637535D01*
X155211570Y-53005404D01*
X155504747Y-54321704D01*
X153245838Y-54519332D01*
X152052546Y-54600907D01*
X151227005Y-54584297D01*
X150608508Y-54453012D01*
X150036349Y-54190566D01*
X150035252Y-54189958D01*
X149182328Y-53576483D01*
X148344874Y-52751654D01*
X147722273Y-51919474D01*
X147612944Y-51711507D01*
X147391973Y-51526807D01*
X147317838Y-51567286D01*
X147313048Y-51883915D01*
X147432204Y-52584521D01*
X147651401Y-53539190D01*
X147751904Y-53926430D01*
X148011046Y-54928453D01*
X148196188Y-55708730D01*
X148278675Y-56143658D01*
X148277242Y-56192557D01*
X148018814Y-56136309D01*
X147386280Y-55922325D01*
X146501555Y-55592635D01*
X146221353Y-55483788D01*
X144380336Y-54941968D01*
X142525442Y-54719466D01*
X140805985Y-54823071D01*
X139544415Y-55180317D01*
X138152957Y-56061693D01*
X137044527Y-57362191D01*
X136241916Y-59033792D01*
X135767919Y-61028476D01*
X135645330Y-63298223D01*
X135647904Y-63389174D01*
X135924369Y-65999262D01*
X136561107Y-68469108D01*
X137518360Y-70739495D01*
X138756367Y-72751205D01*
X140235368Y-74445023D01*
X141915603Y-75761730D01*
X143757312Y-76642111D01*
X144718608Y-76898655D01*
X146421752Y-76982509D01*
X148055640Y-76598468D01*
X149529769Y-75808359D01*
X150753636Y-74674013D01*
X151636739Y-73257255D01*
X152049642Y-71890325D01*
X152138133Y-71458998D01*
X152228953Y-71428247D01*
X152372293Y-71843894D01*
X152496862Y-72298580D01*
X152761535Y-73342548D01*
X153098460Y-74761868D01*
X153491586Y-76480834D01*
X153924867Y-78423745D01*
X154382253Y-80514892D01*
X154847696Y-82678574D01*
X155305146Y-84839085D01*
X155738557Y-86920721D01*
X156131877Y-88847777D01*
X156469060Y-90544549D01*
X156734056Y-91935332D01*
X156910817Y-92944423D01*
X156979629Y-93444665D01*
X157126215Y-93745116D01*
X157579222Y-93841958D01*
X158085864Y-93817564D01*
X158748321Y-93704722D01*
X159107469Y-93536196D01*
X159129787Y-93478822D01*
X159058102Y-93136982D01*
X158878898Y-92388460D01*
X158619292Y-91344083D01*
X158309981Y-90128577D01*
X157238134Y-85841882D01*
X156271634Y-81710505D01*
X155378310Y-77582519D01*
X154525995Y-73305998D01*
X153682521Y-68729018D01*
X153616905Y-68353662D01*
X151311584Y-68555351D01*
X151293249Y-70371628D01*
X150870280Y-71968173D01*
X150286084Y-73089098D01*
X149232357Y-74366912D01*
X147957736Y-75256429D01*
X146555868Y-75716631D01*
X145120400Y-75706504D01*
X144605170Y-75577168D01*
X143797778Y-75164171D01*
X142820051Y-74444049D01*
X141815007Y-73542985D01*
X140925659Y-72587159D01*
X140384375Y-71853166D01*
X139330616Y-69806421D01*
X138544086Y-67536760D01*
X138053770Y-65188220D01*
X137888651Y-62904840D01*
X138077716Y-60830658D01*
X138122850Y-60614857D01*
X138715699Y-58840246D01*
X139595427Y-57487268D01*
X140738095Y-56575582D01*
X142119772Y-56124841D01*
X143579357Y-56133873D01*
X144648425Y-56368078D01*
X145824434Y-56757227D01*
X146970500Y-57239970D01*
X147949741Y-57754956D01*
X148625276Y-58240834D01*
X148823579Y-58484338D01*
X149024765Y-59017547D01*
X149309752Y-59961149D01*
X149650730Y-61202579D01*
X150019890Y-62629270D01*
X150389424Y-64128657D01*
X150731523Y-65588173D01*
X151018377Y-66895252D01*
X151222179Y-67937327D01*
X151311584Y-68555351D01*
X153616905Y-68353662D01*
X153226362Y-66119551D01*
X152842263Y-63860500D01*
X152494950Y-61768072D01*
X152193440Y-59900430D01*
X151946747Y-58315734D01*
X151763888Y-57072145D01*
X151653879Y-56227826D01*
X151625736Y-55840937D01*
X151630396Y-55823929D01*
X151949304Y-55698050D01*
X152647862Y-55532629D01*
X153576262Y-55363030D01*
X153596990Y-55359702D01*
X154712969Y-55219685D01*
X155476983Y-55234382D01*
X156050697Y-55409758D01*
X156135988Y-55453318D01*
X156718225Y-55655444D01*
X157514338Y-55704849D01*
X158667930Y-55608831D01*
X158822026Y-55589803D01*
X160165655Y-55486278D01*
X161175489Y-55614425D01*
X162025412Y-56037968D01*
X162889310Y-56820633D01*
X163244163Y-57210433D01*
X164424684Y-58784780D01*
X165600431Y-60794831D01*
X166730683Y-63142764D01*
X167774720Y-65730755D01*
X168691825Y-68460983D01*
X169441276Y-71235624D01*
X169815655Y-72997598D01*
X170150885Y-74779900D01*
X171195088Y-74688544D01*
X171863135Y-74606524D01*
X172148231Y-74424296D01*
X172113668Y-74006472D01*
X171850010Y-73287525D01*
X171362871Y-71843606D01*
X170850989Y-69976625D01*
X170337749Y-67796083D01*
X169846536Y-65411485D01*
X169400732Y-62932335D01*
X169254362Y-61975628D01*
X167658201Y-62115274D01*
X167579928Y-62343038D01*
X167496168Y-62308377D01*
X167436636Y-61995069D01*
X167465098Y-61953243D01*
X167626642Y-61975951D01*
X167658201Y-62115274D01*
X169254362Y-61975628D01*
X169023724Y-60468135D01*
X168882506Y-59391362D01*
X168217819Y-54014623D01*
X169519002Y-53894890D01*
X171163060Y-53490484D01*
X172607024Y-52632329D01*
X173818103Y-51374573D01*
X174763502Y-49771357D01*
X175410429Y-47876828D01*
X175726090Y-45745129D01*
X175701418Y-43687153D01*
X175224815Y-41103245D01*
X174256590Y-38706516D01*
X172820275Y-36540770D01*
X170939404Y-34649808D01*
X170772658Y-34513502D01*
X168662734Y-33107799D01*
X166354864Y-32090142D01*
X163944994Y-31479782D01*
X161529069Y-31295969D01*
X159203036Y-31557955D01*
G36*
X192647870Y-35555344D02*
G01*
X192987524Y-36238730D01*
X193545656Y-37300859D01*
X194298917Y-38698930D01*
X195223954Y-40390138D01*
X196297416Y-42331680D01*
X197495952Y-44480750D01*
X198796212Y-46794548D01*
X199606155Y-48227623D01*
X201416540Y-51426843D01*
X202984466Y-54204814D01*
X204333035Y-56604417D01*
X205485351Y-58668536D01*
X206464517Y-60440054D01*
X207293638Y-61961855D01*
X207995816Y-63276820D01*
X208594153Y-64427835D01*
X209111754Y-65457781D01*
X209571723Y-66409542D01*
X209997163Y-67326001D01*
X210411176Y-68250040D01*
X210491532Y-68432458D01*
X211627411Y-71016979D01*
X212757265Y-71111883D01*
X213501588Y-71138867D01*
X214004674Y-71092140D01*
X214083997Y-71059947D01*
X214275009Y-70651582D01*
X214452775Y-69743628D01*
X214615241Y-68371119D01*
X214760350Y-66569085D01*
X214886044Y-64372559D01*
X214990270Y-61816572D01*
X215070969Y-58936156D01*
X215126086Y-55766343D01*
X215151252Y-52877415D01*
X215162751Y-51141170D01*
X215178452Y-49593690D01*
X215197125Y-48311735D01*
X215217543Y-47372064D01*
X215238478Y-46851432D01*
X215248903Y-46772056D01*
X215400500Y-46965857D01*
X215779038Y-47600827D01*
X216366011Y-48643051D01*
X217142911Y-50058619D01*
X218091229Y-51813621D01*
X219192459Y-53874147D01*
X220428093Y-56206283D01*
X221258591Y-57783301D01*
X222274469Y-59740218D01*
X223260244Y-61683174D01*
X224184874Y-63547076D01*
X225017317Y-65266827D01*
X225726533Y-66777331D01*
X226281478Y-68013493D01*
X226651112Y-68910218D01*
X226804393Y-69402410D01*
X226805921Y-69416340D01*
X227069186Y-69720177D01*
X227574032Y-69759690D01*
X228359767Y-69750785D01*
X228884267Y-69801312D01*
X229179669Y-69802859D01*
X229390663Y-69616302D01*
X229563979Y-69142119D01*
X229746351Y-68280789D01*
X229838892Y-67768302D01*
X229993185Y-66825799D01*
X230128067Y-65830233D01*
X230247209Y-64723639D01*
X230354280Y-63448049D01*
X230452956Y-61945498D01*
X230546904Y-60158019D01*
X230639799Y-58027644D01*
X230735312Y-55496409D01*
X230837114Y-52506345D01*
X230870255Y-51485531D01*
X230983819Y-48114821D01*
X231093076Y-45242341D01*
X231201446Y-42831639D01*
X231312347Y-40846267D01*
X231429195Y-39249771D01*
X231555411Y-38005701D01*
X231694411Y-37077607D01*
X231849613Y-36429037D01*
X232024436Y-36023540D01*
X232222298Y-35824666D01*
X232342028Y-35790164D01*
X232803709Y-35858434D01*
X233548718Y-36069616D01*
X233985602Y-36220419D01*
X234923734Y-36486072D01*
X235439656Y-36440033D01*
X235489112Y-36396019D01*
X235405203Y-36134502D01*
X234945887Y-35736293D01*
X234230517Y-35267572D01*
X233378444Y-34794517D01*
X232509020Y-34383309D01*
X231741598Y-34100129D01*
X231195530Y-34011155D01*
X231189093Y-34011685D01*
X230644506Y-34134628D01*
X230270759Y-34457395D01*
X230005452Y-35083432D01*
X229786185Y-36116188D01*
X229735925Y-36420754D01*
X229626173Y-37189811D01*
X229535662Y-38035120D01*
X229462999Y-39010745D01*
X229406789Y-40170754D01*
X229365635Y-41569208D01*
X229338146Y-43260172D01*
X229322927Y-45297714D01*
X229318581Y-47735896D01*
X229323715Y-50628784D01*
X229329129Y-52192495D01*
X229332892Y-55890596D01*
X229313079Y-59075774D01*
X229269070Y-61769352D01*
X229200250Y-63992652D01*
X229105998Y-65766996D01*
X228985697Y-67113705D01*
X228874596Y-67874458D01*
X228834442Y-68122024D01*
X228795015Y-68304063D01*
X228730067Y-68377111D01*
X228613352Y-68297709D01*
X228418621Y-68022390D01*
X228119628Y-67507695D01*
X227690124Y-66710160D01*
X227103862Y-65586323D01*
X226334595Y-64092720D01*
X225356074Y-62185891D01*
X224885243Y-61268598D01*
X224387565Y-60282518D01*
X223724319Y-58943026D01*
X222924649Y-57310964D01*
X222017694Y-55447176D01*
X221032597Y-53412504D01*
X219998498Y-51267795D01*
X218944539Y-49073889D01*
X217899863Y-46891631D01*
X216893610Y-44781865D01*
X215954921Y-42805432D01*
X215112939Y-41023178D01*
X214396805Y-39495946D01*
X213835661Y-38284579D01*
X213458647Y-37449920D01*
X213318589Y-37119012D01*
X213288794Y-36941407D01*
X213406332Y-36803784D01*
X213745549Y-36690570D01*
X214380787Y-36586193D01*
X215386388Y-36475078D01*
X216836697Y-36341650D01*
X217168663Y-36312493D01*
X218738555Y-36167922D01*
X219847987Y-36044273D01*
X220570107Y-35927766D01*
X220978065Y-35804626D01*
X221145011Y-35661073D01*
X221160039Y-35560708D01*
X221081711Y-35425759D01*
X220830280Y-35342894D01*
X220338879Y-35312701D01*
X219540640Y-35335767D01*
X218368694Y-35412683D01*
X216756174Y-35544035D01*
X216043928Y-35605724D01*
X210962771Y-36050268D01*
X210168879Y-35381653D01*
X209549093Y-34803527D01*
X209074844Y-34266616D01*
X209033446Y-34208376D01*
X208711199Y-33890038D01*
X208529593Y-33897150D01*
X208601573Y-34180531D01*
X208898011Y-34855726D01*
X209382253Y-35847897D01*
X210017646Y-37082207D01*
X210767536Y-38483817D01*
X210850989Y-38636848D01*
X213334700Y-43183109D01*
X213579721Y-51367739D01*
X213690509Y-55455347D01*
X213762116Y-59014453D01*
X213794398Y-62049866D01*
X213787210Y-64566394D01*
X213740406Y-66568847D01*
X213653840Y-68062032D01*
X213527368Y-69050758D01*
X213360845Y-69539834D01*
X213154125Y-69534068D01*
X213036539Y-69348914D01*
X212877852Y-69043120D01*
X212500594Y-68321612D01*
X211934985Y-67242013D01*
X211211239Y-65861947D01*
X210359571Y-64239037D01*
X209410199Y-62430908D01*
X208697703Y-61074485D01*
X207832592Y-59416995D01*
X206866580Y-57547497D01*
X205826696Y-55519910D01*
X204739967Y-53388151D01*
X203633418Y-51206137D01*
X202534079Y-49027787D01*
X201468975Y-46907018D01*
X200465133Y-44897747D01*
X199549582Y-43053893D01*
X198749346Y-41429371D01*
X198091455Y-40078102D01*
X197602934Y-39054002D01*
X197310811Y-38410987D01*
X197236793Y-38210527D01*
X197470406Y-38105611D01*
X198087058Y-37995644D01*
X198688334Y-37929312D01*
X199568636Y-37816152D01*
X200012457Y-37650498D01*
X200118310Y-37401620D01*
X200011557Y-37219714D01*
X199671221Y-37128182D01*
X199007042Y-37120869D01*
X197928761Y-37191619D01*
X197532533Y-37225262D01*
X196335955Y-37320905D01*
X195538519Y-37344007D01*
X195007449Y-37276885D01*
X194609973Y-37101858D01*
X194213314Y-36801241D01*
X194187819Y-36779814D01*
X193568032Y-36201688D01*
X193093784Y-35664778D01*
X193052386Y-35606537D01*
X192730647Y-35287521D01*
X192550046Y-35293507D01*
X192647870Y-35555344D01*
G37*
X192647870Y-35555344D02*
X192987524Y-36238730D01*
X193545656Y-37300859D01*
X194298917Y-38698930D01*
X195223954Y-40390138D01*
X196297416Y-42331680D01*
X197495952Y-44480750D01*
X198796212Y-46794548D01*
X199606155Y-48227623D01*
X201416540Y-51426843D01*
X202984466Y-54204814D01*
X204333035Y-56604417D01*
X205485351Y-58668536D01*
X206464517Y-60440054D01*
X207293638Y-61961855D01*
X207995816Y-63276820D01*
X208594153Y-64427835D01*
X209111754Y-65457781D01*
X209571723Y-66409542D01*
X209997163Y-67326001D01*
X210411176Y-68250040D01*
X210491532Y-68432458D01*
X211627411Y-71016979D01*
X212757265Y-71111883D01*
X213501588Y-71138867D01*
X214004674Y-71092140D01*
X214083997Y-71059947D01*
X214275009Y-70651582D01*
X214452775Y-69743628D01*
X214615241Y-68371119D01*
X214760350Y-66569085D01*
X214886044Y-64372559D01*
X214990270Y-61816572D01*
X215070969Y-58936156D01*
X215126086Y-55766343D01*
X215151252Y-52877415D01*
X215162751Y-51141170D01*
X215178452Y-49593690D01*
X215197125Y-48311735D01*
X215217543Y-47372064D01*
X215238478Y-46851432D01*
X215248903Y-46772056D01*
X215400500Y-46965857D01*
X215779038Y-47600827D01*
X216366011Y-48643051D01*
X217142911Y-50058619D01*
X218091229Y-51813621D01*
X219192459Y-53874147D01*
X220428093Y-56206283D01*
X221258591Y-57783301D01*
X222274469Y-59740218D01*
X223260244Y-61683174D01*
X224184874Y-63547076D01*
X225017317Y-65266827D01*
X225726533Y-66777331D01*
X226281478Y-68013493D01*
X226651112Y-68910218D01*
X226804393Y-69402410D01*
X226805921Y-69416340D01*
X227069186Y-69720177D01*
X227574032Y-69759690D01*
X228359767Y-69750785D01*
X228884267Y-69801312D01*
X229179669Y-69802859D01*
X229390663Y-69616302D01*
X229563979Y-69142119D01*
X229746351Y-68280789D01*
X229838892Y-67768302D01*
X229993185Y-66825799D01*
X230128067Y-65830233D01*
X230247209Y-64723639D01*
X230354280Y-63448049D01*
X230452956Y-61945498D01*
X230546904Y-60158019D01*
X230639799Y-58027644D01*
X230735312Y-55496409D01*
X230837114Y-52506345D01*
X230870255Y-51485531D01*
X230983819Y-48114821D01*
X231093076Y-45242341D01*
X231201446Y-42831639D01*
X231312347Y-40846267D01*
X231429195Y-39249771D01*
X231555411Y-38005701D01*
X231694411Y-37077607D01*
X231849613Y-36429037D01*
X232024436Y-36023540D01*
X232222298Y-35824666D01*
X232342028Y-35790164D01*
X232803709Y-35858434D01*
X233548718Y-36069616D01*
X233985602Y-36220419D01*
X234923734Y-36486072D01*
X235439656Y-36440033D01*
X235489112Y-36396019D01*
X235405203Y-36134502D01*
X234945887Y-35736293D01*
X234230517Y-35267572D01*
X233378444Y-34794517D01*
X232509020Y-34383309D01*
X231741598Y-34100129D01*
X231195530Y-34011155D01*
X231189093Y-34011685D01*
X230644506Y-34134628D01*
X230270759Y-34457395D01*
X230005452Y-35083432D01*
X229786185Y-36116188D01*
X229735925Y-36420754D01*
X229626173Y-37189811D01*
X229535662Y-38035120D01*
X229462999Y-39010745D01*
X229406789Y-40170754D01*
X229365635Y-41569208D01*
X229338146Y-43260172D01*
X229322927Y-45297714D01*
X229318581Y-47735896D01*
X229323715Y-50628784D01*
X229329129Y-52192495D01*
X229332892Y-55890596D01*
X229313079Y-59075774D01*
X229269070Y-61769352D01*
X229200250Y-63992652D01*
X229105998Y-65766996D01*
X228985697Y-67113705D01*
X228874596Y-67874458D01*
X228834442Y-68122024D01*
X228795015Y-68304063D01*
X228730067Y-68377111D01*
X228613352Y-68297709D01*
X228418621Y-68022390D01*
X228119628Y-67507695D01*
X227690124Y-66710160D01*
X227103862Y-65586323D01*
X226334595Y-64092720D01*
X225356074Y-62185891D01*
X224885243Y-61268598D01*
X224387565Y-60282518D01*
X223724319Y-58943026D01*
X222924649Y-57310964D01*
X222017694Y-55447176D01*
X221032597Y-53412504D01*
X219998498Y-51267795D01*
X218944539Y-49073889D01*
X217899863Y-46891631D01*
X216893610Y-44781865D01*
X215954921Y-42805432D01*
X215112939Y-41023178D01*
X214396805Y-39495946D01*
X213835661Y-38284579D01*
X213458647Y-37449920D01*
X213318589Y-37119012D01*
X213288794Y-36941407D01*
X213406332Y-36803784D01*
X213745549Y-36690570D01*
X214380787Y-36586193D01*
X215386388Y-36475078D01*
X216836697Y-36341650D01*
X217168663Y-36312493D01*
X218738555Y-36167922D01*
X219847987Y-36044273D01*
X220570107Y-35927766D01*
X220978065Y-35804626D01*
X221145011Y-35661073D01*
X221160039Y-35560708D01*
X221081711Y-35425759D01*
X220830280Y-35342894D01*
X220338879Y-35312701D01*
X219540640Y-35335767D01*
X218368694Y-35412683D01*
X216756174Y-35544035D01*
X216043928Y-35605724D01*
X210962771Y-36050268D01*
X210168879Y-35381653D01*
X209549093Y-34803527D01*
X209074844Y-34266616D01*
X209033446Y-34208376D01*
X208711199Y-33890038D01*
X208529593Y-33897150D01*
X208601573Y-34180531D01*
X208898011Y-34855726D01*
X209382253Y-35847897D01*
X210017646Y-37082207D01*
X210767536Y-38483817D01*
X210850989Y-38636848D01*
X213334700Y-43183109D01*
X213579721Y-51367739D01*
X213690509Y-55455347D01*
X213762116Y-59014453D01*
X213794398Y-62049866D01*
X213787210Y-64566394D01*
X213740406Y-66568847D01*
X213653840Y-68062032D01*
X213527368Y-69050758D01*
X213360845Y-69539834D01*
X213154125Y-69534068D01*
X213036539Y-69348914D01*
X212877852Y-69043120D01*
X212500594Y-68321612D01*
X211934985Y-67242013D01*
X211211239Y-65861947D01*
X210359571Y-64239037D01*
X209410199Y-62430908D01*
X208697703Y-61074485D01*
X207832592Y-59416995D01*
X206866580Y-57547497D01*
X205826696Y-55519910D01*
X204739967Y-53388151D01*
X203633418Y-51206137D01*
X202534079Y-49027787D01*
X201468975Y-46907018D01*
X200465133Y-44897747D01*
X199549582Y-43053893D01*
X198749346Y-41429371D01*
X198091455Y-40078102D01*
X197602934Y-39054002D01*
X197310811Y-38410987D01*
X197236793Y-38210527D01*
X197470406Y-38105611D01*
X198087058Y-37995644D01*
X198688334Y-37929312D01*
X199568636Y-37816152D01*
X200012457Y-37650498D01*
X200118310Y-37401620D01*
X200011557Y-37219714D01*
X199671221Y-37128182D01*
X199007042Y-37120869D01*
X197928761Y-37191619D01*
X197532533Y-37225262D01*
X196335955Y-37320905D01*
X195538519Y-37344007D01*
X195007449Y-37276885D01*
X194609973Y-37101858D01*
X194213314Y-36801241D01*
X194187819Y-36779814D01*
X193568032Y-36201688D01*
X193093784Y-35664778D01*
X193052386Y-35606537D01*
X192730647Y-35287521D01*
X192550046Y-35293507D01*
X192647870Y-35555344D01*
G36*
X178065709Y-49952842D02*
G01*
X178236272Y-50682314D01*
X178520012Y-51786480D01*
X178898691Y-53196002D01*
X179354073Y-54841544D01*
X179820595Y-56488577D01*
X180405763Y-58542418D01*
X180859202Y-60171070D01*
X181199068Y-61462644D01*
X181443520Y-62505252D01*
X181610713Y-63387007D01*
X181718805Y-64196020D01*
X181785953Y-65020401D01*
X181830315Y-65948264D01*
X181843517Y-66305342D01*
X181869747Y-68454350D01*
X181775485Y-70097018D01*
X181558812Y-71248431D01*
X181217804Y-71923677D01*
X181115761Y-72017691D01*
X180506620Y-72147801D01*
X179576692Y-71866928D01*
X178339553Y-71181393D01*
X176808781Y-70097518D01*
X176532893Y-69883939D01*
X175414101Y-69057709D01*
X174663209Y-68599373D01*
X174284504Y-68484748D01*
X174282269Y-68689646D01*
X174660788Y-69189884D01*
X175424347Y-69961276D01*
X176369888Y-70804052D01*
X178010013Y-72154720D01*
X179329276Y-73128375D01*
X180362626Y-73747184D01*
X181145008Y-74033319D01*
X181495583Y-74055757D01*
X182104429Y-73751075D01*
X182599548Y-73021048D01*
X182927653Y-71971639D01*
X183033406Y-70997783D01*
X183064922Y-69953155D01*
X183101821Y-68768149D01*
X183116199Y-68317088D01*
X183162567Y-66876188D01*
X184226938Y-68660731D01*
X185435553Y-70331908D01*
X186824804Y-71647967D01*
X188327474Y-72574861D01*
X189876342Y-73078544D01*
X191404188Y-73124970D01*
X192485223Y-72843521D01*
X194033299Y-71944802D01*
X195245944Y-70632901D01*
X196118335Y-68914927D01*
X196645648Y-66797985D01*
X196661667Y-66690128D01*
X196773653Y-64671577D01*
X196616731Y-62645035D01*
X194328875Y-62845196D01*
X194417260Y-65238404D01*
X194185984Y-67247598D01*
X193621865Y-68926961D01*
X192711714Y-70330681D01*
X192431528Y-70641792D01*
X191357580Y-71435219D01*
X190165417Y-71711747D01*
X188885277Y-71468194D01*
X188126790Y-71094820D01*
X186860197Y-70077950D01*
X185650367Y-68607865D01*
X184560028Y-66766049D01*
X184185089Y-65974410D01*
X183868207Y-65173282D01*
X183575567Y-64229129D01*
X183295257Y-63080048D01*
X183015369Y-61664135D01*
X182723992Y-59919483D01*
X182409216Y-57784188D01*
X182059130Y-55196347D01*
X181949756Y-54355911D01*
X181718200Y-52563977D01*
X184723252Y-52301631D01*
X186391398Y-52189109D01*
X187655295Y-52200608D01*
X188635849Y-52359334D01*
X189453956Y-52688499D01*
X190230523Y-53211311D01*
X190467444Y-53404329D01*
X191767706Y-54826779D01*
X192831664Y-56695761D01*
X193642516Y-58970201D01*
X194183464Y-61609023D01*
X194328875Y-62845196D01*
X196616731Y-62645035D01*
X196598110Y-62404558D01*
X196162181Y-60072950D01*
X195493009Y-57860635D01*
X195277132Y-57310671D01*
X194197994Y-55237920D01*
X192836858Y-53484090D01*
X191261821Y-52125843D01*
X190075420Y-51454620D01*
X189460423Y-51185699D01*
X188938765Y-51005642D01*
X188397151Y-50907015D01*
X187722287Y-50882380D01*
X186800876Y-50924304D01*
X185519624Y-51025349D01*
X184665038Y-51099533D01*
X182946866Y-51233043D01*
X181659036Y-51277752D01*
X180701917Y-51216084D01*
X179975877Y-51030460D01*
X179381288Y-50703305D01*
X178818516Y-50217041D01*
X178640134Y-50036618D01*
X178239046Y-49706876D01*
X178026559Y-49667402D01*
X178065709Y-49952842D01*
G37*
X178065709Y-49952842D02*
X178236272Y-50682314D01*
X178520012Y-51786480D01*
X178898691Y-53196002D01*
X179354073Y-54841544D01*
X179820595Y-56488577D01*
X180405763Y-58542418D01*
X180859202Y-60171070D01*
X181199068Y-61462644D01*
X181443520Y-62505252D01*
X181610713Y-63387007D01*
X181718805Y-64196020D01*
X181785953Y-65020401D01*
X181830315Y-65948264D01*
X181843517Y-66305342D01*
X181869747Y-68454350D01*
X181775485Y-70097018D01*
X181558812Y-71248431D01*
X181217804Y-71923677D01*
X181115761Y-72017691D01*
X180506620Y-72147801D01*
X179576692Y-71866928D01*
X178339553Y-71181393D01*
X176808781Y-70097518D01*
X176532893Y-69883939D01*
X175414101Y-69057709D01*
X174663209Y-68599373D01*
X174284504Y-68484748D01*
X174282269Y-68689646D01*
X174660788Y-69189884D01*
X175424347Y-69961276D01*
X176369888Y-70804052D01*
X178010013Y-72154720D01*
X179329276Y-73128375D01*
X180362626Y-73747184D01*
X181145008Y-74033319D01*
X181495583Y-74055757D01*
X182104429Y-73751075D01*
X182599548Y-73021048D01*
X182927653Y-71971639D01*
X183033406Y-70997783D01*
X183064922Y-69953155D01*
X183101821Y-68768149D01*
X183116199Y-68317088D01*
X183162567Y-66876188D01*
X184226938Y-68660731D01*
X185435553Y-70331908D01*
X186824804Y-71647967D01*
X188327474Y-72574861D01*
X189876342Y-73078544D01*
X191404188Y-73124970D01*
X192485223Y-72843521D01*
X194033299Y-71944802D01*
X195245944Y-70632901D01*
X196118335Y-68914927D01*
X196645648Y-66797985D01*
X196661667Y-66690128D01*
X196773653Y-64671577D01*
X196616731Y-62645035D01*
X194328875Y-62845196D01*
X194417260Y-65238404D01*
X194185984Y-67247598D01*
X193621865Y-68926961D01*
X192711714Y-70330681D01*
X192431528Y-70641792D01*
X191357580Y-71435219D01*
X190165417Y-71711747D01*
X188885277Y-71468194D01*
X188126790Y-71094820D01*
X186860197Y-70077950D01*
X185650367Y-68607865D01*
X184560028Y-66766049D01*
X184185089Y-65974410D01*
X183868207Y-65173282D01*
X183575567Y-64229129D01*
X183295257Y-63080048D01*
X183015369Y-61664135D01*
X182723992Y-59919483D01*
X182409216Y-57784188D01*
X182059130Y-55196347D01*
X181949756Y-54355911D01*
X181718200Y-52563977D01*
X184723252Y-52301631D01*
X186391398Y-52189109D01*
X187655295Y-52200608D01*
X188635849Y-52359334D01*
X189453956Y-52688499D01*
X190230523Y-53211311D01*
X190467444Y-53404329D01*
X191767706Y-54826779D01*
X192831664Y-56695761D01*
X193642516Y-58970201D01*
X194183464Y-61609023D01*
X194328875Y-62845196D01*
X196616731Y-62645035D01*
X196598110Y-62404558D01*
X196162181Y-60072950D01*
X195493009Y-57860635D01*
X195277132Y-57310671D01*
X194197994Y-55237920D01*
X192836858Y-53484090D01*
X191261821Y-52125843D01*
X190075420Y-51454620D01*
X189460423Y-51185699D01*
X188938765Y-51005642D01*
X188397151Y-50907015D01*
X187722287Y-50882380D01*
X186800876Y-50924304D01*
X185519624Y-51025349D01*
X184665038Y-51099533D01*
X182946866Y-51233043D01*
X181659036Y-51277752D01*
X180701917Y-51216084D01*
X179975877Y-51030460D01*
X179381288Y-50703305D01*
X178818516Y-50217041D01*
X178640134Y-50036618D01*
X178239046Y-49706876D01*
X178026559Y-49667402D01*
X178065709Y-49952842D01*
G36*
X109261369Y-39480655D02*
G01*
X107136601Y-40380988D01*
X105259130Y-41610216D01*
X103702555Y-43124832D01*
X102540479Y-44881334D01*
X102132492Y-45830771D01*
X101778076Y-47196874D01*
X101694559Y-48631111D01*
X101894170Y-50218341D01*
X102389140Y-52043424D01*
X103191699Y-54191221D01*
X103413957Y-54723013D01*
X103949097Y-55980035D01*
X104416700Y-57072456D01*
X104773357Y-57899295D01*
X104975658Y-58359572D01*
X104996812Y-58405088D01*
X104939375Y-58557513D01*
X104564080Y-58690432D01*
X103808174Y-58816156D01*
X102608911Y-58946994D01*
X101910553Y-59010588D01*
X100257321Y-59135568D01*
X99029483Y-59150038D01*
X98122129Y-59012218D01*
X97430349Y-58680321D01*
X96849237Y-58112565D01*
X96273881Y-57267168D01*
X95889685Y-56612591D01*
X95398038Y-55831819D01*
X95059370Y-55497407D01*
X94828852Y-55555567D01*
X94764240Y-55870215D01*
X94914284Y-56466999D01*
X95300576Y-57414163D01*
X95667415Y-58205664D01*
X96776543Y-60533314D01*
X105673293Y-59754949D01*
X106788207Y-63079376D01*
X107764456Y-66154219D01*
X108496521Y-68846502D01*
X109003286Y-71239216D01*
X109303637Y-73415353D01*
X109384504Y-74488719D01*
X109441949Y-75721759D01*
X109443363Y-76545844D01*
X109368658Y-77085550D01*
X109197750Y-77465447D01*
X108910552Y-77810112D01*
X108836645Y-77886542D01*
X108218987Y-78376456D01*
X107624185Y-78636924D01*
X107564916Y-78645124D01*
X106760718Y-78539047D01*
X105639646Y-78144034D01*
X104302043Y-77505623D01*
X102848249Y-76669355D01*
X102009101Y-76123672D01*
X100899702Y-75424368D01*
X100185328Y-75078111D01*
X99883073Y-75061301D01*
X100010032Y-75350335D01*
X100583302Y-75921611D01*
X101577420Y-76719679D01*
X103623088Y-78191879D01*
X105341262Y-79282079D01*
X106768885Y-79999594D01*
X107942901Y-80353738D01*
X108900252Y-80353827D01*
X109677885Y-80009176D01*
X110312743Y-79329100D01*
X110528675Y-78976662D01*
X110824171Y-78326835D01*
X111020236Y-77582802D01*
X111111569Y-76692124D01*
X111092868Y-75602370D01*
X110958831Y-74261103D01*
X110704157Y-72615889D01*
X110323544Y-70614293D01*
X109811690Y-68203881D01*
X109163294Y-65332218D01*
X109137946Y-65222210D01*
X108760681Y-63583972D01*
X108427239Y-62132490D01*
X108155231Y-60944722D01*
X107962270Y-60097627D01*
X107865967Y-59668161D01*
X107858365Y-59630877D01*
X108103455Y-59581269D01*
X108768985Y-59500697D01*
X109742441Y-59401850D01*
X110516009Y-59331266D01*
X111727634Y-59217896D01*
X112500634Y-59115212D01*
X112929740Y-58995495D01*
X113109682Y-58831026D01*
X113135192Y-58594086D01*
X113132914Y-58565537D01*
X113076579Y-58329777D01*
X112893594Y-58190195D01*
X112487615Y-58136808D01*
X111762296Y-58159633D01*
X110621295Y-58248688D01*
X110324100Y-58274498D01*
X107561892Y-58516160D01*
X106769967Y-54895085D01*
X106381391Y-53225037D01*
X106031704Y-52017664D01*
X105682930Y-51206459D01*
X105297087Y-50724914D01*
X104836199Y-50506520D01*
X104262285Y-50484771D01*
X104251994Y-50485656D01*
X103480668Y-50341498D01*
X102959567Y-49807863D01*
X102689409Y-48968236D01*
X102670910Y-47906100D01*
X102904791Y-46704938D01*
X103391770Y-45448234D01*
X104132565Y-44219470D01*
X104197311Y-44132184D01*
X105740096Y-42507124D01*
X107592788Y-41253823D01*
X109674634Y-40378894D01*
X111904884Y-39888956D01*
X114202783Y-39790625D01*
X116487580Y-40090514D01*
X118678522Y-40795241D01*
X120694857Y-41911422D01*
X121695096Y-42698604D01*
X123022084Y-44039191D01*
X123914404Y-45371678D01*
X124449036Y-46843383D01*
X124689712Y-48429198D01*
X124650326Y-50637730D01*
X124170809Y-52634556D01*
X123277513Y-54368177D01*
X121996790Y-55787091D01*
X120396062Y-56820346D01*
X118821047Y-57414193D01*
X117515073Y-57555080D01*
X116457523Y-57239539D01*
X115627784Y-56464102D01*
X115324878Y-55967355D01*
X114974141Y-55457077D01*
X114658752Y-55224907D01*
X114491003Y-55311415D01*
X114557096Y-55689943D01*
X114959618Y-56732934D01*
X115433442Y-57887356D01*
X115932053Y-59048964D01*
X116408934Y-60113510D01*
X116817568Y-60976748D01*
X117111440Y-61534429D01*
X117234665Y-61690582D01*
X117514077Y-61510645D01*
X118057528Y-61049073D01*
X118751396Y-60402802D01*
X118804927Y-60350952D01*
X120242988Y-59073142D01*
X121514640Y-58235944D01*
X122711980Y-57811872D01*
X123927102Y-57773432D01*
X125252099Y-58093137D01*
X125745645Y-58279207D01*
X126742338Y-58917385D01*
X127506433Y-59852691D01*
X127931908Y-60924381D01*
X127972964Y-61656156D01*
X127619329Y-62630967D01*
X126782473Y-63672074D01*
X125502769Y-64737177D01*
X124282162Y-65523096D01*
X122346674Y-66663155D01*
X120823081Y-67590811D01*
X119654689Y-68351283D01*
X118784805Y-68989793D01*
X118156736Y-69551560D01*
X117713789Y-70081805D01*
X117399272Y-70625750D01*
X117167109Y-71198337D01*
X116874149Y-72739708D01*
X117071511Y-74200209D01*
X117716001Y-75535090D01*
X118764423Y-76699604D01*
X120173585Y-77649003D01*
X121900290Y-78338537D01*
X123901348Y-78723460D01*
X124474778Y-78768894D01*
X125574509Y-78823680D01*
X126337426Y-78825587D01*
X126960320Y-78756510D01*
X127639983Y-78598346D01*
X128274237Y-78419353D01*
X129079247Y-78115551D01*
X130125611Y-77624936D01*
X131203058Y-77047006D01*
X131329197Y-76973730D01*
X132260838Y-76450967D01*
X133051024Y-76050742D01*
X133560832Y-75842208D01*
X133631312Y-75827830D01*
X133838005Y-75730628D01*
X133907419Y-75414355D01*
X133844576Y-74769308D01*
X133714618Y-74008911D01*
X133537623Y-73000157D01*
X133398905Y-72129348D01*
X133333202Y-71626774D01*
X133187561Y-71128855D01*
X132935497Y-71079324D01*
X132652949Y-71423891D01*
X132415860Y-72108262D01*
X132375087Y-72311757D01*
X131930196Y-73598530D01*
X131110574Y-74893126D01*
X130043169Y-76018277D01*
X129357624Y-76525213D01*
X128187054Y-77053400D01*
X126735317Y-77419938D01*
X125243001Y-77580281D01*
X124047149Y-77508487D01*
X122782827Y-77135568D01*
X121509137Y-76519190D01*
X120451136Y-75776927D01*
X120131287Y-75462758D01*
X119721218Y-74771373D01*
X119397417Y-73815110D01*
X119323724Y-73462632D01*
X119217379Y-72575858D01*
X119307210Y-71949990D01*
X119639330Y-71332680D01*
X119739580Y-71187052D01*
X120334100Y-70562850D01*
X121287828Y-69816605D01*
X122473037Y-69047256D01*
X122594211Y-68975872D01*
X124342086Y-67950537D01*
X125692419Y-67143372D01*
X126712659Y-66508495D01*
X127470257Y-66000022D01*
X128032666Y-65572073D01*
X128467336Y-65178765D01*
X128841718Y-64774216D01*
X128938561Y-64660273D01*
X129799828Y-63295628D01*
X130165245Y-61909945D01*
X130067936Y-60560467D01*
X129541026Y-59304440D01*
X128617639Y-58199107D01*
X127330902Y-57301714D01*
X125713938Y-56669505D01*
X124151670Y-56387839D01*
X123140641Y-56289792D01*
X123972101Y-55126805D01*
X124872914Y-53450620D01*
X125443466Y-51456835D01*
X125648723Y-49273701D01*
X125646972Y-48995117D01*
X125360961Y-46709523D01*
X124595355Y-44654323D01*
X123363383Y-42852378D01*
X121678272Y-41326548D01*
X120917265Y-40821076D01*
X118859713Y-39794453D01*
X116635184Y-39149406D01*
X114110875Y-38848142D01*
X113958386Y-38840690D01*
X111559831Y-38952721D01*
X109261369Y-39480655D01*
G37*
X109261369Y-39480655D02*
X107136601Y-40380988D01*
X105259130Y-41610216D01*
X103702555Y-43124832D01*
X102540479Y-44881334D01*
X102132492Y-45830771D01*
X101778076Y-47196874D01*
X101694559Y-48631111D01*
X101894170Y-50218341D01*
X102389140Y-52043424D01*
X103191699Y-54191221D01*
X103413957Y-54723013D01*
X103949097Y-55980035D01*
X104416700Y-57072456D01*
X104773357Y-57899295D01*
X104975658Y-58359572D01*
X104996812Y-58405088D01*
X104939375Y-58557513D01*
X104564080Y-58690432D01*
X103808174Y-58816156D01*
X102608911Y-58946994D01*
X101910553Y-59010588D01*
X100257321Y-59135568D01*
X99029483Y-59150038D01*
X98122129Y-59012218D01*
X97430349Y-58680321D01*
X96849237Y-58112565D01*
X96273881Y-57267168D01*
X95889685Y-56612591D01*
X95398038Y-55831819D01*
X95059370Y-55497407D01*
X94828852Y-55555567D01*
X94764240Y-55870215D01*
X94914284Y-56466999D01*
X95300576Y-57414163D01*
X95667415Y-58205664D01*
X96776543Y-60533314D01*
X105673293Y-59754949D01*
X106788207Y-63079376D01*
X107764456Y-66154219D01*
X108496521Y-68846502D01*
X109003286Y-71239216D01*
X109303637Y-73415353D01*
X109384504Y-74488719D01*
X109441949Y-75721759D01*
X109443363Y-76545844D01*
X109368658Y-77085550D01*
X109197750Y-77465447D01*
X108910552Y-77810112D01*
X108836645Y-77886542D01*
X108218987Y-78376456D01*
X107624185Y-78636924D01*
X107564916Y-78645124D01*
X106760718Y-78539047D01*
X105639646Y-78144034D01*
X104302043Y-77505623D01*
X102848249Y-76669355D01*
X102009101Y-76123672D01*
X100899702Y-75424368D01*
X100185328Y-75078111D01*
X99883073Y-75061301D01*
X100010032Y-75350335D01*
X100583302Y-75921611D01*
X101577420Y-76719679D01*
X103623088Y-78191879D01*
X105341262Y-79282079D01*
X106768885Y-79999594D01*
X107942901Y-80353738D01*
X108900252Y-80353827D01*
X109677885Y-80009176D01*
X110312743Y-79329100D01*
X110528675Y-78976662D01*
X110824171Y-78326835D01*
X111020236Y-77582802D01*
X111111569Y-76692124D01*
X111092868Y-75602370D01*
X110958831Y-74261103D01*
X110704157Y-72615889D01*
X110323544Y-70614293D01*
X109811690Y-68203881D01*
X109163294Y-65332218D01*
X109137946Y-65222210D01*
X108760681Y-63583972D01*
X108427239Y-62132490D01*
X108155231Y-60944722D01*
X107962270Y-60097627D01*
X107865967Y-59668161D01*
X107858365Y-59630877D01*
X108103455Y-59581269D01*
X108768985Y-59500697D01*
X109742441Y-59401850D01*
X110516009Y-59331266D01*
X111727634Y-59217896D01*
X112500634Y-59115212D01*
X112929740Y-58995495D01*
X113109682Y-58831026D01*
X113135192Y-58594086D01*
X113132914Y-58565537D01*
X113076579Y-58329777D01*
X112893594Y-58190195D01*
X112487615Y-58136808D01*
X111762296Y-58159633D01*
X110621295Y-58248688D01*
X110324100Y-58274498D01*
X107561892Y-58516160D01*
X106769967Y-54895085D01*
X106381391Y-53225037D01*
X106031704Y-52017664D01*
X105682930Y-51206459D01*
X105297087Y-50724914D01*
X104836199Y-50506520D01*
X104262285Y-50484771D01*
X104251994Y-50485656D01*
X103480668Y-50341498D01*
X102959567Y-49807863D01*
X102689409Y-48968236D01*
X102670910Y-47906100D01*
X102904791Y-46704938D01*
X103391770Y-45448234D01*
X104132565Y-44219470D01*
X104197311Y-44132184D01*
X105740096Y-42507124D01*
X107592788Y-41253823D01*
X109674634Y-40378894D01*
X111904884Y-39888956D01*
X114202783Y-39790625D01*
X116487580Y-40090514D01*
X118678522Y-40795241D01*
X120694857Y-41911422D01*
X121695096Y-42698604D01*
X123022084Y-44039191D01*
X123914404Y-45371678D01*
X124449036Y-46843383D01*
X124689712Y-48429198D01*
X124650326Y-50637730D01*
X124170809Y-52634556D01*
X123277513Y-54368177D01*
X121996790Y-55787091D01*
X120396062Y-56820346D01*
X118821047Y-57414193D01*
X117515073Y-57555080D01*
X116457523Y-57239539D01*
X115627784Y-56464102D01*
X115324878Y-55967355D01*
X114974141Y-55457077D01*
X114658752Y-55224907D01*
X114491003Y-55311415D01*
X114557096Y-55689943D01*
X114959618Y-56732934D01*
X115433442Y-57887356D01*
X115932053Y-59048964D01*
X116408934Y-60113510D01*
X116817568Y-60976748D01*
X117111440Y-61534429D01*
X117234665Y-61690582D01*
X117514077Y-61510645D01*
X118057528Y-61049073D01*
X118751396Y-60402802D01*
X118804927Y-60350952D01*
X120242988Y-59073142D01*
X121514640Y-58235944D01*
X122711980Y-57811872D01*
X123927102Y-57773432D01*
X125252099Y-58093137D01*
X125745645Y-58279207D01*
X126742338Y-58917385D01*
X127506433Y-59852691D01*
X127931908Y-60924381D01*
X127972964Y-61656156D01*
X127619329Y-62630967D01*
X126782473Y-63672074D01*
X125502769Y-64737177D01*
X124282162Y-65523096D01*
X122346674Y-66663155D01*
X120823081Y-67590811D01*
X119654689Y-68351283D01*
X118784805Y-68989793D01*
X118156736Y-69551560D01*
X117713789Y-70081805D01*
X117399272Y-70625750D01*
X117167109Y-71198337D01*
X116874149Y-72739708D01*
X117071511Y-74200209D01*
X117716001Y-75535090D01*
X118764423Y-76699604D01*
X120173585Y-77649003D01*
X121900290Y-78338537D01*
X123901348Y-78723460D01*
X124474778Y-78768894D01*
X125574509Y-78823680D01*
X126337426Y-78825587D01*
X126960320Y-78756510D01*
X127639983Y-78598346D01*
X128274237Y-78419353D01*
X129079247Y-78115551D01*
X130125611Y-77624936D01*
X131203058Y-77047006D01*
X131329197Y-76973730D01*
X132260838Y-76450967D01*
X133051024Y-76050742D01*
X133560832Y-75842208D01*
X133631312Y-75827830D01*
X133838005Y-75730628D01*
X133907419Y-75414355D01*
X133844576Y-74769308D01*
X133714618Y-74008911D01*
X133537623Y-73000157D01*
X133398905Y-72129348D01*
X133333202Y-71626774D01*
X133187561Y-71128855D01*
X132935497Y-71079324D01*
X132652949Y-71423891D01*
X132415860Y-72108262D01*
X132375087Y-72311757D01*
X131930196Y-73598530D01*
X131110574Y-74893126D01*
X130043169Y-76018277D01*
X129357624Y-76525213D01*
X128187054Y-77053400D01*
X126735317Y-77419938D01*
X125243001Y-77580281D01*
X124047149Y-77508487D01*
X122782827Y-77135568D01*
X121509137Y-76519190D01*
X120451136Y-75776927D01*
X120131287Y-75462758D01*
X119721218Y-74771373D01*
X119397417Y-73815110D01*
X119323724Y-73462632D01*
X119217379Y-72575858D01*
X119307210Y-71949990D01*
X119639330Y-71332680D01*
X119739580Y-71187052D01*
X120334100Y-70562850D01*
X121287828Y-69816605D01*
X122473037Y-69047256D01*
X122594211Y-68975872D01*
X124342086Y-67950537D01*
X125692419Y-67143372D01*
X126712659Y-66508495D01*
X127470257Y-66000022D01*
X128032666Y-65572073D01*
X128467336Y-65178765D01*
X128841718Y-64774216D01*
X128938561Y-64660273D01*
X129799828Y-63295628D01*
X130165245Y-61909945D01*
X130067936Y-60560467D01*
X129541026Y-59304440D01*
X128617639Y-58199107D01*
X127330902Y-57301714D01*
X125713938Y-56669505D01*
X124151670Y-56387839D01*
X123140641Y-56289792D01*
X123972101Y-55126805D01*
X124872914Y-53450620D01*
X125443466Y-51456835D01*
X125648723Y-49273701D01*
X125646972Y-48995117D01*
X125360961Y-46709523D01*
X124595355Y-44654323D01*
X123363383Y-42852378D01*
X121678272Y-41326548D01*
X120917265Y-40821076D01*
X118859713Y-39794453D01*
X116635184Y-39149406D01*
X114110875Y-38848142D01*
X113958386Y-38840690D01*
X111559831Y-38952721D01*
X109261369Y-39480655D01*
G36*
X84498527Y-59882734D02*
G01*
X83755651Y-60038616D01*
X83186503Y-60297814D01*
X82610827Y-60723486D01*
X82429574Y-60876278D01*
X81046311Y-62401976D01*
X80059132Y-64254662D01*
X79485313Y-66383900D01*
X79342135Y-68739252D01*
X79406137Y-69702135D01*
X79930756Y-72533800D01*
X80899479Y-75132471D01*
X82288182Y-77447064D01*
X83941293Y-79305377D01*
X85397151Y-80411644D01*
X87033885Y-81232809D01*
X88734764Y-81738810D01*
X90383055Y-81899589D01*
X91862025Y-81685082D01*
X92392334Y-81481690D01*
X93969590Y-80452462D01*
X95229691Y-79043027D01*
X96153653Y-77317064D01*
X96722495Y-75338253D01*
X96917233Y-73170273D01*
X96718886Y-70876805D01*
X96186792Y-68752557D01*
X95686983Y-67368602D01*
X95163548Y-66140618D01*
X94661584Y-65156757D01*
X94226186Y-64505171D01*
X93902449Y-64274010D01*
X93895890Y-64274405D01*
X93397228Y-64542318D01*
X93222050Y-65217241D01*
X93372004Y-66279143D01*
X93655192Y-67197138D01*
X94138169Y-68922107D01*
X94451351Y-70827592D01*
X94582558Y-72743554D01*
X94519610Y-74499954D01*
X94274715Y-75846073D01*
X93734323Y-77177059D01*
X92961322Y-78415667D01*
X92056007Y-79437019D01*
X91118671Y-80116236D01*
X90716947Y-80275931D01*
X89214839Y-80471603D01*
X87785806Y-80181087D01*
X86392959Y-79389384D01*
X84999408Y-78081500D01*
X84822080Y-77879524D01*
X83711106Y-76278000D01*
X82790068Y-74340478D01*
X82100108Y-72216204D01*
X81682371Y-70054423D01*
X81577999Y-68004381D01*
X81726216Y-66649488D01*
X82236733Y-64919321D01*
X83001463Y-63435324D01*
X83961280Y-62251597D01*
X85057059Y-61422240D01*
X86229674Y-61001353D01*
X87419999Y-61043036D01*
X87743941Y-61143292D01*
X88579864Y-61581072D01*
X89213701Y-62244989D01*
X89716125Y-63237992D01*
X90156395Y-64657604D01*
X90457557Y-65699775D01*
X90722772Y-66309541D01*
X91000320Y-66582560D01*
X91147625Y-66621641D01*
X91398978Y-66601405D01*
X91513075Y-66401074D01*
X91501986Y-65911669D01*
X91377777Y-65024211D01*
X91346397Y-64826648D01*
X90910722Y-63054974D01*
X90209386Y-61681763D01*
X89189933Y-60615086D01*
X88770205Y-60311655D01*
X88165546Y-59943912D01*
X87626134Y-59744762D01*
X86974349Y-59683732D01*
X86032579Y-59730352D01*
X85595388Y-59767005D01*
X84498527Y-59882734D01*
G37*
X84498527Y-59882734D02*
X83755651Y-60038616D01*
X83186503Y-60297814D01*
X82610827Y-60723486D01*
X82429574Y-60876278D01*
X81046311Y-62401976D01*
X80059132Y-64254662D01*
X79485313Y-66383900D01*
X79342135Y-68739252D01*
X79406137Y-69702135D01*
X79930756Y-72533800D01*
X80899479Y-75132471D01*
X82288182Y-77447064D01*
X83941293Y-79305377D01*
X85397151Y-80411644D01*
X87033885Y-81232809D01*
X88734764Y-81738810D01*
X90383055Y-81899589D01*
X91862025Y-81685082D01*
X92392334Y-81481690D01*
X93969590Y-80452462D01*
X95229691Y-79043027D01*
X96153653Y-77317064D01*
X96722495Y-75338253D01*
X96917233Y-73170273D01*
X96718886Y-70876805D01*
X96186792Y-68752557D01*
X95686983Y-67368602D01*
X95163548Y-66140618D01*
X94661584Y-65156757D01*
X94226186Y-64505171D01*
X93902449Y-64274010D01*
X93895890Y-64274405D01*
X93397228Y-64542318D01*
X93222050Y-65217241D01*
X93372004Y-66279143D01*
X93655192Y-67197138D01*
X94138169Y-68922107D01*
X94451351Y-70827592D01*
X94582558Y-72743554D01*
X94519610Y-74499954D01*
X94274715Y-75846073D01*
X93734323Y-77177059D01*
X92961322Y-78415667D01*
X92056007Y-79437019D01*
X91118671Y-80116236D01*
X90716947Y-80275931D01*
X89214839Y-80471603D01*
X87785806Y-80181087D01*
X86392959Y-79389384D01*
X84999408Y-78081500D01*
X84822080Y-77879524D01*
X83711106Y-76278000D01*
X82790068Y-74340478D01*
X82100108Y-72216204D01*
X81682371Y-70054423D01*
X81577999Y-68004381D01*
X81726216Y-66649488D01*
X82236733Y-64919321D01*
X83001463Y-63435324D01*
X83961280Y-62251597D01*
X85057059Y-61422240D01*
X86229674Y-61001353D01*
X87419999Y-61043036D01*
X87743941Y-61143292D01*
X88579864Y-61581072D01*
X89213701Y-62244989D01*
X89716125Y-63237992D01*
X90156395Y-64657604D01*
X90457557Y-65699775D01*
X90722772Y-66309541D01*
X91000320Y-66582560D01*
X91147625Y-66621641D01*
X91398978Y-66601405D01*
X91513075Y-66401074D01*
X91501986Y-65911669D01*
X91377777Y-65024211D01*
X91346397Y-64826648D01*
X90910722Y-63054974D01*
X90209386Y-61681763D01*
X89189933Y-60615086D01*
X88770205Y-60311655D01*
X88165546Y-59943912D01*
X87626134Y-59744762D01*
X86974349Y-59683732D01*
X86032579Y-59730352D01*
X85595388Y-59767005D01*
X84498527Y-59882734D01*
G36*
X39928392Y-63692741D02*
G01*
X39240592Y-63939287D01*
X38467515Y-64361229D01*
X38367029Y-64421477D01*
X37057318Y-65466497D01*
X36222424Y-66747777D01*
X35851099Y-68287993D01*
X35856648Y-69483133D01*
X36158452Y-71054059D01*
X36818192Y-72398897D01*
X37906840Y-73643243D01*
X38497761Y-74156907D01*
X40000158Y-75133282D01*
X41868223Y-75963194D01*
X43942419Y-76600697D01*
X46063211Y-76999851D01*
X48071061Y-77114710D01*
X48662104Y-77084049D01*
X49375374Y-77052213D01*
X49715352Y-77176231D01*
X49839550Y-77547170D01*
X49863535Y-77778699D01*
X49830133Y-78480571D01*
X49670138Y-79433552D01*
X49515703Y-80069583D01*
X48838820Y-81686593D01*
X47843295Y-82901977D01*
X46569572Y-83710337D01*
X45058094Y-84106282D01*
X43349305Y-84084417D01*
X41483649Y-83639346D01*
X39501568Y-82765676D01*
X37703153Y-81645117D01*
X36706440Y-80975863D01*
X36063459Y-80642164D01*
X35725763Y-80627159D01*
X35644903Y-80913989D01*
X35646131Y-80929297D01*
X35856076Y-81157046D01*
X36411784Y-81623855D01*
X37224155Y-82257596D01*
X38029123Y-82858416D01*
X40304156Y-84331446D01*
X42428390Y-85300677D01*
X44417901Y-85770338D01*
X46288765Y-85744661D01*
X47654192Y-85391641D01*
X49111999Y-84617930D01*
X50294720Y-83458701D01*
X51253227Y-81859599D01*
X51510977Y-81270509D01*
X52284433Y-79374182D01*
X51978933Y-76162127D01*
X49927397Y-76341613D01*
X48282549Y-76263761D01*
X47099006Y-76162590D01*
X45874415Y-75989160D01*
X45268083Y-75869642D01*
X43397107Y-75260770D01*
X41692890Y-74369444D01*
X40258981Y-73268643D01*
X39198932Y-72031340D01*
X38813558Y-71320886D01*
X38410082Y-69828509D01*
X38455091Y-68410823D01*
X38888186Y-67136405D01*
X39648974Y-66073840D01*
X40677057Y-65291704D01*
X41912040Y-64858581D01*
X43293528Y-64843051D01*
X44286491Y-65106274D01*
X45721332Y-65933486D01*
X46980130Y-67239444D01*
X48044441Y-68991911D01*
X48895826Y-71158648D01*
X49515841Y-73707417D01*
X49643247Y-74470456D01*
X49927397Y-76341613D01*
X51978933Y-76162127D01*
X51940182Y-75754697D01*
X51605732Y-73210367D01*
X51106645Y-71082950D01*
X50404074Y-69269628D01*
X49459175Y-67667583D01*
X48380899Y-66333924D01*
X46909347Y-64961260D01*
X45388546Y-64068063D01*
X43701134Y-63603418D01*
X41874586Y-63511417D01*
X40737522Y-63567986D01*
X39928392Y-63692741D01*
G37*
X39928392Y-63692741D02*
X39240592Y-63939287D01*
X38467515Y-64361229D01*
X38367029Y-64421477D01*
X37057318Y-65466497D01*
X36222424Y-66747777D01*
X35851099Y-68287993D01*
X35856648Y-69483133D01*
X36158452Y-71054059D01*
X36818192Y-72398897D01*
X37906840Y-73643243D01*
X38497761Y-74156907D01*
X40000158Y-75133282D01*
X41868223Y-75963194D01*
X43942419Y-76600697D01*
X46063211Y-76999851D01*
X48071061Y-77114710D01*
X48662104Y-77084049D01*
X49375374Y-77052213D01*
X49715352Y-77176231D01*
X49839550Y-77547170D01*
X49863535Y-77778699D01*
X49830133Y-78480571D01*
X49670138Y-79433552D01*
X49515703Y-80069583D01*
X48838820Y-81686593D01*
X47843295Y-82901977D01*
X46569572Y-83710337D01*
X45058094Y-84106282D01*
X43349305Y-84084417D01*
X41483649Y-83639346D01*
X39501568Y-82765676D01*
X37703153Y-81645117D01*
X36706440Y-80975863D01*
X36063459Y-80642164D01*
X35725763Y-80627159D01*
X35644903Y-80913989D01*
X35646131Y-80929297D01*
X35856076Y-81157046D01*
X36411784Y-81623855D01*
X37224155Y-82257596D01*
X38029123Y-82858416D01*
X40304156Y-84331446D01*
X42428390Y-85300677D01*
X44417901Y-85770338D01*
X46288765Y-85744661D01*
X47654192Y-85391641D01*
X49111999Y-84617930D01*
X50294720Y-83458701D01*
X51253227Y-81859599D01*
X51510977Y-81270509D01*
X52284433Y-79374182D01*
X51978933Y-76162127D01*
X49927397Y-76341613D01*
X48282549Y-76263761D01*
X47099006Y-76162590D01*
X45874415Y-75989160D01*
X45268083Y-75869642D01*
X43397107Y-75260770D01*
X41692890Y-74369444D01*
X40258981Y-73268643D01*
X39198932Y-72031340D01*
X38813558Y-71320886D01*
X38410082Y-69828509D01*
X38455091Y-68410823D01*
X38888186Y-67136405D01*
X39648974Y-66073840D01*
X40677057Y-65291704D01*
X41912040Y-64858581D01*
X43293528Y-64843051D01*
X44286491Y-65106274D01*
X45721332Y-65933486D01*
X46980130Y-67239444D01*
X48044441Y-68991911D01*
X48895826Y-71158648D01*
X49515841Y-73707417D01*
X49643247Y-74470456D01*
X49927397Y-76341613D01*
X51978933Y-76162127D01*
X51940182Y-75754697D01*
X51605732Y-73210367D01*
X51106645Y-71082950D01*
X50404074Y-69269628D01*
X49459175Y-67667583D01*
X48380899Y-66333924D01*
X46909347Y-64961260D01*
X45388546Y-64068063D01*
X43701134Y-63603418D01*
X41874586Y-63511417D01*
X40737522Y-63567986D01*
X39928392Y-63692741D01*
D12*
%TO.C,SW1*%
X59380870Y-44905200D02*
X57300870Y-44905200D01*
X55620870Y-49075200D02*
X56110870Y-49565200D01*
X59380870Y-50345200D02*
X57300870Y-50345200D01*
X55620870Y-46175200D02*
X56110870Y-45685200D01*
X55620870Y-46175200D02*
X55620870Y-49075200D01*
X61060870Y-46175200D02*
X60570870Y-45685200D01*
X61060870Y-46175200D02*
X61060870Y-49075200D01*
X61060870Y-49075200D02*
X60570870Y-49565200D01*
%TO.C,U1*%
D13*
X51182035Y-37886474D02*
X51448701Y-37505522D01*
X51639178Y-37886474D02*
X51639178Y-37086474D01*
X51334416Y-37086474D01*
X51258225Y-37124570D01*
X51220130Y-37162665D01*
X51182035Y-37238855D01*
X51182035Y-37353141D01*
X51220130Y-37429331D01*
X51258225Y-37467427D01*
X51334416Y-37505522D01*
X51639178Y-37505522D01*
X50877273Y-37848379D02*
X50762987Y-37886474D01*
X50572511Y-37886474D01*
X50496320Y-37848379D01*
X50458225Y-37810284D01*
X50420130Y-37734093D01*
X50420130Y-37657903D01*
X50458225Y-37581712D01*
X50496320Y-37543617D01*
X50572511Y-37505522D01*
X50724892Y-37467427D01*
X50801082Y-37429331D01*
X50839178Y-37391236D01*
X50877273Y-37315046D01*
X50877273Y-37238855D01*
X50839178Y-37162665D01*
X50801082Y-37124570D01*
X50724892Y-37086474D01*
X50534416Y-37086474D01*
X50420130Y-37124570D01*
X50191559Y-37086474D02*
X49734416Y-37086474D01*
X49962987Y-37886474D02*
X49962987Y-37086474D01*
X43862544Y-32026474D02*
X43405401Y-32026474D01*
X43633972Y-32826474D02*
X43633972Y-32026474D01*
X43214925Y-32026474D02*
X42681591Y-32826474D01*
X42681591Y-32026474D02*
X43214925Y-32826474D01*
X42224448Y-32026474D02*
X42148258Y-32026474D01*
X42072068Y-32064570D01*
X42033972Y-32102665D01*
X41995877Y-32178855D01*
X41957782Y-32331236D01*
X41957782Y-32521712D01*
X41995877Y-32674093D01*
X42033972Y-32750284D01*
X42072068Y-32788379D01*
X42148258Y-32826474D01*
X42224448Y-32826474D01*
X42300639Y-32788379D01*
X42338734Y-32750284D01*
X42376829Y-32674093D01*
X42414925Y-32521712D01*
X42414925Y-32331236D01*
X42376829Y-32178855D01*
X42338734Y-32102665D01*
X42300639Y-32064570D01*
X42224448Y-32026474D01*
X41043496Y-31988379D02*
X41729210Y-33016950D01*
X40776829Y-32826474D02*
X40776829Y-32026474D01*
X40586353Y-32026474D01*
X40472068Y-32064570D01*
X40395877Y-32140760D01*
X40357782Y-32216950D01*
X40319687Y-32369331D01*
X40319687Y-32483617D01*
X40357782Y-32635998D01*
X40395877Y-32712189D01*
X40472068Y-32788379D01*
X40586353Y-32826474D01*
X40776829Y-32826474D01*
X40053020Y-32026474D02*
X39557782Y-32026474D01*
X39824448Y-32331236D01*
X39710163Y-32331236D01*
X39633972Y-32369331D01*
X39595877Y-32407427D01*
X39557782Y-32483617D01*
X39557782Y-32674093D01*
X39595877Y-32750284D01*
X39633972Y-32788379D01*
X39710163Y-32826474D01*
X39938734Y-32826474D01*
X40014925Y-32788379D01*
X40053020Y-32750284D01*
X51028749Y-57807427D02*
X50914463Y-57845522D01*
X50876368Y-57883617D01*
X50838273Y-57959808D01*
X50838273Y-58074093D01*
X50876368Y-58150284D01*
X50914463Y-58188379D01*
X50990654Y-58226474D01*
X51295416Y-58226474D01*
X51295416Y-57426474D01*
X51028749Y-57426474D01*
X50952559Y-57464570D01*
X50914463Y-57502665D01*
X50876368Y-57578855D01*
X50876368Y-57655046D01*
X50914463Y-57731236D01*
X50952559Y-57769331D01*
X51028749Y-57807427D01*
X51295416Y-57807427D01*
X50533511Y-57502665D02*
X50495416Y-57464570D01*
X50419225Y-57426474D01*
X50228749Y-57426474D01*
X50152559Y-57464570D01*
X50114463Y-57502665D01*
X50076368Y-57578855D01*
X50076368Y-57655046D01*
X50114463Y-57769331D01*
X50571606Y-58226474D01*
X50076368Y-58226474D01*
X50971606Y-50187427D02*
X51238273Y-50187427D01*
X51238273Y-50606474D02*
X51238273Y-49806474D01*
X50857320Y-49806474D01*
X50628749Y-49806474D02*
X50095416Y-49806474D01*
X50438273Y-50606474D01*
X50971606Y-47647427D02*
X51238273Y-47647427D01*
X51238273Y-48066474D02*
X51238273Y-47266474D01*
X50857320Y-47266474D01*
X50209701Y-47266474D02*
X50362082Y-47266474D01*
X50438273Y-47304570D01*
X50476368Y-47342665D01*
X50552559Y-47456950D01*
X50590654Y-47609331D01*
X50590654Y-47914093D01*
X50552559Y-47990284D01*
X50514463Y-48028379D01*
X50438273Y-48066474D01*
X50285892Y-48066474D01*
X50209701Y-48028379D01*
X50171606Y-47990284D01*
X50133511Y-47914093D01*
X50133511Y-47723617D01*
X50171606Y-47647427D01*
X50209701Y-47609331D01*
X50285892Y-47571236D01*
X50438273Y-47571236D01*
X50514463Y-47609331D01*
X50552559Y-47647427D01*
X50590654Y-47723617D01*
X50971606Y-45107427D02*
X51238273Y-45107427D01*
X51238273Y-45526474D02*
X51238273Y-44726474D01*
X50857320Y-44726474D01*
X50171606Y-44726474D02*
X50552559Y-44726474D01*
X50590654Y-45107427D01*
X50552559Y-45069331D01*
X50476368Y-45031236D01*
X50285892Y-45031236D01*
X50209701Y-45069331D01*
X50171606Y-45107427D01*
X50133511Y-45183617D01*
X50133511Y-45374093D01*
X50171606Y-45450284D01*
X50209701Y-45488379D01*
X50285892Y-45526474D01*
X50476368Y-45526474D01*
X50552559Y-45488379D01*
X50590654Y-45450284D01*
X51257320Y-32826474D02*
X51523987Y-32445522D01*
X51714463Y-32826474D02*
X51714463Y-32026474D01*
X51409701Y-32026474D01*
X51333511Y-32064570D01*
X51295416Y-32102665D01*
X51257320Y-32178855D01*
X51257320Y-32293141D01*
X51295416Y-32369331D01*
X51333511Y-32407427D01*
X51409701Y-32445522D01*
X51714463Y-32445522D01*
X50952559Y-32597903D02*
X50571606Y-32597903D01*
X51028749Y-32826474D02*
X50762082Y-32026474D01*
X50495416Y-32826474D01*
X50304940Y-32026474D02*
X50114463Y-32826474D01*
X49962082Y-32255046D01*
X49809701Y-32826474D01*
X49619225Y-32026474D01*
X51314463Y-34604570D02*
X51390654Y-34566474D01*
X51504940Y-34566474D01*
X51619225Y-34604570D01*
X51695416Y-34680760D01*
X51733511Y-34756950D01*
X51771606Y-34909331D01*
X51771606Y-35023617D01*
X51733511Y-35175998D01*
X51695416Y-35252189D01*
X51619225Y-35328379D01*
X51504940Y-35366474D01*
X51428749Y-35366474D01*
X51314463Y-35328379D01*
X51276368Y-35290284D01*
X51276368Y-35023617D01*
X51428749Y-35023617D01*
X50933511Y-35366474D02*
X50933511Y-34566474D01*
X50476368Y-35366474D01*
X50476368Y-34566474D01*
X50095416Y-35366474D02*
X50095416Y-34566474D01*
X49904940Y-34566474D01*
X49790654Y-34604570D01*
X49714463Y-34680760D01*
X49676368Y-34756950D01*
X49638273Y-34909331D01*
X49638273Y-35023617D01*
X49676368Y-35175998D01*
X49714463Y-35252189D01*
X49790654Y-35328379D01*
X49904940Y-35366474D01*
X50095416Y-35366474D01*
X51771606Y-39646474D02*
X51504940Y-40446474D01*
X51238273Y-39646474D01*
X50514463Y-40370284D02*
X50552559Y-40408379D01*
X50666844Y-40446474D01*
X50743035Y-40446474D01*
X50857320Y-40408379D01*
X50933511Y-40332189D01*
X50971606Y-40255998D01*
X51009701Y-40103617D01*
X51009701Y-39989331D01*
X50971606Y-39836950D01*
X50933511Y-39760760D01*
X50857320Y-39684570D01*
X50743035Y-39646474D01*
X50666844Y-39646474D01*
X50552559Y-39684570D01*
X50514463Y-39722665D01*
X49714463Y-40370284D02*
X49752559Y-40408379D01*
X49866844Y-40446474D01*
X49943035Y-40446474D01*
X50057320Y-40408379D01*
X50133511Y-40332189D01*
X50171606Y-40255998D01*
X50209701Y-40103617D01*
X50209701Y-39989331D01*
X50171606Y-39836950D01*
X50133511Y-39760760D01*
X50057320Y-39684570D01*
X49943035Y-39646474D01*
X49866844Y-39646474D01*
X49752559Y-39684570D01*
X49714463Y-39722665D01*
X50971606Y-42567427D02*
X51238273Y-42567427D01*
X51238273Y-42986474D02*
X51238273Y-42186474D01*
X50857320Y-42186474D01*
X50209701Y-42453141D02*
X50209701Y-42986474D01*
X50400178Y-42148379D02*
X50590654Y-42719808D01*
X50095416Y-42719808D01*
X51028749Y-52727427D02*
X50914463Y-52765522D01*
X50876368Y-52803617D01*
X50838273Y-52879808D01*
X50838273Y-52994093D01*
X50876368Y-53070284D01*
X50914463Y-53108379D01*
X50990654Y-53146474D01*
X51295416Y-53146474D01*
X51295416Y-52346474D01*
X51028749Y-52346474D01*
X50952559Y-52384570D01*
X50914463Y-52422665D01*
X50876368Y-52498855D01*
X50876368Y-52575046D01*
X50914463Y-52651236D01*
X50952559Y-52689331D01*
X51028749Y-52727427D01*
X51295416Y-52727427D01*
X50076368Y-53146474D02*
X50533511Y-53146474D01*
X50304940Y-53146474D02*
X50304940Y-52346474D01*
X50381130Y-52460760D01*
X50457320Y-52536950D01*
X50533511Y-52575046D01*
X51028749Y-55267427D02*
X50914463Y-55305522D01*
X50876368Y-55343617D01*
X50838273Y-55419808D01*
X50838273Y-55534093D01*
X50876368Y-55610284D01*
X50914463Y-55648379D01*
X50990654Y-55686474D01*
X51295416Y-55686474D01*
X51295416Y-54886474D01*
X51028749Y-54886474D01*
X50952559Y-54924570D01*
X50914463Y-54962665D01*
X50876368Y-55038855D01*
X50876368Y-55115046D01*
X50914463Y-55191236D01*
X50952559Y-55229331D01*
X51028749Y-55267427D01*
X51295416Y-55267427D01*
X50571606Y-54886474D02*
X50076368Y-54886474D01*
X50343035Y-55191236D01*
X50228749Y-55191236D01*
X50152559Y-55229331D01*
X50114463Y-55267427D01*
X50076368Y-55343617D01*
X50076368Y-55534093D01*
X50114463Y-55610284D01*
X50152559Y-55648379D01*
X50228749Y-55686474D01*
X50457320Y-55686474D01*
X50533511Y-55648379D01*
X50571606Y-55610284D01*
X51028749Y-60347427D02*
X50914463Y-60385522D01*
X50876368Y-60423617D01*
X50838273Y-60499808D01*
X50838273Y-60614093D01*
X50876368Y-60690284D01*
X50914463Y-60728379D01*
X50990654Y-60766474D01*
X51295416Y-60766474D01*
X51295416Y-59966474D01*
X51028749Y-59966474D01*
X50952559Y-60004570D01*
X50914463Y-60042665D01*
X50876368Y-60118855D01*
X50876368Y-60195046D01*
X50914463Y-60271236D01*
X50952559Y-60309331D01*
X51028749Y-60347427D01*
X51295416Y-60347427D01*
X50152559Y-59966474D02*
X50304940Y-59966474D01*
X50381130Y-60004570D01*
X50419225Y-60042665D01*
X50495416Y-60156950D01*
X50533511Y-60309331D01*
X50533511Y-60614093D01*
X50495416Y-60690284D01*
X50457320Y-60728379D01*
X50381130Y-60766474D01*
X50228749Y-60766474D01*
X50152559Y-60728379D01*
X50114463Y-60690284D01*
X50076368Y-60614093D01*
X50076368Y-60423617D01*
X50114463Y-60347427D01*
X50152559Y-60309331D01*
X50228749Y-60271236D01*
X50381130Y-60271236D01*
X50457320Y-60309331D01*
X50495416Y-60347427D01*
X50533511Y-60423617D01*
X40106749Y-60347427D02*
X39992463Y-60385522D01*
X39954368Y-60423617D01*
X39916273Y-60499808D01*
X39916273Y-60614093D01*
X39954368Y-60690284D01*
X39992463Y-60728379D01*
X40068654Y-60766474D01*
X40373416Y-60766474D01*
X40373416Y-59966474D01*
X40106749Y-59966474D01*
X40030559Y-60004570D01*
X39992463Y-60042665D01*
X39954368Y-60118855D01*
X39954368Y-60195046D01*
X39992463Y-60271236D01*
X40030559Y-60309331D01*
X40106749Y-60347427D01*
X40373416Y-60347427D01*
X39192463Y-59966474D02*
X39573416Y-59966474D01*
X39611511Y-60347427D01*
X39573416Y-60309331D01*
X39497225Y-60271236D01*
X39306749Y-60271236D01*
X39230559Y-60309331D01*
X39192463Y-60347427D01*
X39154368Y-60423617D01*
X39154368Y-60614093D01*
X39192463Y-60690284D01*
X39230559Y-60728379D01*
X39306749Y-60766474D01*
X39497225Y-60766474D01*
X39573416Y-60728379D01*
X39611511Y-60690284D01*
X40106749Y-57807427D02*
X39992463Y-57845522D01*
X39954368Y-57883617D01*
X39916273Y-57959808D01*
X39916273Y-58074093D01*
X39954368Y-58150284D01*
X39992463Y-58188379D01*
X40068654Y-58226474D01*
X40373416Y-58226474D01*
X40373416Y-57426474D01*
X40106749Y-57426474D01*
X40030559Y-57464570D01*
X39992463Y-57502665D01*
X39954368Y-57578855D01*
X39954368Y-57655046D01*
X39992463Y-57731236D01*
X40030559Y-57769331D01*
X40106749Y-57807427D01*
X40373416Y-57807427D01*
X39230559Y-57693141D02*
X39230559Y-58226474D01*
X39421035Y-57388379D02*
X39611511Y-57959808D01*
X39116273Y-57959808D01*
X40335320Y-55267427D02*
X40068654Y-55267427D01*
X39954368Y-55686474D02*
X40335320Y-55686474D01*
X40335320Y-54886474D01*
X39954368Y-54886474D01*
X39268654Y-54886474D02*
X39421035Y-54886474D01*
X39497225Y-54924570D01*
X39535320Y-54962665D01*
X39611511Y-55076950D01*
X39649606Y-55229331D01*
X39649606Y-55534093D01*
X39611511Y-55610284D01*
X39573416Y-55648379D01*
X39497225Y-55686474D01*
X39344844Y-55686474D01*
X39268654Y-55648379D01*
X39230559Y-55610284D01*
X39192463Y-55534093D01*
X39192463Y-55343617D01*
X39230559Y-55267427D01*
X39268654Y-55229331D01*
X39344844Y-55191236D01*
X39497225Y-55191236D01*
X39573416Y-55229331D01*
X39611511Y-55267427D01*
X39649606Y-55343617D01*
X40373416Y-53146474D02*
X40373416Y-52346474D01*
X40182940Y-52346474D01*
X40068654Y-52384570D01*
X39992463Y-52460760D01*
X39954368Y-52536950D01*
X39916273Y-52689331D01*
X39916273Y-52803617D01*
X39954368Y-52955998D01*
X39992463Y-53032189D01*
X40068654Y-53108379D01*
X40182940Y-53146474D01*
X40373416Y-53146474D01*
X39649606Y-52346474D02*
X39116273Y-52346474D01*
X39459130Y-53146474D01*
X39916273Y-50530284D02*
X39954368Y-50568379D01*
X40068654Y-50606474D01*
X40144844Y-50606474D01*
X40259130Y-50568379D01*
X40335320Y-50492189D01*
X40373416Y-50415998D01*
X40411511Y-50263617D01*
X40411511Y-50149331D01*
X40373416Y-49996950D01*
X40335320Y-49920760D01*
X40259130Y-49844570D01*
X40144844Y-49806474D01*
X40068654Y-49806474D01*
X39954368Y-49844570D01*
X39916273Y-49882665D01*
X39230559Y-49806474D02*
X39382940Y-49806474D01*
X39459130Y-49844570D01*
X39497225Y-49882665D01*
X39573416Y-49996950D01*
X39611511Y-50149331D01*
X39611511Y-50454093D01*
X39573416Y-50530284D01*
X39535320Y-50568379D01*
X39459130Y-50606474D01*
X39306749Y-50606474D01*
X39230559Y-50568379D01*
X39192463Y-50530284D01*
X39154368Y-50454093D01*
X39154368Y-50263617D01*
X39192463Y-50187427D01*
X39230559Y-50149331D01*
X39306749Y-50111236D01*
X39459130Y-50111236D01*
X39535320Y-50149331D01*
X39573416Y-50187427D01*
X39611511Y-50263617D01*
X40373416Y-48066474D02*
X40373416Y-47266474D01*
X40182940Y-47266474D01*
X40068654Y-47304570D01*
X39992463Y-47380760D01*
X39954368Y-47456950D01*
X39916273Y-47609331D01*
X39916273Y-47723617D01*
X39954368Y-47875998D01*
X39992463Y-47952189D01*
X40068654Y-48028379D01*
X40182940Y-48066474D01*
X40373416Y-48066474D01*
X39230559Y-47533141D02*
X39230559Y-48066474D01*
X39421035Y-47228379D02*
X39611511Y-47799808D01*
X39116273Y-47799808D01*
X40392463Y-37144570D02*
X40468654Y-37106474D01*
X40582940Y-37106474D01*
X40697225Y-37144570D01*
X40773416Y-37220760D01*
X40811511Y-37296950D01*
X40849606Y-37449331D01*
X40849606Y-37563617D01*
X40811511Y-37715998D01*
X40773416Y-37792189D01*
X40697225Y-37868379D01*
X40582940Y-37906474D01*
X40506749Y-37906474D01*
X40392463Y-37868379D01*
X40354368Y-37830284D01*
X40354368Y-37563617D01*
X40506749Y-37563617D01*
X40011511Y-37906474D02*
X40011511Y-37106474D01*
X39554368Y-37906474D01*
X39554368Y-37106474D01*
X39173416Y-37906474D02*
X39173416Y-37106474D01*
X38982940Y-37106474D01*
X38868654Y-37144570D01*
X38792463Y-37220760D01*
X38754368Y-37296950D01*
X38716273Y-37449331D01*
X38716273Y-37563617D01*
X38754368Y-37715998D01*
X38792463Y-37792189D01*
X38868654Y-37868379D01*
X38982940Y-37906474D01*
X39173416Y-37906474D01*
X40392463Y-39684570D02*
X40468654Y-39646474D01*
X40582940Y-39646474D01*
X40697225Y-39684570D01*
X40773416Y-39760760D01*
X40811511Y-39836950D01*
X40849606Y-39989331D01*
X40849606Y-40103617D01*
X40811511Y-40255998D01*
X40773416Y-40332189D01*
X40697225Y-40408379D01*
X40582940Y-40446474D01*
X40506749Y-40446474D01*
X40392463Y-40408379D01*
X40354368Y-40370284D01*
X40354368Y-40103617D01*
X40506749Y-40103617D01*
X40011511Y-40446474D02*
X40011511Y-39646474D01*
X39554368Y-40446474D01*
X39554368Y-39646474D01*
X39173416Y-40446474D02*
X39173416Y-39646474D01*
X38982940Y-39646474D01*
X38868654Y-39684570D01*
X38792463Y-39760760D01*
X38754368Y-39836950D01*
X38716273Y-39989331D01*
X38716273Y-40103617D01*
X38754368Y-40255998D01*
X38792463Y-40332189D01*
X38868654Y-40408379D01*
X38982940Y-40446474D01*
X39173416Y-40446474D01*
X40373416Y-42986474D02*
X40373416Y-42186474D01*
X40182940Y-42186474D01*
X40068654Y-42224570D01*
X39992463Y-42300760D01*
X39954368Y-42376950D01*
X39916273Y-42529331D01*
X39916273Y-42643617D01*
X39954368Y-42795998D01*
X39992463Y-42872189D01*
X40068654Y-42948379D01*
X40182940Y-42986474D01*
X40373416Y-42986474D01*
X39154368Y-42986474D02*
X39611511Y-42986474D01*
X39382940Y-42986474D02*
X39382940Y-42186474D01*
X39459130Y-42300760D01*
X39535320Y-42376950D01*
X39611511Y-42415046D01*
X40373416Y-45526474D02*
X40373416Y-44726474D01*
X40182940Y-44726474D01*
X40068654Y-44764570D01*
X39992463Y-44840760D01*
X39954368Y-44916950D01*
X39916273Y-45069331D01*
X39916273Y-45183617D01*
X39954368Y-45335998D01*
X39992463Y-45412189D01*
X40068654Y-45488379D01*
X40182940Y-45526474D01*
X40373416Y-45526474D01*
X39421035Y-44726474D02*
X39344844Y-44726474D01*
X39268654Y-44764570D01*
X39230559Y-44802665D01*
X39192463Y-44878855D01*
X39154368Y-45031236D01*
X39154368Y-45221712D01*
X39192463Y-45374093D01*
X39230559Y-45450284D01*
X39268654Y-45488379D01*
X39344844Y-45526474D01*
X39421035Y-45526474D01*
X39497225Y-45488379D01*
X39535320Y-45450284D01*
X39573416Y-45374093D01*
X39611511Y-45221712D01*
X39611511Y-45031236D01*
X39573416Y-44878855D01*
X39535320Y-44802665D01*
X39497225Y-44764570D01*
X39421035Y-44726474D01*
X40373416Y-35366474D02*
X40373416Y-34566474D01*
X40182940Y-34566474D01*
X40068654Y-34604570D01*
X39992463Y-34680760D01*
X39954368Y-34756950D01*
X39916273Y-34909331D01*
X39916273Y-35023617D01*
X39954368Y-35175998D01*
X39992463Y-35252189D01*
X40068654Y-35328379D01*
X40182940Y-35366474D01*
X40373416Y-35366474D01*
X39611511Y-34642665D02*
X39573416Y-34604570D01*
X39497225Y-34566474D01*
X39306749Y-34566474D01*
X39230559Y-34604570D01*
X39192463Y-34642665D01*
X39154368Y-34718855D01*
X39154368Y-34795046D01*
X39192463Y-34909331D01*
X39649606Y-35366474D01*
X39154368Y-35366474D01*
%TD*%
M02*
