%TF.GenerationSoftware,KiCad,Pcbnew,(5.1.9)-1*%
%TF.CreationDate,2021-08-31T12:46:26-07:00*%
%TF.ProjectId,warpstone,77617270-7374-46f6-9e65-2e6b69636164,rev?*%
%TF.SameCoordinates,Original*%
%TF.FileFunction,Soldermask,Top*%
%TF.FilePolarity,Negative*%
%FSLAX46Y46*%
G04 Gerber Fmt 4.6, Leading zero omitted, Abs format (unit mm)*
G04 Created by KiCad (PCBNEW (5.1.9)-1) date 2021-08-31 12:46:26*
%MOMM*%
%LPD*%
G01*
G04 APERTURE LIST*
%ADD10C,1.752600*%
%ADD11R,1.752600X1.752600*%
%ADD12C,3.987800*%
%ADD13C,1.750000*%
%ADD14C,3.048000*%
%ADD15R,1.600000X1.600000*%
%ADD16C,1.600000*%
G04 APERTURE END LIST*
D10*
%TO.C,U1*%
X52863940Y-32464570D03*
X37623940Y-60404570D03*
X52863940Y-35004570D03*
X52863940Y-37544570D03*
X52863940Y-40084570D03*
X52863940Y-42624570D03*
X52863940Y-45164570D03*
X52863940Y-47704570D03*
X52863940Y-50244570D03*
X52863940Y-52784570D03*
X52863940Y-55324570D03*
X52863940Y-57864570D03*
X52863940Y-60404570D03*
X37623940Y-57864570D03*
X37623940Y-55324570D03*
X37623940Y-52784570D03*
X37623940Y-50244570D03*
X37623940Y-47704570D03*
X37623940Y-45164570D03*
X37623940Y-42624570D03*
X37623940Y-40084570D03*
X37623940Y-37544570D03*
X37623940Y-35004570D03*
D11*
X37623940Y-32464570D03*
%TD*%
D12*
%TO.C,MX30-2.75u1*%
X214313400Y-76200320D03*
D13*
X209233400Y-76200320D03*
X219393400Y-76200320D03*
D14*
X202407150Y-69215320D03*
X226219650Y-69215320D03*
D12*
X202407150Y-84455320D03*
X226219650Y-84455320D03*
%TD*%
%TO.C,MX21-2.25u1*%
X52387720Y-76200320D03*
D13*
X47307720Y-76200320D03*
X57467720Y-76200320D03*
D14*
X40481470Y-69215320D03*
X64293970Y-69215320D03*
D12*
X40481470Y-84455320D03*
X64293970Y-84455320D03*
%TD*%
%TO.C,MX11*%
X47625200Y-57150240D03*
D13*
X42545200Y-57150240D03*
%TD*%
D12*
%TO.C,MX20-ISO1*%
X220345960Y-35687200D03*
X220345960Y-59563200D03*
D14*
X235585960Y-35687200D03*
X235585960Y-59563200D03*
D13*
X233680960Y-47625200D03*
X223520960Y-47625200D03*
D12*
X228600960Y-47625200D03*
%TD*%
%TO.C,MX20-2.25u1*%
X219075920Y-57150240D03*
D13*
X213995920Y-57150240D03*
X224155920Y-57150240D03*
D14*
X207169670Y-64135240D03*
X230982170Y-64135240D03*
D12*
X207169670Y-48895240D03*
X230982170Y-48895240D03*
%TD*%
%TO.C,MX38-1u1*%
X230982220Y-95250400D03*
D13*
X225902220Y-95250400D03*
X236062220Y-95250400D03*
%TD*%
D12*
%TO.C,MX37-1u1*%
X211932140Y-95250400D03*
D13*
X206852140Y-95250400D03*
X217012140Y-95250400D03*
%TD*%
D12*
%TO.C,MX32-1u1*%
X59531500Y-95250400D03*
D13*
X54451500Y-95250400D03*
X64611500Y-95250400D03*
%TD*%
D12*
%TO.C,MX31-1u1*%
X40481420Y-95250400D03*
D13*
X35401420Y-95250400D03*
X45561420Y-95250400D03*
%TD*%
D12*
%TO.C,MX34-7u1*%
X135731820Y-95250400D03*
D13*
X130651820Y-95250400D03*
X140811820Y-95250400D03*
D14*
X78581820Y-102235400D03*
X192881820Y-102235400D03*
D12*
X78581820Y-86995400D03*
X192881820Y-86995400D03*
%TD*%
%TO.C,MX34-6u1*%
X183356820Y-86995400D03*
X88106820Y-86995400D03*
D14*
X183356820Y-102235400D03*
X88106820Y-102235400D03*
D13*
X140811820Y-95250400D03*
X130651820Y-95250400D03*
D12*
X135731820Y-95250400D03*
%TD*%
%TO.C,MX35-3u1*%
X164306940Y-95250400D03*
D13*
X159226940Y-95250400D03*
X169386940Y-95250400D03*
D14*
X145256940Y-102235400D03*
X183356940Y-102235400D03*
D12*
X145256940Y-86995400D03*
X183356940Y-86995400D03*
%TD*%
%TO.C,MX34-3u1*%
X107156700Y-95250400D03*
D13*
X102076700Y-95250400D03*
X112236700Y-95250400D03*
D14*
X88106700Y-102235400D03*
X126206700Y-102235400D03*
D12*
X88106700Y-86995400D03*
X126206700Y-86995400D03*
%TD*%
%TO.C,MX38*%
X228600960Y-95250400D03*
D13*
X223520960Y-95250400D03*
X233680960Y-95250400D03*
%TD*%
D12*
%TO.C,MX37*%
X204788360Y-95250400D03*
D13*
X199708360Y-95250400D03*
X209868360Y-95250400D03*
%TD*%
D12*
%TO.C,MX36*%
X180975760Y-95250400D03*
D13*
X175895760Y-95250400D03*
X186055760Y-95250400D03*
%TD*%
D12*
%TO.C,MX35*%
X152400640Y-95250400D03*
D13*
X147320640Y-95250400D03*
X157480640Y-95250400D03*
%TD*%
D12*
%TO.C,MX34*%
X119063000Y-95250400D03*
D13*
X113983000Y-95250400D03*
X124143000Y-95250400D03*
%TD*%
D12*
%TO.C,MX33*%
X90487880Y-95250400D03*
D13*
X85407880Y-95250400D03*
X95567880Y-95250400D03*
%TD*%
D12*
%TO.C,MX32*%
X66675280Y-95250400D03*
D13*
X61595280Y-95250400D03*
X71755280Y-95250400D03*
%TD*%
D12*
%TO.C,MX31*%
X42862680Y-95250400D03*
D13*
X37782680Y-95250400D03*
X47942680Y-95250400D03*
%TD*%
D12*
%TO.C,MX30*%
X223838440Y-76200320D03*
D13*
X218758440Y-76200320D03*
X228918440Y-76200320D03*
%TD*%
D12*
%TO.C,MX29*%
X197644580Y-76200320D03*
D13*
X192564580Y-76200320D03*
X202724580Y-76200320D03*
%TD*%
D12*
%TO.C,MX28*%
X178594500Y-76200320D03*
D13*
X173514500Y-76200320D03*
X183674500Y-76200320D03*
%TD*%
D12*
%TO.C,MX27*%
X159544420Y-76200320D03*
D13*
X154464420Y-76200320D03*
X164624420Y-76200320D03*
%TD*%
D12*
%TO.C,MX26*%
X140494340Y-76200320D03*
D13*
X135414340Y-76200320D03*
X145574340Y-76200320D03*
%TD*%
D12*
%TO.C,MX25*%
X121444260Y-76200320D03*
D13*
X116364260Y-76200320D03*
X126524260Y-76200320D03*
%TD*%
D12*
%TO.C,MX24*%
X102394180Y-76200320D03*
D13*
X97314180Y-76200320D03*
X107474180Y-76200320D03*
%TD*%
D12*
%TO.C,MX23*%
X83344100Y-76200320D03*
D13*
X78264100Y-76200320D03*
X88424100Y-76200320D03*
%TD*%
D12*
%TO.C,MX22*%
X64294020Y-76200320D03*
D13*
X59214020Y-76200320D03*
X69374020Y-76200320D03*
%TD*%
D12*
%TO.C,MX21*%
X42862680Y-76200320D03*
D13*
X37782680Y-76200320D03*
X47942680Y-76200320D03*
%TD*%
D12*
%TO.C,MX20*%
X228600960Y-57150240D03*
D13*
X223520960Y-57150240D03*
X233680960Y-57150240D03*
%TD*%
D12*
%TO.C,MX19*%
X207169620Y-57150240D03*
D13*
X202089620Y-57150240D03*
X212249620Y-57150240D03*
%TD*%
D12*
%TO.C,MX18*%
X188119540Y-57150240D03*
D13*
X183039540Y-57150240D03*
X193199540Y-57150240D03*
%TD*%
D12*
%TO.C,MX17*%
X169069460Y-57150240D03*
D13*
X163989460Y-57150240D03*
X174149460Y-57150240D03*
%TD*%
D12*
%TO.C,MX16*%
X150019380Y-57150240D03*
D13*
X144939380Y-57150240D03*
X155099380Y-57150240D03*
%TD*%
D12*
%TO.C,MX15*%
X130969300Y-57150240D03*
D13*
X125889300Y-57150240D03*
X136049300Y-57150240D03*
%TD*%
D12*
%TO.C,MX14*%
X111919220Y-57150240D03*
D13*
X106839220Y-57150240D03*
X116999220Y-57150240D03*
%TD*%
D12*
%TO.C,MX13*%
X92869140Y-57150240D03*
D13*
X87789140Y-57150240D03*
X97949140Y-57150240D03*
%TD*%
D12*
%TO.C,MX12*%
X73819060Y-57150240D03*
D13*
X68739060Y-57150240D03*
X78899060Y-57150240D03*
%TD*%
D12*
%TO.C,MX10*%
X226219700Y-38100160D03*
D13*
X221139700Y-38100160D03*
X231299700Y-38100160D03*
%TD*%
D12*
%TO.C,MX9*%
X202407100Y-38100160D03*
D13*
X197327100Y-38100160D03*
X207487100Y-38100160D03*
%TD*%
D12*
%TO.C,MX8*%
X183357020Y-38100160D03*
D13*
X178277020Y-38100160D03*
X188437020Y-38100160D03*
%TD*%
D12*
%TO.C,MX7*%
X164306940Y-38100160D03*
D13*
X159226940Y-38100160D03*
X169386940Y-38100160D03*
%TD*%
D12*
%TO.C,MX6*%
X145256860Y-38100160D03*
D13*
X140176860Y-38100160D03*
X150336860Y-38100160D03*
%TD*%
D12*
%TO.C,MX5*%
X126206780Y-38100160D03*
D13*
X121126780Y-38100160D03*
X131286780Y-38100160D03*
%TD*%
D12*
%TO.C,MX4*%
X107156700Y-38100160D03*
D13*
X102076700Y-38100160D03*
X112236700Y-38100160D03*
%TD*%
D12*
%TO.C,MX3*%
X88106620Y-38100160D03*
D13*
X83026620Y-38100160D03*
X93186620Y-38100160D03*
%TD*%
D12*
%TO.C,MX2*%
X69056540Y-38100160D03*
D13*
X63976540Y-38100160D03*
X74136540Y-38100160D03*
%TD*%
D12*
%TO.C,MX1*%
X45243940Y-38100160D03*
D13*
X40163940Y-38100160D03*
X50323940Y-38100160D03*
%TD*%
D15*
%TO.C,D38*%
X239316630Y-97959770D03*
D16*
X239316630Y-90159770D03*
%TD*%
D15*
%TO.C,D37*%
X220266550Y-97959770D03*
D16*
X220266550Y-90159770D03*
%TD*%
D15*
%TO.C,D36*%
X172641350Y-97959770D03*
D16*
X172641350Y-90159770D03*
%TD*%
D15*
%TO.C,D35*%
X165825680Y-86915990D03*
D16*
X158025680Y-86915990D03*
%TD*%
D15*
%TO.C,D34*%
X108019220Y-86915990D03*
D16*
X115819220Y-86915990D03*
%TD*%
D15*
%TO.C,D33*%
X98822290Y-97959770D03*
D16*
X98822290Y-90159770D03*
%TD*%
D15*
%TO.C,D32*%
X51197090Y-97959770D03*
D16*
X51197090Y-90159770D03*
%TD*%
D15*
%TO.C,D31*%
X32147010Y-97959770D03*
D16*
X32147010Y-90159770D03*
%TD*%
D15*
%TO.C,D30*%
X233363480Y-78909690D03*
D16*
X233363480Y-71109690D03*
%TD*%
D15*
%TO.C,D29*%
X188119540Y-78909690D03*
D16*
X188119540Y-71109690D03*
%TD*%
D15*
%TO.C,D28*%
X169069460Y-78909690D03*
D16*
X169069460Y-71109690D03*
%TD*%
D15*
%TO.C,D27*%
X150019380Y-78909690D03*
D16*
X150019380Y-71109690D03*
%TD*%
D15*
%TO.C,D26*%
X130969300Y-78909690D03*
D16*
X130969300Y-71109690D03*
%TD*%
D15*
%TO.C,D25*%
X111919220Y-78909690D03*
D16*
X111919220Y-71109690D03*
%TD*%
D15*
%TO.C,D24*%
X92869140Y-78909690D03*
D16*
X92869140Y-71109690D03*
%TD*%
D15*
%TO.C,D23*%
X75009690Y-78909690D03*
D16*
X75009690Y-71109690D03*
%TD*%
D15*
%TO.C,D22*%
X72628430Y-78909690D03*
D16*
X72628430Y-71109690D03*
%TD*%
D15*
%TO.C,D21*%
X33337640Y-78909690D03*
D16*
X33337640Y-71109690D03*
%TD*%
D15*
%TO.C,D20*%
X238126000Y-55097090D03*
D16*
X238126000Y-47297090D03*
%TD*%
D15*
%TO.C,D19*%
X197644580Y-59859610D03*
D16*
X197644580Y-52059610D03*
%TD*%
D15*
%TO.C,D18*%
X178594500Y-59859610D03*
D16*
X178594500Y-52059610D03*
%TD*%
D15*
%TO.C,D17*%
X159544420Y-59859610D03*
D16*
X159544420Y-52059610D03*
%TD*%
D15*
%TO.C,D16*%
X140494340Y-59859610D03*
D16*
X140494340Y-52059610D03*
%TD*%
D15*
%TO.C,D15*%
X121444260Y-59859610D03*
D16*
X121444260Y-52059610D03*
%TD*%
D15*
%TO.C,D14*%
X102394180Y-59859610D03*
D16*
X102394180Y-52059610D03*
%TD*%
D15*
%TO.C,D13*%
X83344100Y-59859610D03*
D16*
X83344100Y-52059610D03*
%TD*%
D15*
%TO.C,D12*%
X65484650Y-59859610D03*
D16*
X65484650Y-52059610D03*
%TD*%
D15*
%TO.C,D11*%
X63103390Y-59859610D03*
D16*
X63103390Y-52059610D03*
%TD*%
D15*
%TO.C,D10*%
X213122770Y-40809530D03*
D16*
X213122770Y-33009530D03*
%TD*%
D15*
%TO.C,D9*%
X210741510Y-40809530D03*
D16*
X210741510Y-33009530D03*
%TD*%
D15*
%TO.C,D8*%
X192882060Y-40809530D03*
D16*
X192882060Y-33009530D03*
%TD*%
D15*
%TO.C,D7*%
X173831980Y-40809530D03*
D16*
X173831980Y-33009530D03*
%TD*%
D15*
%TO.C,D6*%
X154781900Y-40809530D03*
D16*
X154781900Y-33009530D03*
%TD*%
D15*
%TO.C,D5*%
X135731820Y-40809530D03*
D16*
X135731820Y-33009530D03*
%TD*%
D15*
%TO.C,D4*%
X116681740Y-40809530D03*
D16*
X116681740Y-33009530D03*
%TD*%
D15*
%TO.C,D3*%
X97631660Y-40809530D03*
D16*
X97631660Y-33009530D03*
%TD*%
D15*
%TO.C,D2*%
X78581580Y-40809530D03*
D16*
X78581580Y-33009530D03*
%TD*%
D15*
%TO.C,D1*%
X59531500Y-40809530D03*
D16*
X59531500Y-33009530D03*
%TD*%
M02*
