%TF.GenerationSoftware,KiCad,Pcbnew,(5.1.9)-1*%
%TF.CreationDate,2021-08-31T12:46:26-07:00*%
%TF.ProjectId,warpstone,77617270-7374-46f6-9e65-2e6b69636164,rev?*%
%TF.SameCoordinates,Original*%
%TF.FileFunction,Soldermask,Bot*%
%TF.FilePolarity,Negative*%
%FSLAX46Y46*%
G04 Gerber Fmt 4.6, Leading zero omitted, Abs format (unit mm)*
G04 Created by KiCad (PCBNEW (5.1.9)-1) date 2021-08-31 12:46:26*
%MOMM*%
%LPD*%
G01*
G04 APERTURE LIST*
%ADD10C,1.752600*%
%ADD11R,1.752600X1.752600*%
%ADD12C,2.250000*%
%ADD13C,3.987800*%
%ADD14C,1.750000*%
%ADD15C,3.048000*%
%ADD16R,1.100000X1.800000*%
%ADD17R,1.600000X1.600000*%
%ADD18C,1.600000*%
%ADD19R,1.200000X1.600000*%
%ADD20R,1.600000X1.200000*%
G04 APERTURE END LIST*
D10*
%TO.C,U1*%
X52863940Y-32464570D03*
X37623940Y-60404570D03*
X52863940Y-35004570D03*
X52863940Y-37544570D03*
X52863940Y-40084570D03*
X52863940Y-42624570D03*
X52863940Y-45164570D03*
X52863940Y-47704570D03*
X52863940Y-50244570D03*
X52863940Y-52784570D03*
X52863940Y-55324570D03*
X52863940Y-57864570D03*
X52863940Y-60404570D03*
X37623940Y-57864570D03*
X37623940Y-55324570D03*
X37623940Y-52784570D03*
X37623940Y-50244570D03*
X37623940Y-47704570D03*
X37623940Y-45164570D03*
X37623940Y-42624570D03*
X37623940Y-40084570D03*
X37623940Y-37544570D03*
X37623940Y-35004570D03*
D11*
X37623940Y-32464570D03*
%TD*%
D12*
%TO.C,MX30-2.75u1*%
X216853400Y-71120320D03*
D13*
X214313400Y-76200320D03*
D12*
X210503400Y-73660320D03*
D14*
X209233400Y-76200320D03*
X219393400Y-76200320D03*
D15*
X202407150Y-69215320D03*
X226219650Y-69215320D03*
D13*
X202407150Y-84455320D03*
X226219650Y-84455320D03*
%TD*%
D12*
%TO.C,MX21-2.25u1*%
X54927720Y-71120320D03*
D13*
X52387720Y-76200320D03*
D12*
X48577720Y-73660320D03*
D14*
X47307720Y-76200320D03*
X57467720Y-76200320D03*
D15*
X40481470Y-69215320D03*
X64293970Y-69215320D03*
D13*
X40481470Y-84455320D03*
X64293970Y-84455320D03*
%TD*%
D12*
%TO.C,MX11*%
X50165200Y-52070240D03*
D13*
X47625200Y-57150240D03*
D12*
X43815200Y-54610240D03*
D14*
X42545200Y-57150240D03*
%TD*%
D13*
%TO.C,MX20-ISO1*%
X220345960Y-35687200D03*
X220345960Y-59563200D03*
D15*
X235585960Y-35687200D03*
X235585960Y-59563200D03*
D14*
X233680960Y-47625200D03*
X223520960Y-47625200D03*
D12*
X224790960Y-45085200D03*
D13*
X228600960Y-47625200D03*
D12*
X231140960Y-42545200D03*
%TD*%
%TO.C,MX20-2.25u1*%
X221615920Y-52070240D03*
D13*
X219075920Y-57150240D03*
D12*
X215265920Y-54610240D03*
D14*
X213995920Y-57150240D03*
X224155920Y-57150240D03*
D15*
X207169670Y-64135240D03*
X230982170Y-64135240D03*
D13*
X207169670Y-48895240D03*
X230982170Y-48895240D03*
%TD*%
D12*
%TO.C,MX38-1u1*%
X233522220Y-90170400D03*
D13*
X230982220Y-95250400D03*
D12*
X227172220Y-92710400D03*
D14*
X225902220Y-95250400D03*
X236062220Y-95250400D03*
%TD*%
D12*
%TO.C,MX37-1u1*%
X214472140Y-90170400D03*
D13*
X211932140Y-95250400D03*
D12*
X208122140Y-92710400D03*
D14*
X206852140Y-95250400D03*
X217012140Y-95250400D03*
%TD*%
D12*
%TO.C,MX32-1u1*%
X62071500Y-90170400D03*
D13*
X59531500Y-95250400D03*
D12*
X55721500Y-92710400D03*
D14*
X54451500Y-95250400D03*
X64611500Y-95250400D03*
%TD*%
D12*
%TO.C,MX31-1u1*%
X43021420Y-90170400D03*
D13*
X40481420Y-95250400D03*
D12*
X36671420Y-92710400D03*
D14*
X35401420Y-95250400D03*
X45561420Y-95250400D03*
%TD*%
D12*
%TO.C,MX34-7u1*%
X138271820Y-90170400D03*
D13*
X135731820Y-95250400D03*
D12*
X131921820Y-92710400D03*
D14*
X130651820Y-95250400D03*
X140811820Y-95250400D03*
D15*
X78581820Y-102235400D03*
X192881820Y-102235400D03*
D13*
X78581820Y-86995400D03*
X192881820Y-86995400D03*
%TD*%
%TO.C,MX34-6u1*%
X183356820Y-86995400D03*
X88106820Y-86995400D03*
D15*
X183356820Y-102235400D03*
X88106820Y-102235400D03*
D14*
X140811820Y-95250400D03*
X130651820Y-95250400D03*
D12*
X131921820Y-92710400D03*
D13*
X135731820Y-95250400D03*
D12*
X138271820Y-90170400D03*
%TD*%
%TO.C,MX35-3u1*%
X166846940Y-90170400D03*
X160496940Y-92710400D03*
D13*
X164306940Y-95250400D03*
D14*
X159226940Y-95250400D03*
X169386940Y-95250400D03*
D15*
X145256940Y-102235400D03*
X183356940Y-102235400D03*
D13*
X145256940Y-86995400D03*
X183356940Y-86995400D03*
%TD*%
D12*
%TO.C,MX34-3u1*%
X109696700Y-90170400D03*
X103346700Y-92710400D03*
D13*
X107156700Y-95250400D03*
D14*
X102076700Y-95250400D03*
X112236700Y-95250400D03*
D15*
X88106700Y-102235400D03*
X126206700Y-102235400D03*
D13*
X88106700Y-86995400D03*
X126206700Y-86995400D03*
%TD*%
D16*
%TO.C,SW1*%
X60190870Y-50725200D03*
X60190870Y-44525200D03*
X56490870Y-50725200D03*
X56490870Y-44525200D03*
%TD*%
D12*
%TO.C,MX38*%
X231140960Y-90170400D03*
D13*
X228600960Y-95250400D03*
D12*
X224790960Y-92710400D03*
D14*
X223520960Y-95250400D03*
X233680960Y-95250400D03*
%TD*%
D12*
%TO.C,MX37*%
X207328360Y-90170400D03*
D13*
X204788360Y-95250400D03*
D12*
X200978360Y-92710400D03*
D14*
X199708360Y-95250400D03*
X209868360Y-95250400D03*
%TD*%
D12*
%TO.C,MX36*%
X183515760Y-90170400D03*
D13*
X180975760Y-95250400D03*
D12*
X177165760Y-92710400D03*
D14*
X175895760Y-95250400D03*
X186055760Y-95250400D03*
%TD*%
D12*
%TO.C,MX35*%
X154940640Y-90170400D03*
D13*
X152400640Y-95250400D03*
D12*
X148590640Y-92710400D03*
D14*
X147320640Y-95250400D03*
X157480640Y-95250400D03*
%TD*%
D12*
%TO.C,MX34*%
X121603000Y-90170400D03*
D13*
X119063000Y-95250400D03*
D12*
X115253000Y-92710400D03*
D14*
X113983000Y-95250400D03*
X124143000Y-95250400D03*
%TD*%
D12*
%TO.C,MX33*%
X93027880Y-90170400D03*
D13*
X90487880Y-95250400D03*
D12*
X86677880Y-92710400D03*
D14*
X85407880Y-95250400D03*
X95567880Y-95250400D03*
%TD*%
D12*
%TO.C,MX32*%
X69215280Y-90170400D03*
D13*
X66675280Y-95250400D03*
D12*
X62865280Y-92710400D03*
D14*
X61595280Y-95250400D03*
X71755280Y-95250400D03*
%TD*%
D12*
%TO.C,MX31*%
X45402680Y-90170400D03*
D13*
X42862680Y-95250400D03*
D12*
X39052680Y-92710400D03*
D14*
X37782680Y-95250400D03*
X47942680Y-95250400D03*
%TD*%
D12*
%TO.C,MX30*%
X226378440Y-71120320D03*
D13*
X223838440Y-76200320D03*
D12*
X220028440Y-73660320D03*
D14*
X218758440Y-76200320D03*
X228918440Y-76200320D03*
%TD*%
D12*
%TO.C,MX29*%
X200184580Y-71120320D03*
D13*
X197644580Y-76200320D03*
D12*
X193834580Y-73660320D03*
D14*
X192564580Y-76200320D03*
X202724580Y-76200320D03*
%TD*%
D12*
%TO.C,MX28*%
X181134500Y-71120320D03*
D13*
X178594500Y-76200320D03*
D12*
X174784500Y-73660320D03*
D14*
X173514500Y-76200320D03*
X183674500Y-76200320D03*
%TD*%
D12*
%TO.C,MX27*%
X162084420Y-71120320D03*
D13*
X159544420Y-76200320D03*
D12*
X155734420Y-73660320D03*
D14*
X154464420Y-76200320D03*
X164624420Y-76200320D03*
%TD*%
D12*
%TO.C,MX26*%
X143034340Y-71120320D03*
D13*
X140494340Y-76200320D03*
D12*
X136684340Y-73660320D03*
D14*
X135414340Y-76200320D03*
X145574340Y-76200320D03*
%TD*%
D12*
%TO.C,MX25*%
X123984260Y-71120320D03*
D13*
X121444260Y-76200320D03*
D12*
X117634260Y-73660320D03*
D14*
X116364260Y-76200320D03*
X126524260Y-76200320D03*
%TD*%
D12*
%TO.C,MX24*%
X104934180Y-71120320D03*
D13*
X102394180Y-76200320D03*
D12*
X98584180Y-73660320D03*
D14*
X97314180Y-76200320D03*
X107474180Y-76200320D03*
%TD*%
D12*
%TO.C,MX23*%
X85884100Y-71120320D03*
D13*
X83344100Y-76200320D03*
D12*
X79534100Y-73660320D03*
D14*
X78264100Y-76200320D03*
X88424100Y-76200320D03*
%TD*%
D12*
%TO.C,MX22*%
X66834020Y-71120320D03*
D13*
X64294020Y-76200320D03*
D12*
X60484020Y-73660320D03*
D14*
X59214020Y-76200320D03*
X69374020Y-76200320D03*
%TD*%
D12*
%TO.C,MX21*%
X45402680Y-71120320D03*
D13*
X42862680Y-76200320D03*
D12*
X39052680Y-73660320D03*
D14*
X37782680Y-76200320D03*
X47942680Y-76200320D03*
%TD*%
D12*
%TO.C,MX20*%
X231140960Y-52070240D03*
D13*
X228600960Y-57150240D03*
D12*
X224790960Y-54610240D03*
D14*
X223520960Y-57150240D03*
X233680960Y-57150240D03*
%TD*%
D12*
%TO.C,MX19*%
X209709620Y-52070240D03*
D13*
X207169620Y-57150240D03*
D12*
X203359620Y-54610240D03*
D14*
X202089620Y-57150240D03*
X212249620Y-57150240D03*
%TD*%
D12*
%TO.C,MX18*%
X190659540Y-52070240D03*
D13*
X188119540Y-57150240D03*
D12*
X184309540Y-54610240D03*
D14*
X183039540Y-57150240D03*
X193199540Y-57150240D03*
%TD*%
D12*
%TO.C,MX17*%
X171609460Y-52070240D03*
D13*
X169069460Y-57150240D03*
D12*
X165259460Y-54610240D03*
D14*
X163989460Y-57150240D03*
X174149460Y-57150240D03*
%TD*%
D12*
%TO.C,MX16*%
X152559380Y-52070240D03*
D13*
X150019380Y-57150240D03*
D12*
X146209380Y-54610240D03*
D14*
X144939380Y-57150240D03*
X155099380Y-57150240D03*
%TD*%
D12*
%TO.C,MX15*%
X133509300Y-52070240D03*
D13*
X130969300Y-57150240D03*
D12*
X127159300Y-54610240D03*
D14*
X125889300Y-57150240D03*
X136049300Y-57150240D03*
%TD*%
D12*
%TO.C,MX14*%
X114459220Y-52070240D03*
D13*
X111919220Y-57150240D03*
D12*
X108109220Y-54610240D03*
D14*
X106839220Y-57150240D03*
X116999220Y-57150240D03*
%TD*%
D12*
%TO.C,MX13*%
X95409140Y-52070240D03*
D13*
X92869140Y-57150240D03*
D12*
X89059140Y-54610240D03*
D14*
X87789140Y-57150240D03*
X97949140Y-57150240D03*
%TD*%
D12*
%TO.C,MX12*%
X76359060Y-52070240D03*
D13*
X73819060Y-57150240D03*
D12*
X70009060Y-54610240D03*
D14*
X68739060Y-57150240D03*
X78899060Y-57150240D03*
%TD*%
D12*
%TO.C,MX10*%
X228759700Y-33020160D03*
D13*
X226219700Y-38100160D03*
D12*
X222409700Y-35560160D03*
D14*
X221139700Y-38100160D03*
X231299700Y-38100160D03*
%TD*%
D12*
%TO.C,MX9*%
X204947100Y-33020160D03*
D13*
X202407100Y-38100160D03*
D12*
X198597100Y-35560160D03*
D14*
X197327100Y-38100160D03*
X207487100Y-38100160D03*
%TD*%
D12*
%TO.C,MX8*%
X185897020Y-33020160D03*
D13*
X183357020Y-38100160D03*
D12*
X179547020Y-35560160D03*
D14*
X178277020Y-38100160D03*
X188437020Y-38100160D03*
%TD*%
D12*
%TO.C,MX7*%
X166846940Y-33020160D03*
D13*
X164306940Y-38100160D03*
D12*
X160496940Y-35560160D03*
D14*
X159226940Y-38100160D03*
X169386940Y-38100160D03*
%TD*%
D12*
%TO.C,MX6*%
X147796860Y-33020160D03*
D13*
X145256860Y-38100160D03*
D12*
X141446860Y-35560160D03*
D14*
X140176860Y-38100160D03*
X150336860Y-38100160D03*
%TD*%
D12*
%TO.C,MX5*%
X128746780Y-33020160D03*
D13*
X126206780Y-38100160D03*
D12*
X122396780Y-35560160D03*
D14*
X121126780Y-38100160D03*
X131286780Y-38100160D03*
%TD*%
D12*
%TO.C,MX4*%
X109696700Y-33020160D03*
D13*
X107156700Y-38100160D03*
D12*
X103346700Y-35560160D03*
D14*
X102076700Y-38100160D03*
X112236700Y-38100160D03*
%TD*%
D12*
%TO.C,MX3*%
X90646620Y-33020160D03*
D13*
X88106620Y-38100160D03*
D12*
X84296620Y-35560160D03*
D14*
X83026620Y-38100160D03*
X93186620Y-38100160D03*
%TD*%
D12*
%TO.C,MX2*%
X71596540Y-33020160D03*
D13*
X69056540Y-38100160D03*
D12*
X65246540Y-35560160D03*
D14*
X63976540Y-38100160D03*
X74136540Y-38100160D03*
%TD*%
D12*
%TO.C,MX1*%
X47783940Y-33020160D03*
D13*
X45243940Y-38100160D03*
D12*
X41433940Y-35560160D03*
D14*
X40163940Y-38100160D03*
X50323940Y-38100160D03*
%TD*%
D17*
%TO.C,D38*%
X239316630Y-97959770D03*
D18*
X239316630Y-90159770D03*
D19*
X239316630Y-95459770D03*
X239316630Y-92659770D03*
%TD*%
D17*
%TO.C,D37*%
X220266550Y-97959770D03*
D18*
X220266550Y-90159770D03*
D19*
X220266550Y-95459770D03*
X220266550Y-92659770D03*
%TD*%
D17*
%TO.C,D36*%
X172641350Y-97959770D03*
D18*
X172641350Y-90159770D03*
D19*
X172641350Y-95459770D03*
X172641350Y-92659770D03*
%TD*%
D17*
%TO.C,D35*%
X165825680Y-86915990D03*
D18*
X158025680Y-86915990D03*
D20*
X163325680Y-86915990D03*
X160525680Y-86915990D03*
%TD*%
D17*
%TO.C,D34*%
X108019220Y-86915990D03*
D18*
X115819220Y-86915990D03*
D20*
X110519220Y-86915990D03*
X113319220Y-86915990D03*
%TD*%
D17*
%TO.C,D33*%
X98822290Y-97959770D03*
D18*
X98822290Y-90159770D03*
D19*
X98822290Y-95459770D03*
X98822290Y-92659770D03*
%TD*%
D17*
%TO.C,D32*%
X51197090Y-97959770D03*
D18*
X51197090Y-90159770D03*
D19*
X51197090Y-95459770D03*
X51197090Y-92659770D03*
%TD*%
D17*
%TO.C,D31*%
X32147010Y-97959770D03*
D18*
X32147010Y-90159770D03*
D19*
X32147010Y-95459770D03*
X32147010Y-92659770D03*
%TD*%
D17*
%TO.C,D30*%
X233363480Y-78909690D03*
D18*
X233363480Y-71109690D03*
D19*
X233363480Y-76409690D03*
X233363480Y-73609690D03*
%TD*%
D17*
%TO.C,D29*%
X188119540Y-78909690D03*
D18*
X188119540Y-71109690D03*
D19*
X188119540Y-76409690D03*
X188119540Y-73609690D03*
%TD*%
D17*
%TO.C,D28*%
X169069460Y-78909690D03*
D18*
X169069460Y-71109690D03*
D19*
X169069460Y-76409690D03*
X169069460Y-73609690D03*
%TD*%
D17*
%TO.C,D27*%
X150019380Y-78909690D03*
D18*
X150019380Y-71109690D03*
D19*
X150019380Y-76409690D03*
X150019380Y-73609690D03*
%TD*%
D17*
%TO.C,D26*%
X130969300Y-78909690D03*
D18*
X130969300Y-71109690D03*
D19*
X130969300Y-76409690D03*
X130969300Y-73609690D03*
%TD*%
D17*
%TO.C,D25*%
X111919220Y-78909690D03*
D18*
X111919220Y-71109690D03*
D19*
X111919220Y-76409690D03*
X111919220Y-73609690D03*
%TD*%
D17*
%TO.C,D24*%
X92869140Y-78909690D03*
D18*
X92869140Y-71109690D03*
D19*
X92869140Y-76409690D03*
X92869140Y-73609690D03*
%TD*%
D17*
%TO.C,D23*%
X75009690Y-78909690D03*
D18*
X75009690Y-71109690D03*
D19*
X75009690Y-76409690D03*
X75009690Y-73609690D03*
%TD*%
D17*
%TO.C,D22*%
X72628430Y-78909690D03*
D18*
X72628430Y-71109690D03*
D19*
X72628430Y-76409690D03*
X72628430Y-73609690D03*
%TD*%
D17*
%TO.C,D21*%
X33337640Y-78909690D03*
D18*
X33337640Y-71109690D03*
D19*
X33337640Y-76409690D03*
X33337640Y-73609690D03*
%TD*%
D17*
%TO.C,D20*%
X238126000Y-55097090D03*
D18*
X238126000Y-47297090D03*
D19*
X238126000Y-52597090D03*
X238126000Y-49797090D03*
%TD*%
D17*
%TO.C,D19*%
X197644580Y-59859610D03*
D18*
X197644580Y-52059610D03*
D19*
X197644580Y-57359610D03*
X197644580Y-54559610D03*
%TD*%
D17*
%TO.C,D18*%
X178594500Y-59859610D03*
D18*
X178594500Y-52059610D03*
D19*
X178594500Y-57359610D03*
X178594500Y-54559610D03*
%TD*%
D17*
%TO.C,D17*%
X159544420Y-59859610D03*
D18*
X159544420Y-52059610D03*
D19*
X159544420Y-57359610D03*
X159544420Y-54559610D03*
%TD*%
D17*
%TO.C,D16*%
X140494340Y-59859610D03*
D18*
X140494340Y-52059610D03*
D19*
X140494340Y-57359610D03*
X140494340Y-54559610D03*
%TD*%
D17*
%TO.C,D15*%
X121444260Y-59859610D03*
D18*
X121444260Y-52059610D03*
D19*
X121444260Y-57359610D03*
X121444260Y-54559610D03*
%TD*%
D17*
%TO.C,D14*%
X102394180Y-59859610D03*
D18*
X102394180Y-52059610D03*
D19*
X102394180Y-57359610D03*
X102394180Y-54559610D03*
%TD*%
D17*
%TO.C,D13*%
X83344100Y-59859610D03*
D18*
X83344100Y-52059610D03*
D19*
X83344100Y-57359610D03*
X83344100Y-54559610D03*
%TD*%
D17*
%TO.C,D12*%
X65484650Y-59859610D03*
D18*
X65484650Y-52059610D03*
D19*
X65484650Y-57359610D03*
X65484650Y-54559610D03*
%TD*%
D17*
%TO.C,D11*%
X63103390Y-59859610D03*
D18*
X63103390Y-52059610D03*
D19*
X63103390Y-57359610D03*
X63103390Y-54559610D03*
%TD*%
D17*
%TO.C,D10*%
X213122770Y-40809530D03*
D18*
X213122770Y-33009530D03*
D19*
X213122770Y-38309530D03*
X213122770Y-35509530D03*
%TD*%
D17*
%TO.C,D9*%
X210741510Y-40809530D03*
D18*
X210741510Y-33009530D03*
D19*
X210741510Y-38309530D03*
X210741510Y-35509530D03*
%TD*%
D17*
%TO.C,D8*%
X192882060Y-40809530D03*
D18*
X192882060Y-33009530D03*
D19*
X192882060Y-38309530D03*
X192882060Y-35509530D03*
%TD*%
D17*
%TO.C,D7*%
X173831980Y-40809530D03*
D18*
X173831980Y-33009530D03*
D19*
X173831980Y-38309530D03*
X173831980Y-35509530D03*
%TD*%
D17*
%TO.C,D6*%
X154781900Y-40809530D03*
D18*
X154781900Y-33009530D03*
D19*
X154781900Y-38309530D03*
X154781900Y-35509530D03*
%TD*%
D17*
%TO.C,D5*%
X135731820Y-40809530D03*
D18*
X135731820Y-33009530D03*
D19*
X135731820Y-38309530D03*
X135731820Y-35509530D03*
%TD*%
D17*
%TO.C,D4*%
X116681740Y-40809530D03*
D18*
X116681740Y-33009530D03*
D19*
X116681740Y-38309530D03*
X116681740Y-35509530D03*
%TD*%
D17*
%TO.C,D3*%
X97631660Y-40809530D03*
D18*
X97631660Y-33009530D03*
D19*
X97631660Y-38309530D03*
X97631660Y-35509530D03*
%TD*%
D17*
%TO.C,D2*%
X78581580Y-40809530D03*
D18*
X78581580Y-33009530D03*
D19*
X78581580Y-38309530D03*
X78581580Y-35509530D03*
%TD*%
D17*
%TO.C,D1*%
X59531500Y-40809530D03*
D18*
X59531500Y-33009530D03*
D19*
X59531500Y-38309530D03*
X59531500Y-35509530D03*
%TD*%
M02*
