<?xml version="1.0" standalone="no"?>
 <!DOCTYPE svg PUBLIC "-//W3C//DTD SVG 1.1//EN" 
 "http://www.w3.org/Graphics/SVG/1.1/DTD/svg11.dtd"> 
<svg
  xmlns:svg="http://www.w3.org/2000/svg"
  xmlns="http://www.w3.org/2000/svg"
  xmlns:xlink="http://www.w3.org/1999/xlink"
  version="1.1"
  width="23.995380cm" height="8.846820cm" viewBox="0 0 94470 34830">
<title>SVG Picture created as case-brd.svg date 2022/03/10 14:30:16 </title>
  <desc>Picture generated by PCBNEW </desc>
<g style="fill:#000000; fill-opacity:1;stroke:#000000; stroke-opacity:1;
stroke-linecap:round; stroke-linejoin:round;"
 transform="translate(0 0) scale(1 1)">
</g>
<g style="fill:#000000; fill-opacity:0.0; 
stroke:#000000; stroke-width:-0.000393701; stroke-opacity:1; 
stroke-linecap:round; stroke-linejoin:round;">
</g>
<g style="fill:#000000; fill-opacity:0.0; 
stroke:#000000; stroke-width:19.685; stroke-opacity:1; 
stroke-linecap:round; stroke-linejoin:round;">
<path d="M3291.1 3420.62 A234.375 234.375 0.0 0 0 3056.72 3654.99" />
<path d="M3056.72 32483.1 A234.375 234.375 0.0 0 0 3291.1 32717.5" />
<path d="M83447.4 32717.5 A234.375 234.375 0.0 0 0 83681.8 32483.1" />
<path d="M84619.3 3420.62 A234.375 234.375 0.0 0 0 84853.7 3186.24" />
<path d="M84853 2014
L84853 3186
" />
<path d="M92119.3 13733.1 A234.375 234.375 0.0 0 0 92353.7 13498.8" />
<path d="M83916.2 13733.1 A234.375 234.375 0.0 0 0 83681.8 13967.5" />
<path d="M83681 13967
L83681 32483
" />
<path d="M92119 13733
L83916 13733
" />
<path d="M92353 1779
L92353 13498
" />
<path d="M92353.7 1779.99 A234.375 234.375 0.0 0 0 92119.3 1545.62" />
<path d="M85088 1545
L92119 1545
" />
<path d="M85088 1545.62 A234.375 234.375 0.0 0 0 84853.7 1779.99" />
<path d="M84853 2014
L84853 1779
" />
<path d="M3291 3420
L84619 3420
" />
<path d="M93525.5 34826.9 A937.504 937.504 0.0 0 0 94463.1 33889.4" />
<path d="M947.347 139.364 A937.504 937.504 0.0 0 0 9.84291 1076.87" />
</g>
<g style="fill:#000000; fill-opacity:0.0; 
stroke:#000000; stroke-width:59.0551; stroke-opacity:1; 
stroke-linecap:round; stroke-linejoin:round;">
<circle cx="43603.6" cy="33655" r="393.701" /> 
</g>
<g style="fill:#000000; fill-opacity:0.0; 
stroke:#000000; stroke-width:19.685; stroke-opacity:1; 
stroke-linecap:round; stroke-linejoin:round;">
<path d="M94463 33889
L94463 1076
" />
</g>
<g style="fill:#000000; fill-opacity:0.0; 
stroke:#000000; stroke-width:59.0551; stroke-opacity:1; 
stroke-linecap:round; stroke-linejoin:round;">
<circle cx="93291.2" cy="33655" r="393.701" /> 
</g>
<g style="fill:#000000; fill-opacity:0.0; 
stroke:#000000; stroke-width:19.685; stroke-opacity:1; 
stroke-linecap:round; stroke-linejoin:round;">
<path d="M3056 3654
L3056 32483
" />
</g>
<g style="fill:#000000; fill-opacity:0.0; 
stroke:#000000; stroke-width:59.0551; stroke-opacity:1; 
stroke-linecap:round; stroke-linejoin:round;">
<circle cx="1181.72" cy="33655" r="393.701" /> 
</g>
<g style="fill:#000000; fill-opacity:0.0; 
stroke:#000000; stroke-width:19.685; stroke-opacity:1; 
stroke-linecap:round; stroke-linejoin:round;">
<path d="M9 1076
L9 33889
" />
<path d="M947 34826
L93525 34826
" />
</g>
<g style="fill:#000000; fill-opacity:0.0; 
stroke:#000000; stroke-width:59.0551; stroke-opacity:1; 
stroke-linecap:round; stroke-linejoin:round;">
<circle cx="1181.72" cy="1311.24" r="393.701" /> 
<circle cx="83681.8" cy="1311.24" r="393.701" /> 
</g>
<g style="fill:#000000; fill-opacity:0.0; 
stroke:#000000; stroke-width:19.685; stroke-opacity:1; 
stroke-linecap:round; stroke-linejoin:round;">
<path d="M3291 32717
L83447 32717
" />
<path d="M9.84606 33889.4 A937.504 937.504 0.0 0 0 947.35 34826.9" />
<path d="M94463.1 1076.87 A937.504 937.504 0.0 0 0 93525.5 139.364" />
</g>
<g style="fill:#000000; fill-opacity:0.0; 
stroke:#000000; stroke-width:59.0551; stroke-opacity:1; 
stroke-linecap:round; stroke-linejoin:round;">
<circle cx="93291.2" cy="1311.24" r="393.701" /> 
</g>
<g style="fill:#000000; fill-opacity:0.0; 
stroke:#000000; stroke-width:19.685; stroke-opacity:1; 
stroke-linecap:round; stroke-linejoin:round;">
<path d="M93525 139
L947 139
" />
</g>
<g style="fill:#000000; fill-opacity:0.0; 
stroke:#000000; stroke-width:59.0551; stroke-opacity:1; 
stroke-linecap:round; stroke-linejoin:round;">
<circle cx="43603.6" cy="1311.24" r="393.701" /> 
<g >
</g>
<g >
</g>
<g >
</g>
<g >
</g>
<g >
</g>
<g >
</g>
<g >
</g>
<g >
</g>
<g >
</g>
<g >
</g>
<g >
</g>
<g >
</g>
<g >
</g>
<g >
</g>
<g >
</g>
<g >
</g>
<g >
</g>
<g >
</g>
<g >
</g>
<g >
</g>
<g >
</g>
<g >
</g>
<g >
</g>
<g >
</g>
<g >
</g>
<g >
</g>
<g >
</g>
<g >
</g>
<g >
</g>
<g >
</g>
<g >
</g>
<g >
</g>
<g >
</g>
<g >
</g>
<g >
</g>
<g >
</g>
<g >
</g>
<g >
</g>
<g >
</g>
<g >
</g>
<g >
</g>
<g >
</g>
<g >
</g>
<g >
</g>
<g >
</g>
<g >
</g>
<g >
</g>
<g >
</g>
<g >
</g>
<g >
</g>
<g >
</g>
</g> 
</svg>
