<?xml version="1.0" standalone="no"?>
 <!DOCTYPE svg PUBLIC "-//W3C//DTD SVG 1.1//EN" 
 "http://www.w3.org/Graphics/SVG/1.1/DTD/svg11.dtd"> 
<svg
  xmlns:svg="http://www.w3.org/2000/svg"
  xmlns="http://www.w3.org/2000/svg"
  xmlns:xlink="http://www.w3.org/1999/xlink"
  version="1.1"
  width="23.995380cm" height="8.813800cm" viewBox="0 0 94470 34700">
<title>SVG Picture created as case-brd.svg date 2022/03/14 09:51:06 </title>
  <desc>Picture generated by PCBNEW </desc>
<g style="fill:#000000; fill-opacity:1;stroke:#000000; stroke-opacity:1;
stroke-linecap:round; stroke-linejoin:round;"
 transform="translate(0 0) scale(1 1)">
</g>
<g style="fill:#000000; fill-opacity:0.0; 
stroke:#000000; stroke-width:-0.000393701; stroke-opacity:1; 
stroke-linecap:round; stroke-linejoin:round;">
</g>
<g style="fill:#000000; fill-opacity:0.0; 
stroke:#000000; stroke-width:19.685; stroke-opacity:1; 
stroke-linecap:round; stroke-linejoin:round;">
<path d="M69853 29072
L69853 29541
" />
<path d="M84853 1884
L84853 13369
" />
<path d="M93525 9
L947 9
" />
<path d="M92119 13603
L85088 13603
" />
</g>
<g style="fill:#000000; fill-opacity:0.0; 
stroke:#000000; stroke-width:59.0551; stroke-opacity:1; 
stroke-linecap:round; stroke-linejoin:round;">
<circle cx="43603.6" cy="1181.72" r="393.701" /> 
</g>
<g style="fill:#000000; fill-opacity:0.0; 
stroke:#000000; stroke-width:19.685; stroke-opacity:1; 
stroke-linecap:round; stroke-linejoin:round;">
<path d="M92119.3 13603.6 A234.375 234.375 0.0 0 0 92353.7 13369.2" />
</g>
<g style="fill:#000000; fill-opacity:0.0; 
stroke:#000000; stroke-width:59.0551; stroke-opacity:1; 
stroke-linecap:round; stroke-linejoin:round;">
<circle cx="93291.2" cy="1181.72" r="393.701" /> 
<circle cx="1181.72" cy="33525.5" r="393.701" /> 
</g>
<g style="fill:#000000; fill-opacity:0.0; 
stroke:#000000; stroke-width:19.685; stroke-opacity:1; 
stroke-linecap:round; stroke-linejoin:round;">
<path d="M947 34697
L93525 34697
" />
</g>
<g style="fill:#000000; fill-opacity:0.0; 
stroke:#000000; stroke-width:59.0551; stroke-opacity:1; 
stroke-linecap:round; stroke-linejoin:round;">
<circle cx="1181.72" cy="1181.72" r="393.701" /> 
<circle cx="83681.8" cy="1181.72" r="393.701" /> 
</g>
<g style="fill:#000000; fill-opacity:0.0; 
stroke:#000000; stroke-width:19.685; stroke-opacity:1; 
stroke-linecap:round; stroke-linejoin:round;">
<path d="M9.84606 33759.9 A937.504 937.504 0.0 0 0 947.35 34697.4" />
<path d="M9 947
L9 33759
" />
<path d="M94463.1 947.347 A937.504 937.504 0.0 0 0 93525.5 9.84291" />
<path d="M92353 1650
L92353 13369
" />
<path d="M85088 1416
L92119 1416
" />
<path d="M92353.7 1650.47 A234.375 234.375 0.0 0 0 92119.3 1416.09" />
<path d="M94463 33759
L94463 947
" />
<path d="M84853 1884
L84853 1650
" />
<path d="M85088 1416.09 A234.375 234.375 0.0 0 0 84853.7 1650.47" />
<path d="M93525.5 34697.4 A937.504 937.504 0.0 0 0 94463.1 33759.9" />
</g>
<g style="fill:#000000; fill-opacity:0.0; 
stroke:#000000; stroke-width:59.0551; stroke-opacity:1; 
stroke-linecap:round; stroke-linejoin:round;">
<circle cx="43603.6" cy="33525.5" r="393.701" /> 
<circle cx="93291.2" cy="33525.5" r="393.701" /> 
</g>
<g style="fill:#000000; fill-opacity:0.0; 
stroke:#000000; stroke-width:19.685; stroke-opacity:1; 
stroke-linecap:round; stroke-linejoin:round;">
<path d="M947.347 9.84291 A937.504 937.504 0.0 0 0 9.84291 947.347" />
<path d="M68213 29072
L69853 29072
" />
<path d="M68681 22978
L68681 25791
" />
<path d="M13837 26962
L13837 26025
" />
<path d="M65400 19462
L68213 19462
" />
<path d="M80869 21572
L80869 20634
" />
<path d="M12900 29541
L17353 29541
" />
<path d="M18056 28134
L18994 28134
" />
<path d="M80869 20634
L80166 20634
" />
<path d="M65400 19462
L65400 21572
" />
<path d="M19931 26025
L19931 32353
" />
<path d="M68916 18291
L68213 18291
" />
<path d="M18056 26025
L18056 28134
" />
<path d="M80400 25322
L80400 22978
" />
<path d="M68916 17353
L68916 18291
" />
<path d="M18994 29072
L18994 28134
" />
<path d="M68213 19462
L68213 18291
" />
<path d="M80166 20634
L80166 18056
" />
<path d="M67041 22041
L68916 22041
" />
<path d="M11025 26962
L13837 26962
" />
<path d="M11025 26962
L11025 29306
" />
<path d="M78291 17353
L78291 18291
" />
<path d="M78056 22978
L78056 25791
" />
<path d="M70088 17353
L68916 17353
" />
<path d="M79463 17353
L78291 17353
" />
<path d="M71025 25322
L71025 22978
" />
<path d="M69853 29541
L74541 29541
" />
<path d="M77588 28134
L77588 29072
" />
<path d="M78056 28134
L77588 28134
" />
<path d="M68213 26962
L71025 26962
" />
<path d="M8681 28134
L9619 28134
" />
<path d="M75244 26025
L75244 28134
" />
<path d="M76181 29072
L76181 28134
" />
<path d="M75244 28134
L76181 28134
" />
<path d="M68213 29072
L68213 26962
" />
<path d="M8681 26025
L8681 28134
" />
<path d="M75244 26025
L71728 26025
" />
<path d="M9619 28134
L9619 29072
" />
<path d="M72900 8916
L70556 8916
" />
<path d="M72900 8916
L72900 10791
" />
<path d="M72900 11025
L79931 11025
" />
<path d="M79931 11025
L79931 8916
" />
<path d="M14306 26025
L13837 26025
" />
<path d="M7275 26025
L8681 26025
" />
<path d="M72900 10791
L72900 11025
" />
<path d="M76181 29072
L74541 29072
" />
<path d="M12900 29306
L12900 29541
" />
<path d="M78056 26962
L78056 28134
" />
<path d="M72666 17353
L71494 17353
" />
<path d="M83681 29072
L82041 29072
" />
<path d="M82041 29072
L82041 29541
" />
<path d="M76181 19462
L78291 19462
" />
<path d="M78291 19462
L78291 18291
" />
<path d="M11025 29306
L12900 29306
" />
<path d="M79228 29072
L79228 29541
" />
<path d="M9619 29072
L7978 29072
" />
<path d="M70791 18056
L70791 18994
" />
<path d="M74775 18525
L76181 18525
" />
<path d="M7978 29072
L7978 29541
" />
<path d="M74541 29072
L74541 29541
" />
<path d="M72431 19462
L74775 19462
" />
<path d="M76181 18525
L76181 19462
" />
<path d="M77588 29072
L79228 29072
" />
<path d="M74775 19462
L74775 18525
" />
<path d="M3525 29072
L5166 29072
" />
<path d="M5166 29072
L5166 29541
" />
<path d="M82744 26025
L82744 28134
" />
<path d="M82744 28134
L83681 28134
" />
<path d="M82041 29541
L79228 29541
" />
<path d="M83681 28134
L83681 29072
" />
<path d="M4931 17353
L4931 20634
" />
<path d="M4931 20634
L4462 20634
" />
<path d="M33056 22041
L27900 22041
" />
<path d="M18056 20634
L18056 21572
" />
<path d="M7275 18525
L14306 18525
" />
<path d="M48056 18525
L42900 18525
" />
<path d="M18056 21572
L16650 21572
" />
<path d="M7275 22041
L14306 22041
" />
<path d="M61650 14541
L61650 11025
" />
<path d="M33056 18525
L27900 18525
" />
<path d="M63056 18525
L57900 18525
" />
<path d="M27900 22041
L27900 18525
" />
<path d="M17119 18291
L17119 20634
" />
<path d="M40556 18525
L35400 18525
" />
<path d="M40556 22041
L35400 22041
" />
<path d="M17119 20634
L18056 20634
" />
<path d="M63056 22041
L57900 22041
" />
<path d="M14306 17353
L16650 17353
" />
<path d="M4931 21572
L4462 21572
" />
<path d="M55556 22041
L55556 18525
" />
<path d="M4931 17353
L7275 17353
" />
<path d="M16650 18291
L17119 18291
" />
<path d="M25556 22041
L20400 22041
" />
<path d="M16650 21572
L16650 26025
" />
<path d="M7275 17353
L7275 18525
" />
<path d="M42900 22041
L42900 18525
" />
<path d="M25556 18525
L20400 18525
" />
<path d="M40556 22041
L40556 18525
" />
<path d="M4462 21572
L4462 20634
" />
<path d="M63056 22041
L63056 18525
" />
<path d="M55556 22041
L50400 22041
" />
<path d="M50400 22041
L50400 18525
" />
<path d="M48056 22041
L42900 22041
" />
<path d="M48056 22041
L48056 18525
" />
<path d="M20400 22041
L20400 18525
" />
<path d="M14306 18525
L14306 17353
" />
<path d="M7275 26025
L7275 22041
" />
<path d="M14306 22041
L14306 26025
" />
<path d="M25556 22041
L25556 18525
" />
<path d="M35400 22041
L35400 18525
" />
<path d="M16650 17353
L16650 18291
" />
<path d="M66806 14541
L66806 11025
" />
<path d="M55556 18525
L50400 18525
" />
<path d="M33056 22041
L33056 18525
" />
<path d="M57900 22041
L57900 18525
" />
<path d="M4931 26962
L4931 21572
" />
<path d="M70556 11962
L70088 11962
" />
<path d="M82275 8916
L79931 8916
" />
<path d="M72666 17353
L72666 15244
" />
<path d="M69619 13134
L69150 13134
" />
<path d="M82275 13134
L82275 8916
" />
<path d="M70791 14072
L70791 14541
" />
<path d="M3525 29072
L3525 26962
" />
<path d="M3525 26962
L4931 26962
" />
<path d="M70791 14541
L81103 14541
" />
<path d="M69150 14072
L70791 14072
" />
<path d="M70556 8916
L70556 11962
" />
<path d="M69619 11962
L69619 13134
" />
<path d="M41025 23916
L41025 26025
" />
<path d="M70088 11962
L69619 11962
" />
<path d="M41025 26025
L46181 26025
" />
<path d="M46181 26025
L46181 23916
" />
<path d="M48525 23916
L48525 26025
" />
<path d="M46181 23916
L48525 23916
" />
<path d="M26025 23916
L26025 26025
" />
<path d="M16650 26025
L18056 26025
" />
<path d="M48525 26025
L61181 26025
" />
<path d="M61181 23916
L67275 23916
" />
<path d="M80166 15244
L80166 16650
" />
<path d="M80869 17353
L82041 17353
" />
<path d="M82744 14072
L82744 13134
" />
<path d="M38681 26025
L38681 23916
" />
<path d="M82744 13134
L82275 13134
" />
<path d="M38681 23916
L41025 23916
" />
<path d="M81103 14072
L82744 14072
" />
<path d="M26025 26025
L38681 26025
" />
<path d="M61181 26025
L61181 23916
" />
<path d="M69150 13134
L69150 14072
" />
<path d="M19931 26025
L19931 23916
" />
<path d="M19931 23916
L26025 23916
" />
<path d="M81103 26025
L82744 26025
" />
<path d="M38916 29541
L25791 29541
" />
<path d="M46416 32353
L46416 29541
" />
<path d="M67275 23916
L67275 32353
" />
<path d="M61416 32353
L61416 29541
" />
<path d="M46416 29541
L40791 29541
" />
<path d="M40791 29541
L40791 32353
" />
<path d="M38916 32353
L38916 29541
" />
<path d="M61416 29541
L48291 29541
" />
<path d="M48291 29541
L48291 32353
" />
<path d="M25791 29541
L25791 32353
" />
<path d="M27431 3525
L22275 3525
" />
<path d="M40791 32353
L38916 32353
" />
<path d="M67275 32353
L61416 32353
" />
<path d="M25791 32353
L19931 32353
" />
<path d="M84853.7 13369.2 A234.375 234.375 0.0 0 0 85088 13603.6" />
<path d="M10556 7041
L5400 7041
" />
<path d="M10556 3525
L5400 3525
" />
<path d="M5400 7041
L5400 3525
" />
<path d="M7978 29541
L5166 29541
" />
<path d="M10556 7041
L10556 3525
" />
<path d="M48291 32353
L46416 32353
" />
<path d="M19931 7041
L14775 7041
" />
<path d="M14775 7041
L14775 3525
" />
<path d="M19931 7041
L19931 3525
" />
<path d="M27431 7041
L22275 7041
" />
<path d="M19931 3525
L14775 3525
" />
<path d="M22275 7041
L22275 3525
" />
<path d="M27431 7041
L27431 3525
" />
<path d="M34931 7041
L29775 7041
" />
<path d="M59775 7041
L59775 3525
" />
<path d="M11494 14541
L6337 14541
" />
<path d="M11494 11025
L6337 11025
" />
<path d="M11494 14541
L11494 11025
" />
<path d="M34931 7041
L34931 3525
" />
<path d="M21806 14541
L21806 11025
" />
<path d="M29306 14541
L24150 14541
" />
<path d="M81806 7041
L81806 3525
" />
<path d="M29306 11025
L24150 11025
" />
<path d="M16650 14541
L16650 11025
" />
<path d="M24150 14541
L24150 11025
" />
<path d="M29306 14541
L29306 11025
" />
<path d="M36806 11025
L31650 11025
" />
<path d="M81806 7041
L76650 7041
" />
<path d="M36806 14541
L36806 11025
" />
<path d="M44306 14541
L39150 14541
" />
<path d="M44306 11025
L39150 11025
" />
<path d="M64931 3525
L59775 3525
" />
<path d="M39150 14541
L39150 11025
" />
<path d="M49931 3525
L44775 3525
" />
<path d="M36806 14541
L31650 14541
" />
<path d="M42431 3525
L37275 3525
" />
<path d="M44306 14541
L44306 11025
" />
<path d="M51806 14541
L46650 14541
" />
<path d="M51806 11025
L46650 11025
" />
<path d="M72431 7041
L67275 7041
" />
<path d="M31650 14541
L31650 11025
" />
<path d="M46650 14541
L46650 11025
" />
<path d="M51806 14541
L51806 11025
" />
<path d="M59306 14541
L54150 14541
" />
<path d="M52275 7041
L52275 3525
" />
<path d="M21806 14541
L16650 14541
" />
<path d="M59306 11025
L54150 11025
" />
<path d="M54150 14541
L54150 11025
" />
<path d="M59306 14541
L59306 11025
" />
<path d="M66806 14541
L61650 14541
" />
<path d="M66806 11025
L61650 11025
" />
<path d="M42431 7041
L42431 3525
" />
<path d="M49931 7041
L49931 3525
" />
<path d="M21806 11025
L16650 11025
" />
<path d="M6337 14541
L6337 11025
" />
<path d="M34931 3525
L29775 3525
" />
<path d="M72431 3525
L67275 3525
" />
<path d="M29775 7041
L29775 3525
" />
<path d="M57431 7041
L52275 7041
" />
<path d="M37275 7041
L37275 3525
" />
<path d="M42431 7041
L37275 7041
" />
<path d="M57431 7041
L57431 3525
" />
<path d="M81806 3525
L76650 3525
" />
<path d="M49931 7041
L44775 7041
" />
<path d="M67275 7041
L67275 3525
" />
<path d="M44775 7041
L44775 3525
" />
<path d="M57431 3525
L52275 3525
" />
<path d="M64931 7041
L64931 3525
" />
<path d="M64931 7041
L59775 7041
" />
<path d="M72431 7041
L72431 3525
" />
<path d="M76650 7041
L76650 3525
" />
<path d="M72666 15244
L70791 15244
" />
<path d="M18994 29072
L17353 29072
" />
<path d="M68681 22978
L71025 22978
" />
<path d="M78056 25791
L79697 25791
" />
<path d="M71025 26494
L71025 26962
" />
<path d="M78056 22978
L80400 22978
" />
<path d="M81103 14072
L81103 14541
" />
<path d="M72431 20634
L71963 20634
" />
<path d="M80166 15244
L82041 15244
" />
<path d="M80400 26962
L80400 26494
" />
<path d="M71963 20634
L71963 21572
" />
<path d="M17353 29072
L17353 29541
" />
<path d="M82041 15244
L82041 17353
" />
<path d="M70791 15244
L70791 16650
" />
<path d="M70556 18994
L70791 18994
" />
<path d="M72431 19462
L72431 20634
" />
<path d="M68681 25791
L70322 25791
" />
<path d="M71963 21572
L73603 21572
" />
<path d="M73603 21572
L73603 22041
" />
<path d="M70556 21572
L70556 18994
" />
<path d="M70556 21572
L68916 21572
" />
<path d="M68916 21572
L68916 22041
" />
<path d="M78056 26962
L80400 26962
" />
<path d="M70791 16650
L70088 17353
" />
<path d="M79697 25791
L80400 26494
" />
<path d="M80166 16650
L79463 17353
" />
<path d="M80166 18056
L80869 17353
" />
<path d="M70791 18056
L71494 17353
" />
<path d="M67041 21572
L65400 21572
" />
<path d="M80869 21572
L79228 21572
" />
<path d="M79228 21572
L79228 22041
" />
<path d="M73603 22041
L79228 22041
" />
<path d="M67041 22041
L67041 21572
" />
<path d="M71025 25322
L71728 26025
" />
<path d="M80400 25322
L81103 26025
" />
<path d="M70322 25791
L71025 26494
" />
<g >
</g>
<g >
</g>
<g >
</g>
<g >
</g>
<g >
</g>
<g >
</g>
<g >
</g>
<g >
</g>
<g >
</g>
<g >
</g>
<g >
</g>
<g >
</g>
<g >
</g>
<g >
</g>
<g >
</g>
<g >
</g>
<g >
</g>
<g >
</g>
<g >
</g>
<g >
</g>
<g >
</g>
<g >
</g>
<g >
</g>
<g >
</g>
<g >
</g>
<g >
</g>
<g >
</g>
<g >
</g>
<g >
</g>
<g >
</g>
<g >
</g>
<g >
</g>
<g >
</g>
<g >
</g>
<g >
</g>
<g >
</g>
<g >
</g>
<g >
</g>
<g >
</g>
<g >
</g>
<g >
</g>
<g >
</g>
<g >
</g>
<g >
</g>
<g >
</g>
<g >
</g>
<g >
</g>
<g >
</g>
<g >
</g>
<g >
</g>
<g >
</g>
</g> 
</svg>
