M48
; DRILL file {KiCad (5.1.9)-1} date 03/10/22 13:39:29
; FORMAT={-:-/ absolute / inch / decimal}
; #@! TF.CreationDate,2022-03-10T13:39:29-08:00
; #@! TF.GenerationSoftware,Kicad,Pcbnew,(5.1.9)-1
; #@! TF.FileFunction,NonPlated,1,2,NPTH
FMAT,2
INCH
T1C0.0689
T2C0.1200
T3C0.1570
%
G90
G05
T1
X1.3938Y-3.75
X1.4875Y-3.0
X1.4875Y-3.75
X1.5813Y-1.5
X1.675Y-2.25
X1.7938Y-3.75
X1.8625Y-3.0
X1.8875Y-3.0
X1.8875Y-3.75
X1.9813Y-1.5
X2.1438Y-3.75
X2.2625Y-3.0
X2.3313Y-3.0
X2.425Y-3.75
X2.5188Y-1.5
X2.5438Y-3.75
X2.7063Y-2.25
X2.7313Y-3.0
X2.825Y-3.75
X2.9188Y-1.5
X3.0813Y-3.0
X3.1063Y-2.25
X3.2688Y-1.5
X3.3625Y-3.75
X3.4563Y-2.25
X3.4813Y-3.0
X3.6688Y-1.5
X3.7625Y-3.75
X3.8313Y-3.0
X3.8563Y-2.25
X4.0188Y-1.5
X4.0188Y-3.75
X4.2063Y-2.25
X4.2313Y-3.0
X4.4188Y-1.5
X4.4188Y-3.75
X4.4875Y-3.75
X4.5813Y-3.0
X4.6063Y-2.25
X4.7688Y-1.5
X4.8875Y-3.75
X4.9563Y-2.25
X4.9813Y-3.0
X5.1438Y-3.75
X5.1438Y-3.75
X5.1688Y-1.5
X5.3313Y-3.0
X5.3563Y-2.25
X5.5188Y-1.5
X5.5438Y-3.75
X5.5438Y-3.75
X5.7063Y-2.25
X5.7313Y-3.0
X5.8Y-3.75
X5.9188Y-1.5
X6.0813Y-3.0
X6.1063Y-2.25
X6.2Y-3.75
X6.2688Y-1.5
X6.2688Y-3.75
X6.4563Y-2.25
X6.4813Y-3.0
X6.6688Y-1.5
X6.6688Y-3.75
X6.8313Y-3.0
X6.8563Y-2.25
X6.925Y-3.75
X7.0188Y-1.5
X7.2063Y-2.25
X7.2313Y-3.0
X7.325Y-3.75
X7.4188Y-1.5
X7.5813Y-3.0
X7.6063Y-2.25
X7.7688Y-1.5
X7.8625Y-3.75
X7.9563Y-2.25
X7.9813Y-3.0
X8.1438Y-3.75
X8.1688Y-1.5
X8.2375Y-3.0
X8.2625Y-3.75
X8.3563Y-2.25
X8.425Y-2.25
X8.5438Y-3.75
X8.6125Y-3.0
X8.6375Y-3.0
X8.7063Y-1.5
X8.8Y-2.25
X8.8Y-3.75
X8.825Y-2.25
X8.8938Y-3.75
X9.0125Y-3.0
X9.1063Y-1.5
X9.2Y-2.25
X9.2Y-3.75
X9.2938Y-3.75
T2
X1.5938Y-2.725
X2.5313Y-2.725
X3.0938Y-4.025
X3.4688Y-4.025
X3.4688Y-4.025
X4.9688Y-4.025
X5.7188Y-4.025
X7.2188Y-4.025
X7.2188Y-4.025
X7.5938Y-4.025
X7.9688Y-2.725
X8.1563Y-2.525
X8.9063Y-2.725
X9.0938Y-2.525
T3
X1.5938Y-3.75
X1.5938Y-3.325
X1.6875Y-3.0
X1.6875Y-3.75
X1.7813Y-1.5
X1.875Y-2.25
X2.0625Y-3.0
X2.3438Y-3.75
X2.5313Y-3.325
X2.5313Y-3.0
X2.625Y-3.75
X2.7188Y-1.5
X2.9063Y-2.25
X3.0938Y-3.425
X3.2813Y-3.0
X3.4688Y-1.5
X3.4688Y-3.425
X3.4688Y-3.425
X3.5625Y-3.75
X3.6563Y-2.25
X4.0313Y-3.0
X4.2188Y-1.5
X4.2188Y-3.75
X4.4063Y-2.25
X4.6875Y-3.75
X4.7813Y-3.0
X4.9688Y-3.425
X4.9688Y-1.5
X5.1563Y-2.25
X5.3438Y-3.75
X5.3438Y-3.75
X5.5313Y-3.0
X5.7188Y-1.5
X5.7188Y-3.425
X5.9063Y-2.25
X6.0Y-3.75
X6.2813Y-3.0
X6.4688Y-1.5
X6.4688Y-3.75
X6.6563Y-2.25
X7.0313Y-3.0
X7.125Y-3.75
X7.2188Y-3.425
X7.2188Y-3.425
X7.2188Y-1.5
X7.4063Y-2.25
X7.5938Y-3.425
X7.7813Y-3.0
X7.9688Y-1.5
X7.9688Y-3.325
X8.0625Y-3.75
X8.1563Y-2.25
X8.1563Y-1.925
X8.3438Y-3.75
X8.4375Y-3.0
X8.625Y-2.25
X8.8125Y-3.0
X8.9063Y-3.325
X8.9063Y-1.5
X9.0Y-2.25
X9.0Y-3.75
X9.0938Y-1.925
X9.0938Y-3.75
T0
M30
