M48
; DRILL file {KiCad (5.1.9)-1} date 03/10/22 13:39:29
; FORMAT={-:-/ absolute / inch / decimal}
; #@! TF.CreationDate,2022-03-10T13:39:29-08:00
; #@! TF.GenerationSoftware,Kicad,Pcbnew,(5.1.9)-1
; #@! TF.FileFunction,Plated,1,2,PTH
FMAT,2
INCH
T1C0.0157
T2C0.0430
T3C0.0579
T4C0.0866
%
G90
G05
T1
X3.0079Y-2.3711
X3.7598Y-2.3888
X4.1344Y-2.8856
X4.5079Y-2.4065
X4.6962Y-3.122
X4.6969Y-3.1969
X5.2598Y-2.3698
X6.0079Y-2.3698
X6.7598Y-2.4939
X7.1513Y-3.2148
X7.5118Y-2.5116
X7.8858Y-3.2559
X8.3483Y-2.5312
X8.9158Y-3.2233
X9.4729Y-3.1058
T2
X9.5438Y-1.0906
X9.5438Y-1.1906
X9.5438Y-1.2906
X9.5438Y-1.3906
X9.5438Y-1.4906
X9.5438Y-1.5906
X9.5438Y-1.6906
X9.5438Y-1.7906
X9.5438Y-1.8906
X9.5438Y-1.9906
X9.5438Y-2.0906
X9.5438Y-2.1906
X10.1438Y-1.0906
X10.1438Y-1.1906
X10.1438Y-1.2906
X10.1438Y-1.3906
X10.1438Y-1.4906
X10.1438Y-1.5906
X10.1438Y-1.6906
X10.1438Y-1.7906
X10.1438Y-1.8906
X10.1438Y-1.9906
X10.1438Y-2.0906
X10.1438Y-2.1906
T3
X1.4438Y-3.65
X1.5375Y-2.9
X1.5375Y-3.65
X1.6313Y-1.4
X1.6938Y-3.55
X1.725Y-2.15
X1.7875Y-2.8
X1.7875Y-3.55
X1.8813Y-1.3
X1.9125Y-2.9
X1.975Y-2.05
X2.1625Y-2.8
X2.1938Y-3.65
X2.3813Y-2.9
X2.4438Y-3.55
X2.475Y-3.65
X2.5688Y-1.4
X2.6313Y-2.8
X2.725Y-3.55
X2.7563Y-2.15
X2.8188Y-1.3
X3.0063Y-2.05
X3.1313Y-2.9
X3.3188Y-1.4
X3.3813Y-2.8
X3.4125Y-3.65
X3.5063Y-2.15
X3.5688Y-1.3
X3.6625Y-3.55
X3.7563Y-2.05
X3.8813Y-2.9
X4.0688Y-1.4
X4.0688Y-3.65
X4.1313Y-2.8
X4.2563Y-2.15
X4.3188Y-1.3
X4.3188Y-3.55
X4.5063Y-2.05
X4.5375Y-3.65
X4.6313Y-2.9
X4.7875Y-3.55
X4.8188Y-1.4
X4.8813Y-2.8
X5.0063Y-2.15
X5.0688Y-1.3
X5.1938Y-3.65
X5.1938Y-3.65
X5.2563Y-2.05
X5.3813Y-2.9
X5.4438Y-3.55
X5.4438Y-3.55
X5.5688Y-1.4
X5.6313Y-2.8
X5.7563Y-2.15
X5.8188Y-1.3
X5.85Y-3.65
X6.0063Y-2.05
X6.1Y-3.55
X6.1313Y-2.9
X6.3188Y-1.4
X6.3188Y-3.65
X6.3813Y-2.8
X6.5063Y-2.15
X6.5688Y-1.3
X6.5688Y-3.55
X6.7563Y-2.05
X6.8813Y-2.9
X6.975Y-3.65
X7.0688Y-1.4
X7.1313Y-2.8
X7.225Y-3.55
X7.2563Y-2.15
X7.3188Y-1.3
X7.5063Y-2.05
X7.6313Y-2.9
X7.8188Y-1.4
X7.8813Y-2.8
X7.9125Y-3.65
X8.0063Y-2.15
X8.0688Y-1.3
X8.1625Y-3.55
X8.1938Y-3.65
X8.2563Y-2.05
X8.2875Y-2.9
X8.4438Y-3.55
X8.475Y-2.15
X8.5375Y-2.8
X8.6625Y-2.9
X8.725Y-2.05
X8.7563Y-1.4
X8.85Y-2.15
X8.85Y-3.65
X8.9125Y-2.8
X8.9438Y-3.65
X9.0063Y-1.3
X9.1Y-2.05
X9.1Y-3.55
X9.1938Y-3.55
T4
X1.1016Y-1.0078
X1.1016Y-4.2422
X5.3438Y-1.0078
X5.3438Y-4.2422
X9.3516Y-1.0078
X10.3125Y-1.0078
X10.3125Y-4.2422
T0
M30
