%TF.GenerationSoftware,KiCad,Pcbnew,(5.1.9)-1*%
%TF.CreationDate,2022-03-10T13:39:28-08:00*%
%TF.ProjectId,warpstone - diode array,77617270-7374-46f6-9e65-202d2064696f,rev?*%
%TF.SameCoordinates,Original*%
%TF.FileFunction,Soldermask,Bot*%
%TF.FilePolarity,Negative*%
%FSLAX46Y46*%
G04 Gerber Fmt 4.6, Leading zero omitted, Abs format (unit mm)*
G04 Created by KiCad (PCBNEW (5.1.9)-1) date 2022-03-10 13:39:28*
%MOMM*%
%LPD*%
G01*
G04 APERTURE LIST*
%ADD10C,2.250000*%
%ADD11C,3.987800*%
%ADD12C,1.750000*%
%ADD13C,3.800000*%
%ADD14C,1.752600*%
%ADD15R,1.752600X1.752600*%
%ADD16C,3.048000*%
%ADD17R,1.100000X1.800000*%
G04 APERTURE END LIST*
D10*
%TO.C,MX15*%
X133509300Y-52070240D03*
D11*
X130969300Y-57150240D03*
D10*
X127159300Y-54610240D03*
D12*
X125889300Y-57150240D03*
X136049300Y-57150240D03*
%TD*%
D10*
%TO.C,MX18*%
X190659540Y-52070240D03*
D11*
X188119540Y-57150240D03*
D10*
X184309540Y-54610240D03*
D12*
X183039540Y-57150240D03*
X193199540Y-57150240D03*
%TD*%
D10*
%TO.C,MX17*%
X171609460Y-52070240D03*
D11*
X169069460Y-57150240D03*
D10*
X165259460Y-54610240D03*
D12*
X163989460Y-57150240D03*
X174149460Y-57150240D03*
%TD*%
D13*
%TO.C,REF\u002A\u002A*%
X135731364Y-25598459D03*
%TD*%
%TO.C,REF\u002A\u002A*%
X237529887Y-25598459D03*
%TD*%
%TO.C,REF\u002A\u002A*%
X261937720Y-25598459D03*
%TD*%
%TO.C,REF\u002A\u002A*%
X261937720Y-107751653D03*
%TD*%
%TO.C,REF\u002A\u002A*%
X135731364Y-107751653D03*
%TD*%
%TO.C,REF\u002A\u002A*%
X27979711Y-107751653D03*
%TD*%
%TO.C,REF\u002A\u002A*%
X27979711Y-25598459D03*
%TD*%
D14*
%TO.C,U1*%
X242411460Y-27701910D03*
X257651460Y-55641910D03*
X242411460Y-30241910D03*
X242411460Y-32781910D03*
X242411460Y-35321910D03*
X242411460Y-37861910D03*
X242411460Y-40401910D03*
X242411460Y-42941910D03*
X242411460Y-45481910D03*
X242411460Y-48021910D03*
X242411460Y-50561910D03*
X242411460Y-53101910D03*
X242411460Y-55641910D03*
X257651460Y-53101910D03*
X257651460Y-50561910D03*
X257651460Y-48021910D03*
X257651460Y-45481910D03*
X257651460Y-42941910D03*
X257651460Y-40401910D03*
X257651460Y-37861910D03*
X257651460Y-35321910D03*
X257651460Y-32781910D03*
X257651460Y-30241910D03*
D15*
X257651460Y-27701910D03*
%TD*%
D10*
%TO.C,MX30-2.75u1*%
X216853400Y-71120320D03*
D11*
X214313400Y-76200320D03*
D10*
X210503400Y-73660320D03*
D12*
X209233400Y-76200320D03*
X219393400Y-76200320D03*
D16*
X202407150Y-69215320D03*
X226219650Y-69215320D03*
D11*
X202407150Y-84455320D03*
X226219650Y-84455320D03*
%TD*%
D10*
%TO.C,MX21-2.25u1*%
X54927720Y-71120320D03*
D11*
X52387720Y-76200320D03*
D10*
X48577720Y-73660320D03*
D12*
X47307720Y-76200320D03*
X57467720Y-76200320D03*
D16*
X40481470Y-69215320D03*
X64293970Y-69215320D03*
D11*
X40481470Y-84455320D03*
X64293970Y-84455320D03*
%TD*%
D10*
%TO.C,MX11*%
X50165200Y-52070240D03*
D11*
X47625200Y-57150240D03*
D10*
X43815200Y-54610240D03*
D12*
X42545200Y-57150240D03*
%TD*%
D10*
%TO.C,MX20-2.25u1*%
X221615920Y-52070240D03*
D11*
X219075920Y-57150240D03*
D10*
X215265920Y-54610240D03*
D12*
X213995920Y-57150240D03*
X224155920Y-57150240D03*
D16*
X207169670Y-64135240D03*
X230982170Y-64135240D03*
D11*
X207169670Y-48895240D03*
X230982170Y-48895240D03*
%TD*%
D10*
%TO.C,MX38-1u1*%
X233522220Y-90170400D03*
D11*
X230982220Y-95250400D03*
D10*
X227172220Y-92710400D03*
D12*
X225902220Y-95250400D03*
X236062220Y-95250400D03*
%TD*%
D10*
%TO.C,MX37-1u1*%
X214472140Y-90170400D03*
D11*
X211932140Y-95250400D03*
D10*
X208122140Y-92710400D03*
D12*
X206852140Y-95250400D03*
X217012140Y-95250400D03*
%TD*%
D10*
%TO.C,MX32-1u1*%
X62071500Y-90170400D03*
D11*
X59531500Y-95250400D03*
D10*
X55721500Y-92710400D03*
D12*
X54451500Y-95250400D03*
X64611500Y-95250400D03*
%TD*%
D10*
%TO.C,MX31-1u1*%
X43021420Y-90170400D03*
D11*
X40481420Y-95250400D03*
D10*
X36671420Y-92710400D03*
D12*
X35401420Y-95250400D03*
X45561420Y-95250400D03*
%TD*%
D10*
%TO.C,MX34-7u1*%
X138271820Y-90170400D03*
D11*
X135731820Y-95250400D03*
D10*
X131921820Y-92710400D03*
D12*
X130651820Y-95250400D03*
X140811820Y-95250400D03*
D16*
X78581820Y-102235400D03*
X192881820Y-102235400D03*
D11*
X78581820Y-86995400D03*
X192881820Y-86995400D03*
%TD*%
%TO.C,MX34-6u1*%
X183356820Y-86995400D03*
X88106820Y-86995400D03*
D16*
X183356820Y-102235400D03*
X88106820Y-102235400D03*
D12*
X140811820Y-95250400D03*
X130651820Y-95250400D03*
D10*
X131921820Y-92710400D03*
D11*
X135731820Y-95250400D03*
D10*
X138271820Y-90170400D03*
%TD*%
%TO.C,MX35-3u1*%
X166846940Y-90170400D03*
X160496940Y-92710400D03*
D11*
X164306940Y-95250400D03*
D12*
X159226940Y-95250400D03*
X169386940Y-95250400D03*
D16*
X145256940Y-102235400D03*
X183356940Y-102235400D03*
D11*
X145256940Y-86995400D03*
X183356940Y-86995400D03*
%TD*%
D10*
%TO.C,MX34-3u1*%
X109696700Y-90170400D03*
X103346700Y-92710400D03*
D11*
X107156700Y-95250400D03*
D12*
X102076700Y-95250400D03*
X112236700Y-95250400D03*
D16*
X88106700Y-102235400D03*
X126206700Y-102235400D03*
D11*
X88106700Y-86995400D03*
X126206700Y-86995400D03*
%TD*%
D17*
%TO.C,SW1*%
X251881460Y-38818780D03*
X251881460Y-32618780D03*
X248181460Y-38818780D03*
X248181460Y-32618780D03*
%TD*%
D10*
%TO.C,MX38*%
X231140960Y-90170400D03*
D11*
X228600960Y-95250400D03*
D10*
X224790960Y-92710400D03*
D12*
X223520960Y-95250400D03*
X233680960Y-95250400D03*
%TD*%
D10*
%TO.C,MX37*%
X207328360Y-90170400D03*
D11*
X204788360Y-95250400D03*
D10*
X200978360Y-92710400D03*
D12*
X199708360Y-95250400D03*
X209868360Y-95250400D03*
%TD*%
D10*
%TO.C,MX36*%
X183515760Y-90170400D03*
D11*
X180975760Y-95250400D03*
D10*
X177165760Y-92710400D03*
D12*
X175895760Y-95250400D03*
X186055760Y-95250400D03*
%TD*%
D10*
%TO.C,MX35*%
X154940640Y-90170400D03*
D11*
X152400640Y-95250400D03*
D10*
X148590640Y-92710400D03*
D12*
X147320640Y-95250400D03*
X157480640Y-95250400D03*
%TD*%
D10*
%TO.C,MX34*%
X121603000Y-90170400D03*
D11*
X119063000Y-95250400D03*
D10*
X115253000Y-92710400D03*
D12*
X113983000Y-95250400D03*
X124143000Y-95250400D03*
%TD*%
D10*
%TO.C,MX33*%
X93027880Y-90170400D03*
D11*
X90487880Y-95250400D03*
D10*
X86677880Y-92710400D03*
D12*
X85407880Y-95250400D03*
X95567880Y-95250400D03*
%TD*%
D10*
%TO.C,MX32*%
X69215280Y-90170400D03*
D11*
X66675280Y-95250400D03*
D10*
X62865280Y-92710400D03*
D12*
X61595280Y-95250400D03*
X71755280Y-95250400D03*
%TD*%
D10*
%TO.C,MX31*%
X45402680Y-90170400D03*
D11*
X42862680Y-95250400D03*
D10*
X39052680Y-92710400D03*
D12*
X37782680Y-95250400D03*
X47942680Y-95250400D03*
%TD*%
D10*
%TO.C,MX30*%
X226378440Y-71120320D03*
D11*
X223838440Y-76200320D03*
D10*
X220028440Y-73660320D03*
D12*
X218758440Y-76200320D03*
X228918440Y-76200320D03*
%TD*%
D10*
%TO.C,MX29*%
X200184580Y-71120320D03*
D11*
X197644580Y-76200320D03*
D10*
X193834580Y-73660320D03*
D12*
X192564580Y-76200320D03*
X202724580Y-76200320D03*
%TD*%
D10*
%TO.C,MX28*%
X181134500Y-71120320D03*
D11*
X178594500Y-76200320D03*
D10*
X174784500Y-73660320D03*
D12*
X173514500Y-76200320D03*
X183674500Y-76200320D03*
%TD*%
D10*
%TO.C,MX27*%
X162084420Y-71120320D03*
D11*
X159544420Y-76200320D03*
D10*
X155734420Y-73660320D03*
D12*
X154464420Y-76200320D03*
X164624420Y-76200320D03*
%TD*%
D10*
%TO.C,MX26*%
X143034340Y-71120320D03*
D11*
X140494340Y-76200320D03*
D10*
X136684340Y-73660320D03*
D12*
X135414340Y-76200320D03*
X145574340Y-76200320D03*
%TD*%
D10*
%TO.C,MX25*%
X123984260Y-71120320D03*
D11*
X121444260Y-76200320D03*
D10*
X117634260Y-73660320D03*
D12*
X116364260Y-76200320D03*
X126524260Y-76200320D03*
%TD*%
D10*
%TO.C,MX24*%
X104934180Y-71120320D03*
D11*
X102394180Y-76200320D03*
D10*
X98584180Y-73660320D03*
D12*
X97314180Y-76200320D03*
X107474180Y-76200320D03*
%TD*%
D10*
%TO.C,MX23*%
X85884100Y-71120320D03*
D11*
X83344100Y-76200320D03*
D10*
X79534100Y-73660320D03*
D12*
X78264100Y-76200320D03*
X88424100Y-76200320D03*
%TD*%
D10*
%TO.C,MX22*%
X66834020Y-71120320D03*
D11*
X64294020Y-76200320D03*
D10*
X60484020Y-73660320D03*
D12*
X59214020Y-76200320D03*
X69374020Y-76200320D03*
%TD*%
D10*
%TO.C,MX21*%
X45402680Y-71120320D03*
D11*
X42862680Y-76200320D03*
D10*
X39052680Y-73660320D03*
D12*
X37782680Y-76200320D03*
X47942680Y-76200320D03*
%TD*%
D10*
%TO.C,MX20*%
X231140960Y-52070240D03*
D11*
X228600960Y-57150240D03*
D10*
X224790960Y-54610240D03*
D12*
X223520960Y-57150240D03*
X233680960Y-57150240D03*
%TD*%
D10*
%TO.C,MX19*%
X209709620Y-52070240D03*
D11*
X207169620Y-57150240D03*
D10*
X203359620Y-54610240D03*
D12*
X202089620Y-57150240D03*
X212249620Y-57150240D03*
%TD*%
D10*
%TO.C,MX16*%
X152559380Y-52070240D03*
D11*
X150019380Y-57150240D03*
D10*
X146209380Y-54610240D03*
D12*
X144939380Y-57150240D03*
X155099380Y-57150240D03*
%TD*%
D10*
%TO.C,MX14*%
X114459220Y-52070240D03*
D11*
X111919220Y-57150240D03*
D10*
X108109220Y-54610240D03*
D12*
X106839220Y-57150240D03*
X116999220Y-57150240D03*
%TD*%
D10*
%TO.C,MX13*%
X95409140Y-52070240D03*
D11*
X92869140Y-57150240D03*
D10*
X89059140Y-54610240D03*
D12*
X87789140Y-57150240D03*
X97949140Y-57150240D03*
%TD*%
D10*
%TO.C,MX12*%
X76359060Y-52070240D03*
D11*
X73819060Y-57150240D03*
D10*
X70009060Y-54610240D03*
D12*
X68739060Y-57150240D03*
X78899060Y-57150240D03*
%TD*%
D10*
%TO.C,MX10*%
X228759700Y-33020160D03*
D11*
X226219700Y-38100160D03*
D10*
X222409700Y-35560160D03*
D12*
X221139700Y-38100160D03*
X231299700Y-38100160D03*
%TD*%
D10*
%TO.C,MX9*%
X204947100Y-33020160D03*
D11*
X202407100Y-38100160D03*
D10*
X198597100Y-35560160D03*
D12*
X197327100Y-38100160D03*
X207487100Y-38100160D03*
%TD*%
D10*
%TO.C,MX8*%
X185897020Y-33020160D03*
D11*
X183357020Y-38100160D03*
D10*
X179547020Y-35560160D03*
D12*
X178277020Y-38100160D03*
X188437020Y-38100160D03*
%TD*%
D10*
%TO.C,MX7*%
X166846940Y-33020160D03*
D11*
X164306940Y-38100160D03*
D10*
X160496940Y-35560160D03*
D12*
X159226940Y-38100160D03*
X169386940Y-38100160D03*
%TD*%
D10*
%TO.C,MX6*%
X147796860Y-33020160D03*
D11*
X145256860Y-38100160D03*
D10*
X141446860Y-35560160D03*
D12*
X140176860Y-38100160D03*
X150336860Y-38100160D03*
%TD*%
D10*
%TO.C,MX5*%
X128746780Y-33020160D03*
D11*
X126206780Y-38100160D03*
D10*
X122396780Y-35560160D03*
D12*
X121126780Y-38100160D03*
X131286780Y-38100160D03*
%TD*%
D10*
%TO.C,MX4*%
X109696700Y-33020160D03*
D11*
X107156700Y-38100160D03*
D10*
X103346700Y-35560160D03*
D12*
X102076700Y-38100160D03*
X112236700Y-38100160D03*
%TD*%
D10*
%TO.C,MX3*%
X90646620Y-33020160D03*
D11*
X88106620Y-38100160D03*
D10*
X84296620Y-35560160D03*
D12*
X83026620Y-38100160D03*
X93186620Y-38100160D03*
%TD*%
D10*
%TO.C,MX2*%
X71596540Y-33020160D03*
D11*
X69056540Y-38100160D03*
D10*
X65246540Y-35560160D03*
D12*
X63976540Y-38100160D03*
X74136540Y-38100160D03*
%TD*%
D10*
%TO.C,MX1*%
X47783940Y-33020160D03*
D11*
X45243940Y-38100160D03*
D10*
X41433940Y-35560160D03*
D12*
X40163940Y-38100160D03*
X50323940Y-38100160D03*
%TD*%
M02*
