%TF.GenerationSoftware,KiCad,Pcbnew,(5.1.9)-1*%
%TF.CreationDate,2022-03-10T13:39:28-08:00*%
%TF.ProjectId,warpstone - diode array,77617270-7374-46f6-9e65-202d2064696f,rev?*%
%TF.SameCoordinates,Original*%
%TF.FileFunction,Paste,Top*%
%TF.FilePolarity,Positive*%
%FSLAX46Y46*%
G04 Gerber Fmt 4.6, Leading zero omitted, Abs format (unit mm)*
G04 Created by KiCad (PCBNEW (5.1.9)-1) date 2022-03-10 13:39:28*
%MOMM*%
%LPD*%
G01*
G04 APERTURE LIST*
%ADD10R,1.400000X1.200000*%
G04 APERTURE END LIST*
D10*
%TO.C,D38*%
X256877128Y-102221958D03*
X256877128Y-98821958D03*
%TD*%
%TO.C,D37*%
X253305256Y-102221958D03*
X253305256Y-98821958D03*
%TD*%
%TO.C,D36*%
X249733384Y-102221958D03*
X249733384Y-98821958D03*
%TD*%
%TO.C,D35*%
X246161512Y-102221958D03*
X246161512Y-98821958D03*
%TD*%
%TO.C,D34*%
X242589640Y-102221958D03*
X242589640Y-98821958D03*
%TD*%
%TO.C,D33*%
X257174784Y-95673515D03*
X257174784Y-92273515D03*
%TD*%
%TO.C,D32*%
X254198224Y-95673515D03*
X254198224Y-92273515D03*
%TD*%
%TO.C,D31*%
X251221664Y-95673515D03*
X251221664Y-92273515D03*
%TD*%
%TO.C,D30*%
X248245104Y-95673515D03*
X248245104Y-92273515D03*
%TD*%
%TO.C,D29*%
X245268544Y-95673515D03*
X245268544Y-92273515D03*
%TD*%
%TO.C,D28*%
X242291984Y-95673515D03*
X242291984Y-92273515D03*
%TD*%
%TO.C,D27*%
X256877128Y-89125072D03*
X256877128Y-85725072D03*
%TD*%
%TO.C,D26*%
X253305256Y-89125072D03*
X253305256Y-85725072D03*
%TD*%
%TO.C,D25*%
X249733384Y-89125072D03*
X249733384Y-85725072D03*
%TD*%
%TO.C,D24*%
X246161512Y-89125072D03*
X246161512Y-85725072D03*
%TD*%
%TO.C,D23*%
X242589640Y-89125072D03*
X242589640Y-85725072D03*
%TD*%
%TO.C,D22*%
X257174784Y-82576629D03*
X257174784Y-79176629D03*
%TD*%
%TO.C,D21*%
X254198224Y-82576629D03*
X254198224Y-79176629D03*
%TD*%
%TO.C,D20*%
X251221664Y-82576629D03*
X251221664Y-79176629D03*
%TD*%
%TO.C,D19*%
X248245104Y-82576629D03*
X248245104Y-79176629D03*
%TD*%
%TO.C,D18*%
X245268544Y-82576629D03*
X245268544Y-79176629D03*
%TD*%
%TO.C,D17*%
X242291984Y-82576629D03*
X242291984Y-79176629D03*
%TD*%
%TO.C,D16*%
X256877128Y-76028186D03*
X256877128Y-72628186D03*
%TD*%
%TO.C,D15*%
X253305256Y-76028186D03*
X253305256Y-72628186D03*
%TD*%
%TO.C,D14*%
X249733384Y-76028186D03*
X249733384Y-72628186D03*
%TD*%
%TO.C,D13*%
X246161512Y-76028186D03*
X246161512Y-72628186D03*
%TD*%
%TO.C,D12*%
X242589640Y-76028186D03*
X242589640Y-72628186D03*
%TD*%
%TO.C,D11*%
X257175216Y-69479743D03*
X257175216Y-66079743D03*
%TD*%
%TO.C,D10*%
X254198651Y-69479743D03*
X254198651Y-66079743D03*
%TD*%
%TO.C,D9*%
X251222086Y-69479743D03*
X251222086Y-66079743D03*
%TD*%
%TO.C,D8*%
X248245521Y-69479743D03*
X248245521Y-66079743D03*
%TD*%
%TO.C,D7*%
X245268956Y-69479743D03*
X245268956Y-66079743D03*
%TD*%
%TO.C,D6*%
X242292391Y-69479743D03*
X242292391Y-66079743D03*
%TD*%
%TO.C,D5*%
X256877560Y-62931300D03*
X256877560Y-59531300D03*
%TD*%
%TO.C,D4*%
X253305682Y-62931300D03*
X253305682Y-59531300D03*
%TD*%
%TO.C,D3*%
X249733804Y-62931300D03*
X249733804Y-59531300D03*
%TD*%
%TO.C,D2*%
X246161926Y-62931300D03*
X246161926Y-59531300D03*
%TD*%
%TO.C,D1*%
X242590048Y-62931300D03*
X242590048Y-59531300D03*
%TD*%
M02*
